<svg width="360" height="87" fill="none" xmlns="http://www.w3.org/2000/svg" viewBox="0 0 360 87">
    <path d="M114 58.02l1.86-24.24h2.16l-1.8 22.38h12.54l-.12 1.86H114zm33.12-17.04l-1.32 17.04h-2.04l.24-2.94a5.331 5.331 0 0 1-2.4 2.34c-1.08.54-2.22.84-3.42.84-1.44 0-2.7-.36-3.84-1.02-1.08-.66-1.92-1.62-2.52-2.88-.6-1.26-.9-2.7-.9-4.38 0-1.86.3-3.54.96-4.98.66-1.44 1.62-2.52 2.82-3.3 1.2-.78 2.58-1.2 4.2-1.2 1.38 0 2.64.3 3.66.9 1.02.6 1.8 1.5 2.28 2.58l.24-3.12h2.04v.12zm-4.2 13.44c1.08-1.38 1.56-3.3 1.56-5.7 0-2.04-.48-3.66-1.44-4.74s-2.34-1.62-4.08-1.62c-1.86 0-3.3.66-4.32 2.04-1.02 1.38-1.56 3.3-1.56 5.7 0 2.04.48 3.6 1.44 4.68.96 1.14 2.34 1.68 4.08 1.68 1.8 0 3.24-.66 4.32-2.04zm18-13.68l-.18 1.86c-.42-.12-.96-.12-1.56-.12-1.74 0-3.12.54-4.02 1.68-.96 1.14-1.44 2.4-1.56 3.96l-.84 10.02h-2.1l.96-12.3c.12-1.5.12-2.64.12-3.42 0-.6 0-1.02-.06-1.32h1.92l.06 2.82c.54-1.02 1.32-1.8 2.34-2.34 1.02-.54 2.1-.84 3.3-.84.78-.18 1.26-.12 1.62 0zm16.56.24l-1.38 17.04h-2.04l.24-2.94a5.331 5.331 0 0 1-2.4 2.34c-1.08.54-2.22.84-3.42.84-1.44 0-2.7-.36-3.84-1.02-1.08-.66-1.92-1.62-2.52-2.88-.6-1.26-.9-2.7-.9-4.38 0-1.86.3-3.54.96-4.98.66-1.44 1.62-2.52 2.82-3.3 1.2-.78 2.58-1.2 4.2-1.2 1.38 0 2.64.3 3.66.9 1.02.6 1.8 1.5 2.28 2.58l.24-3.12h2.1v.12zm-4.26 13.44c1.08-1.38 1.56-3.3 1.56-5.7 0-2.04-.48-3.66-1.44-4.74s-2.34-1.62-4.08-1.62c-1.86 0-3.3.66-4.32 2.04-1.02 1.38-1.56 3.3-1.56 5.7 0 2.04.48 3.6 1.44 4.68.96 1.14 2.34 1.68 4.08 1.68 1.86 0 3.3-.66 4.32-2.04zm21.54-13.44h2.16l-8.64 17.04h-2.16l-5.94-17.04h2.1l5.04 15 7.44-15zm5.16 8.28c0 .18-.06.48-.06.9 0 1.98.48 3.54 1.5 4.62.96 1.14 2.4 1.68 4.26 1.68 1.02 0 2.04-.18 3.06-.54 1.02-.36 1.92-.84 2.7-1.56l.66 1.56c-.66.66-1.62 1.26-2.82 1.68-1.2.42-2.46.6-3.66.6-2.46 0-4.38-.72-5.76-2.22-1.38-1.5-2.1-3.48-2.1-6 0-1.86.36-3.54 1.02-4.98.66-1.44 1.68-2.52 2.94-3.36 1.26-.78 2.76-1.2 4.44-1.2 2.16 0 3.84.6 5.04 1.86 1.26 1.2 1.86 3 1.86 5.28 0 .48-.06 1.02-.12 1.56h-12.96v.12zm2.28-5.58c-1.02.96-1.74 2.28-2.1 4.02h11.04c.06-1.74-.36-3.06-1.26-4.02-.9-.96-2.1-1.44-3.6-1.44-1.74 0-3.06.48-4.08 1.44zM216 58.02L218.04 33h2.1l-2.04 25.02H216z" fill="#475569"/>
    <path d="M230.04 55.32l1.44-2.58c1.2.96 2.46 1.62 3.78 2.1 1.26.42 2.7.66 4.26.66 1.86 0 3.24-.3 4.2-.96.96-.66 1.44-1.56 1.44-2.82 0-.72-.24-1.38-.72-1.86-.48-.48-1.08-.9-1.8-1.14-.72-.3-1.74-.6-3.06-1.02-1.68-.48-3.06-.96-4.14-1.44-1.08-.48-1.98-1.14-2.7-2.04-.78-.9-1.14-2.1-1.14-3.54 0-1.38.36-2.64 1.14-3.72.78-1.08 1.86-1.86 3.24-2.46 1.38-.6 3.06-.84 4.92-.84 1.68 0 3.3.24 4.8.78s2.76 1.26 3.78 2.22l-1.44 2.58c-1.02-.9-2.16-1.56-3.42-2.04-1.2-.48-2.46-.66-3.78-.66-1.8 0-3.24.36-4.2 1.08-1.02.72-1.5 1.68-1.5 2.88 0 .84.24 1.5.78 2.04s1.2.96 1.92 1.26c.78.3 1.86.66 3.24 1.08 1.68.48 3 .96 4.02 1.38 1.02.42 1.92 1.08 2.58 1.92.72.84 1.08 1.98 1.08 3.3 0 2.16-.84 3.84-2.52 5.1-1.68 1.26-3.96 1.86-6.9 1.86-3.66-.12-6.78-1.14-9.3-3.12zM266.34 42c1.02 1.02 1.5 2.52 1.5 4.5 0 .42 0 .72-.06.96l-.84 10.56h-3.42l.84-10.38c0-.18.06-.42.06-.72 0-2.46-1.2-3.66-3.54-3.66-1.5 0-2.64.42-3.54 1.32-.84.9-1.38 2.1-1.44 3.66l-.78 9.78h-3.42L253.68 33h3.42l-.84 10.2c.6-.84 1.38-1.56 2.34-1.98.96-.48 2.1-.72 3.3-.72 1.98 0 3.42.48 4.44 1.5zm8.4 15.24c-1.26-.66-2.22-1.68-2.88-2.88-.66-1.26-1.02-2.7-1.02-4.38 0-1.92.36-3.6 1.08-4.98a8.015 8.015 0 0 1 3-3.3c1.32-.78 2.82-1.14 4.5-1.14 1.68 0 3.12.36 4.32 1.02 1.26.72 2.22 1.68 2.88 2.88.66 1.26 1.02 2.7 1.02 4.38 0 1.92-.36 3.6-1.08 4.98a8.015 8.015 0 0 1-3 3.3c-1.26.78-2.76 1.14-4.5 1.14-1.62 0-3.06-.3-4.32-1.02zm8.16-3.54c.9-1.26 1.32-2.94 1.32-4.98 0-1.74-.42-3.12-1.2-4.08s-1.98-1.44-3.54-1.44c-1.62 0-2.88.6-3.78 1.86-.9 1.26-1.32 2.88-1.32 4.98 0 1.8.42 3.18 1.2 4.14.78.96 1.98 1.44 3.6 1.44s2.82-.66 3.72-1.92zm21.36-12.18c1.08.66 1.98 1.62 2.58 2.88.6 1.26.9 2.7.9 4.38 0 1.86-.36 3.54-1.02 4.98-.66 1.44-1.62 2.58-2.88 3.36-1.2.78-2.64 1.2-4.2 1.2-1.32 0-2.46-.3-3.42-.84a5.715 5.715 0 0 1-2.28-2.34l-.84 10.26h-3.42l1.56-19.68c.12-.9.12-1.98.12-3.24 0-.72 0-1.26-.06-1.62h3.18l.06 2.82c.54-1.02 1.32-1.8 2.34-2.34 1.02-.54 2.16-.84 3.42-.84 1.56 0 2.88.3 3.96 1.02zm-1.32 12.3c.9-1.2 1.32-2.82 1.32-4.92 0-1.8-.42-3.18-1.26-4.14-.84-.96-2.04-1.5-3.54-1.5-1.62 0-2.82.6-3.72 1.8-.9 1.2-1.32 2.82-1.32 4.92 0 1.86.42 3.24 1.26 4.2.84.96 2.04 1.44 3.54 1.44 1.56 0 2.82-.6 3.72-1.8zm21.42-12.3c1.08.66 1.98 1.62 2.58 2.88.6 1.26.9 2.7.9 4.38 0 1.86-.36 3.54-1.02 4.98-.66 1.44-1.62 2.58-2.88 3.36-1.2.78-2.64 1.2-4.2 1.2-1.32 0-2.46-.3-3.42-.84a5.715 5.715 0 0 1-2.28-2.34l-.84 10.26h-3.42l1.56-19.68c.12-.9.12-1.98.12-3.24 0-.72 0-1.26-.06-1.62h3.18l.06 2.82c.54-1.02 1.32-1.8 2.34-2.34 1.02-.54 2.16-.84 3.42-.84 1.56 0 2.82.3 3.96 1.02zm-1.32 12.3c.9-1.2 1.32-2.82 1.32-4.92 0-1.8-.42-3.18-1.26-4.14-.84-.96-2.04-1.5-3.54-1.5-1.62 0-2.82.6-3.72 1.8-.9 1.2-1.32 2.82-1.32 4.92 0 1.86.42 3.24 1.26 4.2.84.96 2.04 1.44 3.54 1.44 1.56 0 2.82-.6 3.72-1.8zm10.56-4.26v.42c0 1.8.42 3.18 1.32 4.14.9.96 2.16 1.44 3.84 1.44 2.04 0 3.9-.66 5.46-1.92l.9 2.4c-.72.66-1.68 1.2-2.88 1.62-1.2.36-2.4.6-3.66.6-1.68 0-3.18-.36-4.44-1.02-1.26-.66-2.22-1.68-2.94-2.88-.66-1.26-1.02-2.7-1.02-4.38 0-1.86.36-3.54 1.08-4.98.72-1.44 1.74-2.58 3-3.36 1.32-.78 2.76-1.2 4.44-1.2 2.28 0 4.02.66 5.34 1.92 1.32 1.26 1.92 3.12 1.92 5.52 0 .48-.06 1.02-.12 1.56H333.6v.12zm1.92-5.4c-.84.78-1.44 1.86-1.74 3.36h9.18c0-1.44-.36-2.52-1.08-3.3-.72-.78-1.74-1.2-3.06-1.2s-2.46.36-3.3 1.14zM360 40.74l-.3 3.12c-.6-.24-1.26-.36-1.98-.36-1.56 0-2.76.48-3.66 1.44-.84.96-1.32 2.16-1.44 3.6l-.78 9.54h-3.42l.96-12.3c.12-1.56.12-2.7.12-3.48 0-.6 0-1.08-.06-1.38h3.18l.06 2.7c.54-.96 1.32-1.74 2.28-2.28.96-.54 2.1-.84 3.24-.84.72 0 1.26.06 1.8.24z" fill="#1E293B"/>
    <path d="M6 21h60v66H6V21z" fill="url(#paint0_radial)"/>
    <path d="M72 54l-24 6V42l24-6v18z" fill="url(#paint1_linear)"/>
    <path d="M24 75L0 81V63l24-6v18z" fill="url(#paint2_linear)"/>
    <path d="M36 36c-8.28 0-15-6.72-15-15h-6c0 11.58 9.42 21 21 21s21-9.42 21-21h-6c0 8.28-6.72 15-15 15z" fill="url(#paint3_linear)"/>
    <path d="M36 6c8.28 0 15 6.72 15 15h6C57 9.42 47.58 0 36 0S15 9.42 15 21h6c0-8.28 6.72-15 15-15z" fill="url(#paint4_linear)"/>
    <defs>
        <radialGradient id="paint0_radial" cx="0" cy="0" r="1" gradientUnits="userSpaceOnUse" gradientTransform="matrix(81 0 0 81 63 24)">
            <stop stop-color="#60A5FA"/>
            <stop offset="1" stop-color="#2563EB"/>
        </radialGradient>
        <linearGradient id="paint1_linear" x1="48" y1="60" x2="72" y2="36" gradientUnits="userSpaceOnUse">
            <stop stop-color="#DBEAFE"/>
            <stop offset="1" stop-color="#93C5FD"/>
        </linearGradient>
        <linearGradient id="paint2_linear" y1="81" x2="24" y2="57" gradientUnits="userSpaceOnUse">
            <stop stop-color="#93C5FD"/>
            <stop offset="1" stop-color="#DBEAFE"/>
        </linearGradient>
        <linearGradient id="paint3_linear" x1="15" y1="31.5" x2="57" y2="31.5" gradientUnits="userSpaceOnUse">
            <stop stop-color="#1E40AF"/>
            <stop offset="1" stop-color="#3B82F6"/>
        </linearGradient>
        <linearGradient id="paint4_linear" x1="15" y1="10.5" x2="57" y2="10.5" gradientUnits="userSpaceOnUse">
            <stop stop-color="#3B82F6"/>
            <stop offset="1" stop-color="#1E40AF"/>
        </linearGradient>
    </defs>
</svg>
