<svg width="480" height="480" viewBox="0 0 500 500" xmlns="http://www.w3.org/2000/svg">
    <path d="M168 160h16v16h-16v-16zm0 32h16v16h-16v-16zm0 32h16v16h-16v-16zm0 32h16v16h-16v-16zm32-96h16v16h-16v-16zm0 32h16v16h-16v-16zm0 32h16v16h-16v-16zm0 32h16v16h-16v-16zm32-96h16v16h-16v-16zm0 32h16v16h-16v-16zm0 32h16v16h-16v-16zm0 32h16v16h-16v-16zm32-96h16v16h-16v-16zm-64-32h16v16h-16v-16zm32 0h16v16h-16v-16zm32 0h16v16h-16v-16zm0 64h16v16h-16v-16zm0 32h16v16h-16v-16zm0 32h16v16h-16v-16zm32-96h16v16h-16v-16zm0 32h16v16h-16v-16zm0 32h16v16h-16v-16zm0 32h16v16h-16v-16zm176.009-136a7.995 7.995 0 017.991 8v288.009a7.995 7.995 0 01-8 7.991h-16.723c.465 2.642.707 5.318.723 8v40.009a7.995 7.995 0 01-8 7.991H31.991A7.995 7.995 0 0124 472v-40c.017-2.682.259-5.358.723-8H7.991A7.995 7.995 0 010 416V128v-.009A7.995 7.995 0 018 120h120V8v-.009A7.995 7.995 0 01136 0h208.009A7.995 7.995 0 01352 8v112h120.009zM344 344c-.011-8.832-7.168-15.989-16-16-8.837 0-16 7.163-16 16s7.163 16 16 16 16-7.163 16-16zm-192-16c-8.832.011-15.989 7.168-16 16 0 8.837 7.163 16 16 16s16-7.163 16-16-7.163-16-16-16zm-48 136v-32c0-17.673-14.327-32-32-32-17.673 0-32 14.327-32 32v32h64zm-48-96c.011 8.832 7.168 15.989 16 16 8.837 0 16-7.163 16-16s-7.163-16-16-16-16 7.163-16 16zm49.212 29.425a48.136 48.136 0 0123.64-31.449c-11.467-11.881-11.838-30.593-.852-42.92V136H16v271.999h14.494a48.31 48.31 0 0118.358-18.024c-11.803-12.365-11.803-31.824 0-44.189 12.203-12.784 32.459-13.256 45.243-1.053 12.784 12.203 13.255 32.459 1.053 45.243a48.225 48.225 0 0110.064 7.449zM184 464v-56c0-17.673-14.327-32-32-32-17.673 0-32 14.327-32 32v56h64zm96 0v-56c0-22.091-17.909-40-40-40s-40 17.909-40 40v56h80zm-64-136c.014 13.249 10.751 23.986 24 24 13.255 0 24-10.745 24-24s-10.745-24-24-24-24 10.745-24 24zm72.722 52.495a48.318 48.318 0 0116.13-14.519A31.916 31.916 0 01296 343.831c.047-17.627 14.374-31.878 32-31.831 2.704.035 5.393.417 8 1.136V16H144v297.136a31.77 31.77 0 0130.637 7.913c12.548 12.265 12.776 32.38.511 44.927a48.318 48.318 0 0116.13 14.519 56.35 56.35 0 0122.953-22.16 39.997 39.997 0 01-4.826-4.826c-14.231-16.897-12.071-42.132 4.826-56.364 16.897-14.231 42.132-12.071 56.364 4.826 14.231 16.897 12.071 42.132-4.826 56.364a56.35 56.35 0 0122.953 22.16zM360 432v-24c0-17.673-14.327-32-32-32-17.673 0-32 14.327-32 32v56h64v-32zm80 32v-32c0-17.673-14.327-32-32-32-17.673 0-32 14.327-32 32v32h64zm-48-96c.011 8.832 7.168 15.989 16 16 8.837 0 16-7.163 16-16s-7.163-16-16-16-16 7.163-16 16zm72.001 40V136h-112v187.055c10.986 12.327 10.614 31.039-.853 42.92a48.133 48.133 0 0123.64 31.449 48.199 48.199 0 0110.064-7.449c-11.803-12.365-11.803-31.824 0-44.189 12.203-12.784 32.459-13.255 45.243-1.053 12.784 12.203 13.255 32.459 1.053 45.243A48.31 48.31 0 01449.506 408h14.495zM376 184h16v128h-16V184zm48 0h16v128h-16V184zm-384 0h16v128H40V184zm48 0h16v128H88V184zM288.009 32A7.995 7.995 0 01296 40v64.009a7.995 7.995 0 01-8 7.991h-96.009a7.995 7.995 0 01-7.991-8V40v-.009A7.995 7.995 0 01192 32h96.009zM280 96V48h-80v48h80z" fill-rule="nonzero" fill="#007cc3"/>
</svg>
