<?xml version="1.0" encoding="utf-8"?>
<!-- Generator: Adobe Illustrator 21.0.0, SVG Export Plug-In . SVG Version: 6.00 Build 0)  -->
<svg version="1.1" id="Layer_1" xmlns="http://www.w3.org/2000/svg" xmlns:xlink="http://www.w3.org/1999/xlink" x="0px" y="0px"
	 viewBox="0 0 412.2 543.5" style="enable-background:new 0 0 412.2 543.5;" xml:space="preserve">
<style type="text/css">
	.st0{display:none;fill:#FFFFFF;}
	.st1{fill:#007CC3;}
	.st2{fill:#1D4670;}
	.st3{fill:#FFFFFF;}
</style>
<g>
	<g>
		<path class="st3" d="M364.5,183.1c0,5.4-0.2,10.8-0.8,15.9c0,0.2,0,0.5,0,0.6c0,0.5-0.1,0.9-0.1,1.4v0.1c-0.2,1.8-0.7,3.7-1.3,5.4
			c-4.4,13.7-17.1,23.6-32.2,23.6c-17.6,0-32-13.4-33.6-30.5l0,0c-0.1-1-0.1-2.1-0.1-3.2c0-1.1,0-2.2,0.1-3.3l0,0
			c0.2-2.3,0.5-4.6,0.5-6.9c0-1,0-2.2,0-3.2c0-51.1-41.4-92.5-92.5-92.5c-3.3,0-6.7,0.2-10,0.6l0,0c-0.2,0-0.5,0.1-0.7,0.1
			c-0.5,0-0.8,0.1-1.3,0.1c-1.1,0.1-2.2,0.1-3.3,0.1c-18.6,0-33.7-15.1-33.7-33.7c0-16.9,12.3-30.7,28.5-33.3
			c0.5-0.1,0.9-0.1,1.3-0.2c6.3-0.8,12.7-1.1,19.3-1.1C292.9,23.1,364.5,94.7,364.5,183.1z"/>
		<path class="st3" d="M44.7,188.6c-0.1-1.8-0.1-3.7-0.1-5.6c0-1.1,0-2.2,0-3.2L44.7,188.6z"/>
		<path class="st3" d="M137.2,255.6l-92.5-66.3c0-0.2,0-0.5,0-0.6l51.6,37.4L137.2,255.6z"/>
	</g>
	<g>
		<path class="st3" d="M252,470.2c-0.1,16.9-12.4,30.7-28.6,33.2c-0.5,0.1-0.9,0.1-1.3,0.2c-6.3,0.7-12.7,1.1-19.3,1
			C114.5,504.3,43.3,432.4,43.6,344c0-5.4,0.3-10.8,0.8-15.9c0-0.2,0-0.5,0.1-0.6c0-0.5,0.1-0.9,0.1-1.4V326
			c0.2-1.8,0.7-3.7,1.3-5.4c4.4-13.7,17.2-23.5,32.2-23.4c17.6,0.1,31.9,13.5,33.5,30.7l0,0c0.1,1,0.1,2.1,0.1,3.2
			c0,1.1-0.1,2.2-0.2,3.3l0,0c-0.2,2.3-0.5,4.6-0.6,6.9c0,1,0,2.2-0.1,3.2c-0.2,51.1,41,92.6,92,92.8c3.3,0,6.7-0.1,10-0.5l0,0
			c0.2,0,0.5-0.1,0.7-0.1c0.5,0,0.8-0.1,1.3-0.1c1.1-0.1,2.2-0.1,3.3-0.1C236.9,436.5,252,451.6,252,470.2z"/>
		<path class="st3" d="M174.7,202.8L115.1,160c0-0.1,0-0.2,0.1-0.3l43.6,31.6L174.7,202.8z"/>
		<path class="st3" d="M363.4,345.5c0,0.9,0,2,0,2.9c-0.5,21.5-5.2,41.9-13.3,60.5c-22.3,50.4-70,87.7-126.7,94.7l0,0
			c16.2-2.5,28.5-16.4,28.6-33.2c0.1-18.6-14.9-33.8-33.6-33.8c-1.1,0-2.3,0-3.3,0.1c37.7-4.7,68.5-32.1,77.9-68.3L153.3,267.3
			l-15.8-11.5l-0.2-0.1l-40.8-29.6l-51.6-37.4l-0.1-8.8c0.5-21.3,5-41.6,13.1-60.1c22-50.5,69.6-87.9,126.2-95.1l0,0
			c-16.1,2.5-28.5,16.5-28.5,33.3c0,18.6,15.1,33.7,33.7,33.7c1.1,0,2.3,0,3.3-0.1c-37.6,4.8-68.2,32.2-77.6,68.3
			c0,0.1,0,0.2-0.1,0.3l59.7,42.8l0.1,0.1L363,339.4C363.4,341.4,363.4,343.4,363.4,345.5z"/>
	</g>
</g>
</svg>
