<?xml version="1.0" encoding="utf-8"?>
<!-- Generator: Adobe Illustrator 22.0.1, SVG Export Plug-In . SVG Version: 6.00 Build 0)  -->
<svg version="1.1" id="Layer_1" xmlns="http://www.w3.org/2000/svg" xmlns:xlink="http://www.w3.org/1999/xlink" x="0px" y="0px"
	 viewBox="0 0 1920 519.7" style="enable-background:new 0 0 1920 519.7;" xml:space="preserve">
<style type="text/css">
	.st0{display:none;fill:#FFFFFF;}
	.st1{fill:#007CC3;}
	.st2{fill:#1D4670;}
</style>
<rect y="0.3" class="st0" width="1920" height="519"/>
<g>
	<g>
		<path class="st1" d="M289.3,194.4c0,4.7-0.2,9.4-0.7,13.9c0,0.2,0,0.4,0,0.5c0,0.4-0.1,0.8-0.1,1.2c0,0,0,0.1,0,0.1
			c-0.2,1.6-0.6,3.2-1.1,4.7c-3.8,11.9-14.9,20.6-28.1,20.6c-15.3,0-27.9-11.7-29.3-26.6v0c-0.1-0.9-0.1-1.8-0.1-2.8
			c0-1,0-1.9,0.1-2.9l0,0c0.2-2,0.4-4,0.4-6c0-0.9,0-1.9,0-2.8c0-44.5-36.1-80.6-80.6-80.6c-2.9,0-5.8,0.2-8.7,0.5v0
			c-0.2,0-0.4,0.1-0.6,0.1c-0.4,0-0.7,0.1-1.1,0.1c-1,0.1-1.9,0.1-2.9,0.1c-16.2,0-29.4-13.2-29.4-29.4c0-14.7,10.7-26.8,24.8-29
			c0.4-0.1,0.8-0.1,1.1-0.2c5.5-0.7,11.1-1,16.8-1C226.9,55,289.3,117.4,289.3,194.4z"/>
		<path class="st2" d="M10.6,199.2c-0.1-1.6-0.1-3.2-0.1-4.9c0-1,0-1.9,0-2.8L10.6,199.2z"/>
		<path class="st2" d="M91.2,257.6l-80.6-57.8c0-0.2,0-0.4,0-0.5l45,32.6L91.2,257.6z"/>
	</g>
	<g>
		<path class="st1" d="M191.2,444.7c-0.1,14.7-10.8,26.8-24.9,28.9c-0.4,0.1-0.8,0.1-1.1,0.2c-5.5,0.6-11.1,1-16.8,0.9
			c-77-0.3-139.1-63-138.8-140c0-4.7,0.3-9.4,0.7-13.9c0-0.2,0-0.4,0.1-0.5c0-0.4,0.1-0.8,0.1-1.2c0,0,0-0.1,0-0.1
			c0.2-1.6,0.6-3.2,1.1-4.7c3.8-11.9,15-20.5,28.1-20.4c15.3,0.1,27.8,11.8,29.2,26.8v0c0.1,0.9,0.1,1.8,0.1,2.8
			c0,1-0.1,1.9-0.2,2.9l0,0c-0.2,2-0.4,4-0.5,6c0,0.9,0,1.9-0.1,2.8c-0.2,44.5,35.7,80.7,80.2,80.9c2.9,0,5.8-0.1,8.7-0.4v0
			c0.2,0,0.4-0.1,0.6-0.1c0.4,0,0.7-0.1,1.1-0.1c1-0.1,1.9-0.1,2.9-0.1C178.1,415.3,191.2,428.5,191.2,444.7z"/>
		<path class="st2" d="M123.9,211.6l-52-37.3c0-0.1,0-0.2,0.1-0.3l38,27.5L123.9,211.6z"/>
		<path class="st2" d="M288.3,336c0,0.8,0,1.7,0,2.5c-0.4,18.7-4.5,36.5-11.6,52.7c-19.4,43.9-61,76.4-110.4,82.5l0,0
			c14.1-2.2,24.8-14.3,24.9-28.9c0.1-16.2-13-29.5-29.3-29.5c-1,0-2,0-2.9,0.1c32.9-4.1,59.7-28,67.9-59.5l-121.7-88.1l-13.8-10
			l-0.2-0.1l-35.6-25.8l-45-32.6l-0.1-7.7c0.4-18.6,4.4-36.3,11.4-52.4c19.2-44,60.7-76.6,110-82.9l0,0c-14,2.2-24.8,14.4-24.8,29
			c0,16.2,13.2,29.4,29.4,29.4c1,0,2,0,2.9-0.1c-32.8,4.2-59.4,28.1-67.6,59.5c0,0.1,0,0.2-0.1,0.3l52,37.3l0.1,0.1l164.2,118.9
			C288.3,332.4,288.3,334.2,288.3,336z"/>
	</g>
</g>
<g>
	<path class="st2" d="M572.1,414h-20.3V278.8H383.2V414h-20.1V139.1h20.1v122h168.6v-122h20.3V414z"/>
	<path class="st2" d="M896.5,276.2c0,43.6-11.4,78.1-34.3,103.5c-22.9,25.4-54.5,38.1-94.8,38.1c-40.1,0-71.7-12.7-94.6-38.1
		c-22.9-25.4-34.3-60-34.3-103.9c0-43.7,11.5-78.2,34.6-103.3c23.1-25.1,54.6-37.7,94.7-37.7c40.3,0,71.8,12.6,94.6,37.9
		C885.1,197.9,896.5,232.4,896.5,276.2z M660.4,276.2c0,39.4,9.2,69.8,27.6,91.3c18.4,21.5,44.9,32.2,79.4,32.2
		c34.7,0,61.3-10.7,79.7-32c18.4-21.3,27.5-51.8,27.5-91.6c0-39.6-9.2-70-27.5-91.1c-18.4-21.1-44.8-31.7-79.3-31.7
		c-34.3,0-60.8,10.7-79.5,32C669.7,206.7,660.4,236.9,660.4,276.2z"/>
	<path class="st2" d="M1136.5,218.1c0,26.6-9.5,46.9-28.4,61.1c-19,14.2-45.8,21.2-80.5,21.2h-44.6V414h-20.1V139.1h70.7
		C1102.2,139.1,1136.5,165.4,1136.5,218.1z M982.9,283.9h39.7c32.5,0,56-5.1,70.5-15.3c14.5-10.2,21.7-26.8,21.7-49.7
		c0-21.2-6.8-36.9-20.5-47.1c-13.7-10.2-34.9-15.3-63.6-15.3h-47.8V283.9z"/>
	<path class="st2" d="M1373,218.1c0,26.6-9.5,46.9-28.4,61.1c-19,14.2-45.8,21.2-80.5,21.2h-44.6V414h-20.1V139.1h70.7
		C1338.6,139.1,1373,165.4,1373,218.1z M1219.4,283.9h39.7c32.5,0,56-5.1,70.5-15.3c14.5-10.2,21.7-26.8,21.7-49.7
		c0-21.2-6.8-36.9-20.5-47.1c-13.7-10.2-34.9-15.3-63.6-15.3h-47.8V283.9z"/>
	<path class="st2" d="M1593.5,414h-157.7V139.1h157.7v17.7h-137.6v104h129.9v17.7h-129.9v117.9h137.6V414z"/>
	<path class="st2" d="M1679,294.2V414h-20.1V139.1h68.7c35.8,0,62.2,6.3,79.4,18.9c17.1,12.6,25.7,31.6,25.7,56.9
		c0,18.4-5.1,34-15.3,46.6c-10.2,12.7-25.7,21.7-46.5,27.3l78.4,125.2H1825l-74.4-119.8H1679z M1679,277.7h55.1
		c24.3,0,43.2-5.2,56.7-15.5c13.4-10.3,20.1-25.6,20.1-45.8c0-20.9-6.6-36.2-19.7-45.7c-13.2-9.5-34.6-14.3-64.4-14.3H1679V277.7z"
		/>
</g>
<g>
	<path class="st2" d="M1820.9,106.3h-12.1V61.6h-15.5V52h43v9.6h-15.5V106.3z"/>
	<path class="st2" d="M1869.2,106.3l-13.7-42.5h-0.4c0.5,8.7,0.7,14.4,0.7,17.3v25.2h-10.8V52h16.4l13.5,41.5h0.2l14.3-41.5h16.4
		v54.2h-11.3V80.6c0-1.2,0-2.6,0.1-4.2c0-1.6,0.2-5.8,0.5-12.6h-0.4l-14.7,42.5H1869.2z"/>
</g>
</svg>
