<svg id="b982bec5-b5e3-4679-8fe1-e58d73638aca" data-name="Layer 1" xmlns="http://www.w3.org/2000/svg" width="1153.08838" height="830.28275" viewBox="0 0 1153.08838 830.28275"><title>social_sharing</title><path d="M118.2196,383.74864c0,16.22-8.98,28.33-22.2,28.33-4.45,0-8.62-2.42-10.05-5.15,0,0-2.39,9.52-2.9,11.37a34.17266,34.17266,0,0,1-4.06,8.73c-.79-.4-2.88-1.28-4.91-2.11a35.637,35.637,0,0,1,.73-9.04c.78-3.36,5.28-22.54,5.28-22.54a15.80978,15.80978,0,0,1-1.32-6.53c0-6.12006,3.53-10.7,7.93-10.7,3.75,0,5.55,2.82,5.55,6.2,0,3.78-2.41,9.43-3.64,14.67a6.38728,6.38728,0,0,0,6.51,7.95c7.78,0,13.03-10.05,13.03-21.97,0-9.07-6.07-15.84-17.11-15.84-12.47,0-20.26,9.36-20.26,19.8a11.94851,11.94851,0,0,0,2.72,8.1,2.04935,2.04935,0,0,1,.59,2.31c-.2.76-.64,2.58-.85,3.32a1.414,1.414,0,0,1-2.05,1.04c-5.75-2.37-8.43-8.68-8.43-15.8,0-11.74,9.86-25.82,29.4-25.82C107.87958,360.06859,118.2196,371.48863,118.2196,383.74864Z" transform="translate(-23.45581 -34.85863)" fill="#007cc3"/><path d="M1114.5296,140.50859h-27.08a18.85316,18.85316,0,0,0-18.95,18.63v26.61005a18.8447,18.8447,0,0,0,18.95,18.62h27.08a18.84465,18.84465,0,0,0,18.94995-18.62v-26.61A18.85311,18.85311,0,0,0,1114.5296,140.50859Zm-13.54,42.58a10.64657,10.64657,0,1,1,10.83-10.65A10.75591,10.75591,0,0,1,1100.98956,183.08861Zm17.6-23.95a3.99059,3.99059,0,1,1,4.06-3.99A4.01643,4.01643,0,0,1,1118.5896,159.13859Z" transform="translate(-23.45581 -34.85863)" fill="#007cc3"/><path d="M633.35474,810.85863H328.78442a36.05646,36.05646,0,0,1-19.37841-5.58008,32.54235,32.54235,0,0,1-15.33643-27.31348V67.77464c0-18.1499,15.57324-32.916,34.71484-32.916H400.363v6.53271c0,13.94189,12.00195,25.28467,26.75439,25.28467H528.02417A27.48739,27.48739,0,0,0,543.908,61.72972a25.17836,25.17836,0,0,0,10.8706-20.33838V34.85863h78.57618c19.1416,0,34.71484,14.76611,34.71484,32.916V777.96507A32.15329,32.15329,0,0,1,655.846,803.011,35.77463,35.77463,0,0,1,633.35474,810.85863Zm-304.57032-774c-18.03906,0-32.71484,13.86914-32.71484,30.916V777.96507a30.5492,30.5492,0,0,0,14.4126,25.62793,34.052,34.052,0,0,0,18.30224,5.26563H633.35474a33.7674,33.7674,0,0,0,21.23339-7.40235,30.165,30.165,0,0,0,11.48145-23.49121V67.77464c0-17.04687-14.67578-30.916-32.71484-30.916H556.77856v4.53271a27.17792,27.17792,0,0,1-11.73144,21.98193A29.46553,29.46553,0,0,1,528.02417,68.676H427.11743c-15.85547,0-28.75439-12.23975-28.75439-27.28467V36.85863Z" transform="translate(-23.45581 -34.85863)" fill="#3f3d56"/><path d="M643.35283,95.229V743.429a29.13909,29.13909,0,0,1-29.13,29.11005h-263.15a29.07906,29.07906,0,0,1-29.13-29.11V95.229a29.12748,29.12748,0,0,1,29.13-29.13h39.38v5.05a23.987,23.987,0,0,0,23.98,23.99h133.84a23.78919,23.78919,0,0,0,14.22-4.68,22.28425,22.28425,0,0,0,2.36-1.98,23.917,23.917,0,0,0,7.4-17.33v-5.05h41.97A29.12108,29.12108,0,0,1,643.35283,95.229Z" transform="translate(-23.45581 -34.85863)" fill="#f2f2f2"/><path d="M571.04082,586.64541H395.164V397.28319H571.04082Zm-173.622-2.2549h171.367V399.53809h-171.367Z" transform="translate(-23.45581 -34.85863)" fill="#3f3d56"/><rect x="394.77403" y="168.39848" width="115.46684" height="2.2549" fill="#3f3d56"/><rect x="394.77403" y="199.09179" width="115.46684" height="2.2549" fill="#3f3d56"/><rect x="394.77403" y="229.78511" width="115.46684" height="2.2549" fill="#3f3d56"/><path d="M383.44826,811.12552l-1.07325-.40234c-.23584-.08887-23.70849-9.082-34.7041-29.47364-10.99609-20.39257-5.61181-44.94531-5.55615-45.19043l.25342-1.11816,1.07275.40234c.23584.08887,23.708,9.082,34.7041,29.47364,10.9961,20.39257,5.61182,44.94531,5.55616,45.19043Zm-34.01661-30.8252c9.29639,17.24122,27.84522,26.07911,32.54493,28.09668.89355-5.03711,3.6958-25.40625-5.59229-42.63086-9.28711-17.22265-27.84326-26.07421-32.54492-28.09667C342.94533,742.7095,340.14406,763.07669,349.43165,780.30032Z" transform="translate(-23.45581 -34.85863)" fill="#3f3d56"/><path d="M356.0741,774.0965c19.76057,11.88861,27.371,35.50266,27.371,35.50266s-24.42779,4.33881-44.18836-7.5498-27.371-35.50266-27.371-35.50266S336.31353,762.20788,356.0741,774.0965Z" transform="translate(-23.45581 -34.85863)" fill="#007cc3"/><polygon points="554.114 758.5 524.114 756.5 534.114 801.5 568.114 787.5 554.114 758.5" fill="#ffb9b9"/><polygon points="829.114 674.5 759.114 606.5 719.114 637.5 640.114 732.5 649.114 746.5 745.114 681.5 810.114 766.5 872.114 735.5 829.114 674.5" fill="#2f2e41"/><polygon points="829.114 674.5 759.114 606.5 719.114 637.5 640.114 732.5 649.114 746.5 745.114 681.5 810.114 766.5 872.114 735.5 829.114 674.5" opacity="0.1"/><path d="M858.56958,754.35863l-9,7-73-25-17-7-34,7s0-28,32-27l33,8,39,3Z" transform="translate(-23.45581 -34.85863)" fill="#ffb9b9"/><polygon points="900.114 793.5 878.114 807.5 852.114 807.5 731.114 762.5 554.114 794.5 549.114 756.5 711.114 685.5 853.114 732.5 900.114 793.5" fill="#2f2e41"/><path d="M781.56958,650.35863l-15,3-3.26873-3.81352a20.20619,20.20619,0,0,1-2.73128-22.18647h0l42-55s12-27,31-16-16,29-16,29l-21,33,2,17Z" transform="translate(-23.45581 -34.85863)" fill="#ffb9b9"/><circle cx="853.11377" cy="511.5" r="39" fill="#ffb9b9"/><path d="M859.06958,574.85863l18,43,43-18s-14-34-14-35S859.06958,574.85863,859.06958,574.85863Z" transform="translate(-23.45581 -34.85863)" fill="#ffb9b9"/><path d="M977.47955,702.06859a224.07967,224.07967,0,0,1-10.99,69.31l-2.92,8.98-14,64-15,4-11-14-22-16-16-26-13.72-22.86-4.28-7.14-15-75-57-32-19-3,4-11,17-23,17-2,5-4,4,2,16-9,5,2,29.24,2.72,17.76-3.72,25.54-13.71,10.46,1.71,36,30A223.883,223.883,0,0,1,977.47955,702.06859Z" transform="translate(-23.45581 -34.85863)" fill="#575a89"/><path d="M556.77841,808.84314s8.95672-15.1802,5.1736-16.95245-19.84944-8.83742-19.84944-8.83742l-23.561-7.80812s-33.99706-50.52658-34.7433-6.58794,24.754,54.50058,24.754,54.50058,22.74316,48.94521,35.62616,41.14036,25.77439-34.29908,25.77439-34.29908S546.72082,817.51025,556.77841,808.84314Z" transform="translate(-23.45581 -34.85863)" fill="#2f2e41"/><polygon points="943.114 658.5 905.114 683.5 848.394 734.64 844.114 727.5 832.114 667.5 835.114 667.5 866.114 610.5 943.114 658.5" opacity="0.1"/><polygon points="866.114 604.5 835.114 661.5 824.114 661.5 817.114 681.5 801.114 685.5 844.114 732.5 905.114 677.5 943.114 652.5 866.114 604.5" fill="#575a89"/><path d="M846.23553,517.36044,842.01,518.98622a5.89887,5.89887,0,0,1-1.508-8.292l-7.80871-.36541a58.965,58.965,0,0,1,88.02685-7.09517c.35552-1.22442,4.23105,1.15782,5.8133,3.57335.53165-1.99246,4.16545,7.63918,5.4507,14.44745.595-2.26687,2.88291,1.39269.87853,4.9042,1.27-.18555,1.84363,3.0637.86049,4.87388,1.38932-.65272,1.15517,3.22594-.35123,5.818,1.98254-.17615-15.63561,27.16738-22.76891,43.14727-2.07127-9.51695-4.40015-19.53847-11.079-26.62758-1.13524-1.205-2.37842-2.3025-3.61958-3.39808l-6.713-5.92559c-7.80593-6.89033-14.90676-15.39442-25.3056-17.96964-7.14637-1.76976-11.665-2.16933-7.77042-10.2221-3.51866,1.46835-6.80449,3.65195-10.35469,5.01575C845.80842,519.74536,846.30459,518.48624,846.23553,517.36044Z" transform="translate(-23.45581 -34.85863)" fill="#2f2e41"/><circle cx="872.61377" cy="516" r="7" fill="#ffb9b9"/><path d="M510.90245,471.42564c.03849.769.05762,1.55741.05762,2.34568,0,23.99576-18.266,51.664-51.664,51.664a50.67957,50.67957,0,0,1-27.76437-8.21013,35.792,35.792,0,0,0,4.32616.26921,36.38447,36.38447,0,0,0,22.53457-7.76783,18.19006,18.19006,0,0,1-16.95858-12.61317,18.2801,18.2801,0,0,0,3.42254.32684,17.82892,17.82892,0,0,0,4.76836-.63454,18.15677,18.15677,0,0,1-14.55516-17.80447v-.2116a17.80528,17.80528,0,0,0,8.24851,2.26882,18.20367,18.20367,0,0,1-5.65286-24.24572,51.42737,51.42737,0,0,0,37.39732,18.97744,18.457,18.457,0,0,1-.46144-4.15307,18.13349,18.13349,0,0,1,31.37913-12.4017,36.26328,36.26328,0,0,0,11.53644-4.403,18.32528,18.32528,0,0,1-7.97942,10.05589,36.87982,36.87982,0,0,0,10.40209-2.86486A36.86223,36.86223,0,0,1,510.90245,471.42564Z" transform="translate(-23.45581 -34.85863)" fill="#007cc3"/><path d="M483.22046,568.14183a72.1416,72.1416,0,1,1,72.14111-72.1416A72.22326,72.22326,0,0,1,483.22046,568.14183Zm0-142.2832a70.1416,70.1416,0,1,0,70.14111,70.1416A70.22128,70.22128,0,0,0,483.22046,425.85863ZM466.77905,532.97386a51.74177,51.74177,0,0,1-28.3125-8.36914l-3.58691-2.335,4.25.5039a35.84261,35.84261,0,0,0,4.21045.25586A35.13631,35.13631,0,0,0,463.14575,517.01a19.141,19.141,0,0,1-15.17529-13.06054l-.51856-1.624,1.67041.33985a16.435,16.435,0,0,0,3.63282.31152A19.22462,19.22462,0,0,1,441.553,485.54515v-1.93262l1.48926.83594a16.76083,16.76083,0,0,0,4.416,1.709,19.17109,19.17109,0,0,1-3.16553-23.31738l.72706-1.25293.91357,1.124a50.57909,50.57909,0,0,0,35.38916,18.53223,19.50193,19.50193,0,0,1-.23584-3.06152,19.13352,19.13352,0,0,1,32.72266-13.49219,35.02072,35.02072,0,0,0,10.67382-4.1748l2.26172-1.3418-.79883,2.50586a19.04861,19.04861,0,0,1-5.0332,8.02148,35.69964,35.69964,0,0,0,6.11133-2.06347l3.14355-1.39063L528.261,469.1057a37.767,37.767,0,0,1-8.85987,9.34082c.023.61132.03418,1.23242.03418,1.85254C519.4353,506.19163,499.7395,532.97386,466.77905,532.97386Zm-23.68457-7.94531a49.82715,49.82715,0,0,0,23.68457,5.94531c31.7085,0,50.65625-25.76563,50.65625-50.6748,0-.77051-.01806-1.541-.05517-2.293l-.02637-.541.43848-.31738a35.85215,35.85215,0,0,0,6.79345-6.42188,37.95313,37.95313,0,0,1-7.45263,1.68457l-4.67285.57325,4.03662-2.42286a17.23133,17.23133,0,0,0,6.50976-6.96679,36.86028,36.86028,0,0,1-9.34521,3.166l-.543.10547-.37793-.40332a17.13409,17.13409,0,0,0-29.65381,11.71973,16.8298,16.8298,0,0,0,.44092,3.9082l.31054,1.29785-1.333-.0664a52.5606,52.5606,0,0,1-37.15674-18.19336,17.175,17.175,0,0,0,6.00488,21.62793l2.86524,1.917-3.44629-.08594a18.83976,18.83976,0,0,1-7.16016-1.61816,17.19859,17.19859,0,0,0,13.6958,15.3955l4.15479.835-4.08936,1.11035a19.18189,19.18189,0,0,1-6.92041.57715,17.15381,17.15381,0,0,0,15.4458,10.36718l2.80518.05371-2.20655,1.73243a37.13564,37.13564,0,0,1-23.15722,7.98925C443.25854,525.02952,443.17651,525.02952,443.09448,525.02855Z" transform="translate(-23.45581 -34.85863)" fill="#3f3d56"/><path d="M1111.98853,190.08372a11.6443,11.6443,0,1,1,11.83007-11.64257A11.75042,11.75042,0,0,1,1111.98853,190.08372Zm0-21.28564a9.6446,9.6446,0,1,0,9.83007,9.64307A9.74909,9.74909,0,0,0,1111.98853,168.79808Z" transform="translate(-23.45581 -34.85863)" fill="#3f3d56"/><path d="M1125.52563,206.04808h-27.07421a14.61668,14.61668,0,0,1-10.25879-4.1919,14.0324,14.0324,0,0,1-4.27832-10.11181V165.13743a14.14074,14.14074,0,0,1,4.27343-10.10644,14.49287,14.49287,0,0,1,10.26368-4.19727h27.07421a14.61175,14.61175,0,0,1,10.25879,4.19287,14.02777,14.02777,0,0,1,4.27832,10.11084v26.60694a14.14267,14.14267,0,0,1-4.27343,10.10693A14.49407,14.49407,0,0,1,1125.52563,206.04808Zm-27.07421-53.21436a12.50463,12.50463,0,0,0-8.85743,3.61914,12.156,12.156,0,0,0-3.67968,8.68457v26.60694a12.05029,12.05029,0,0,0,3.6748,8.68066,12.6284,12.6284,0,0,0,8.86231,3.62305h27.07421a12.50962,12.50962,0,0,0,8.85743-3.61865,12.15794,12.15794,0,0,0,3.67968-8.68506V165.13743a12.04252,12.04252,0,0,0-3.6748-8.67968,12.62554,12.62554,0,0,0-8.86231-3.624Zm13.53711,42.57178a16.96664,16.96664,0,1,1,17.24511-16.96435A17.12608,17.12608,0,0,1,1111.98853,195.4055Zm0-31.92871a14.96694,14.96694,0,1,0,15.24511,14.96436A15.12371,15.12371,0,0,0,1111.98853,163.47679Zm17.59863,2.66064a4.99144,4.99144,0,1,1,5.06055-4.99121A5.03251,5.03251,0,0,1,1129.58716,166.13743Zm0-7.98193a2.99176,2.99176,0,1,0,3.06055,2.99072A3.03006,3.03006,0,0,0,1129.58716,158.1555Z" transform="translate(-23.45581 -34.85863)" fill="#3f3d56"/><path d="M1111.29321,243.14134c-35.97851,0-65.25-28.77344-65.25-64.14111s29.27149-64.1416,65.25-64.1416c35.9795,0,65.251,28.77392,65.251,64.1416S1147.27271,243.14134,1111.29321,243.14134Zm0-126.28271c-34.876,0-63.25,27.87646-63.25,62.1416,0,34.26465,28.374,62.14111,63.25,62.14111,34.877,0,63.251-27.87646,63.251-62.14111C1174.54419,144.73509,1146.17017,116.85863,1111.29321,116.85863Zm14.23242,94.51074h-27.07421a19.81281,19.81281,0,0,1-19.95215-19.625V165.13743a19.81281,19.81281,0,0,1,19.95215-19.625h27.07421a19.81281,19.81281,0,0,1,19.95215,19.625v26.60694A19.81281,19.81281,0,0,1,1125.52563,211.36937Zm-27.07421-63.85694a17.81137,17.81137,0,0,0-17.95215,17.625v26.60694a17.81137,17.81137,0,0,0,17.95215,17.625h27.07421a17.81137,17.81137,0,0,0,17.95215-17.625V165.13743a17.81137,17.81137,0,0,0-17.95215-17.625Z" transform="translate(-23.45581 -34.85863)" fill="#3f3d56"/><path d="M94.1814,462.00023c-38.998,0-70.72559-31.88233-70.72559-71.0708s31.72754-71.0708,70.72559-71.0708S164.907,351.741,164.907,390.92943,133.17944,462.00023,94.1814,462.00023Zm0-140.1416c-37.89551,0-68.72559,30.98486-68.72559,69.0708s30.83008,69.0708,68.72559,69.0708,68.72558-30.98487,68.72558-69.0708S132.0769,321.85863,94.1814,321.85863Zm.41748,110.99121a42.18941,42.18941,0,0,1-11.94336-1.73877l-1.26465-.373.70019-1.1167a32.89138,32.89138,0,0,0,4.01368-8.58838c.50683-1.81933,2.873-11.25488,2.89648-11.3501l.63818-2.54394,1.21778,2.32275c1.189,2.26758,4.93994,4.61328,9.15918,4.61328,12.48291,0,21.20117-11.2373,21.20117-27.32763,0-11.147-9.36572-22.67725-25.03906-22.67725-19.58936,0-28.40039,14.5127-28.40039,24.81787,0,7.41211,2.84619,12.83252,7.80908,14.87207a.61356.61356,0,0,0,.46338.04639.62549.62549,0,0,0,.24609-.4082c.10986-.40186.28418-1.10205.4541-1.78223.15039-.60254.29688-1.18994.3916-1.54443.1792-.67188.18995-.71192-.39013-1.4087a12.97188,12.97188,0,0,1-2.94922-8.74121c0-10.084,7.44922-20.80175,21.25488-20.80175,11.0044,0,18.11524,6.60791,18.11524,16.834,0,13.1001-6.03516,22.979-14.03809,22.979a7.76208,7.76208,0,0,1-6.15625-2.853,7.29737,7.29737,0,0,1-1.31836-6.32862c.45606-1.94336,1.06738-3.92822,1.6582-5.84765,1.00342-3.26123,1.95166-6.34131,1.95166-8.59571,0-1.22021-.32763-5.20068-4.54589-5.20068-3.8877,0-6.93311,4.26221-6.93311,9.70361a15.06177,15.06177,0,0,0,1.21728,6.08692l.15967.32226-.08105.35205s-4.499,19.17481-5.28858,22.53321a35.20405,35.20405,0,0,0-.69043,9.21875l.061,1.6001-1.46484-.64747A42.37441,42.37441,0,0,1,94.61743,348.1555a42.21555,42.21555,0,0,1,42.11572,42.35742A42.28407,42.28407,0,0,1,94.59888,432.84984Zm-10.11866-3.30713a40.33534,40.33534,0,1,0-7.40869-2.7666,34.81472,34.81472,0,0,1,.77979-8.12793c.72851-3.09815,4.6123-19.65088,5.21094-22.20264a17.4243,17.4243,0,0,1-1.271-6.63477c0-6.563,3.92383-11.70361,8.93311-11.70361,3.97656,0,6.54589,2.82666,6.54589,7.20068,0,2.55518-.99121,5.77491-2.04052,9.18409-.58106,1.8872-1.18164,3.83886-1.62207,5.71582a5.33488,5.33488,0,0,0,.93847,4.62939,5.77383,5.77383,0,0,0,4.58887,2.0957c6.86279,0,12.03809-9.019,12.03809-20.979,0-9.1499-6.17481-14.834-16.11524-14.834-12.50635,0-19.25488,9.687-19.25488,18.80175a11.06109,11.06109,0,0,0,2.48193,7.45655,2.97568,2.97568,0,0,1,.79,3.209c-.09277.34815-.23633.92334-.38379,1.5127-.17383.69775-.353,1.415-.46289,1.81591a2.40281,2.40281,0,0,1-3.40332,1.69288c-5.66406-2.32715-9.04687-8.57813-9.04687-16.72071,0-13.18261,11.37109-26.81787,30.40039-26.81787,16.92529,0,27.03906,12.54688,27.03906,24.67725,0,16.99365-9.75732,29.32763-23.20117,29.32763a13.90283,13.90283,0,0,1-9.58887-3.86132c-.73291,2.91113-2.02588,8.02734-2.394,9.34912A32.94765,32.94765,0,0,1,84.48022,429.54271Z" transform="translate(-23.45581 -34.85863)" fill="#3f3d56"/><path d="M1025.2688,388.63255a92.1722,92.1722,0,0,1-35.43652-6.937c-31.35352-13.06982-52.11719-41.21387-72.19629-68.43164-10.84082-14.69385-22.04981-29.8877-34.8545-42.68067-20.51757-20.5-44.32128-33.74365-68.83691-38.2998-27.55176-5.12207-55.62793,1.50195-75.10156,17.7124a70.484,70.484,0,0,0-6.94434,6.63916q4.2627.51783,8.50293,1.10547c29.7334,4.12061,67.02539,15.54932,75.82324,46.59668,3.37793,11.91748.97364,25.40772-6.59375,37.01123-8.10937,12.43311-21.01562,20.98242-34.52246,22.86865a47.9961,47.9961,0,0,1-6.64258.4585c-24.32617.00146-48.293-18.08057-55.38964-42.936-6.00977-21.04931.05371-45.57666,14.84082-63.56a524.84389,524.84389,0,0,0-53.83887-3.34571l.02148-2a526.67386,526.67386,0,0,1,55.375,3.51221,72.51129,72.51129,0,0,1,8.08887-7.88721c19.92578-16.58691,48.61621-23.36816,76.74609-18.14209,24.915,4.63037,49.08106,18.06494,69.88575,38.85157,12.91113,12.89941,24.165,28.15478,35.0498,42.9082,20.835,28.24121,40.51367,54.9165,71.35645,67.77344,31.001,12.92334,69.0664,7.04394,94.72265-14.627,25.65918-21.67041,37.82227-58.21728,30.26758-90.9414l1.94922-.4502c7.71875,33.436-4.71,70.77783-30.92578,92.91992C1069.67212,381.06175,1047.43091,388.63206,1025.2688,388.63255ZM730.29126,258.45628c-14.98828,17.56641-21.23633,41.9126-15.291,62.73438,7.47852,26.1958,34.32227,44.60742,59.83106,41.0459,12.94336-1.80811,25.32617-10.02491,33.124-21.981,7.252-11.11914,9.56543-24.01221,6.34571-35.37354-8.50391-30.0083-45.03028-41.12158-74.17481-45.16015Q735.22485,259.04222,730.29126,258.45628Z" transform="translate(-23.45581 -34.85863)" fill="#3f3d56"/><path d="M250.22241,375.86253a121.197,121.197,0,0,1-26.69385-2.8833,99.228,99.228,0,0,1-55.582-33.74316c-4.69091-5.61768-8.96338-11.92432-13.09472-18.02393-6.272-9.2583-12.75733-18.83252-20.72412-25.95654-7.92725-7.08838-18.36426-10.8169-27.23047-9.74121a22.17081,22.17081,0,0,0-16.00147,9.83691l-1.65234-1.12695A24.116,24.116,0,0,1,106.655,283.529c9.561-1.16309,20.33545,2.66064,28.80566,10.23535,8.15088,7.28906,14.707,16.96679,21.04688,26.32617,4.104,6.05859,8.34765,12.32324,12.97412,17.86328,26.98047,32.30762,69.83545,43.59717,117.57959,30.97461l.51074,1.93359A146.55469,146.55469,0,0,1,250.22241,375.86253Z" transform="translate(-23.45581 -34.85863)" fill="#3f3d56"/></svg>