<svg id="Layer_1" xmlns="http://www.w3.org/2000/svg" viewBox="0 0 350 238.8">
    <style>
        .st0{fill:#ebebeb}.st1{fill:#dbdbdb}.st2{fill:none;stroke:#c7c7c7;stroke-miterlimit:10}.st3{fill:#c7c7c7}.st4{fill:#2563eb}.st6{fill:#fff}.st7{fill:#263238}.st9{fill:#a6a6a6}.st10{fill:#37474f}.st11{fill:#455a64}.st13{opacity:.1;enable-background:new}.st14{fill:#d3766a}
    </style>
    <g id="Background_Complete">
        <path class="st0" d="M17.5 53.3c.6-.4 1.4-.4 2.1 0 .2.1.4.2.5.3.2.1.4.2.5.3.7.3 1.1.9 1.2 1.7l.1 2.5 8.3-.3-.2-2.5c0-.7.4-1.4 1.1-1.8.4-.2.7-.4 1-.6.6-.4 1.4-.5 2.1-.2l2.2 1.2 3.9-7.3-2.3-1.2c-.6-.4-1-1.1-1-1.8 0-.4 0-.8-.1-1.2-.1-.7.3-1.5.9-1.8l2.2-1.4-4.4-7.1-2.2 1.4c-.6.4-1.4.4-2.1 0l-.6-.3-.6-.3c-.7-.3-1.1-.9-1.1-1.7l-.1-2.5-8.3.3.1 2.5c0 .7-.4 1.4-1 1.8-.4.2-.7.4-1.1.7-.6.4-1.4.5-2 .1l-2.2-1.2-3.9 7.4 2.2 1.2c.7.4 1.1 1.1 1.1 1.8 0 .4 0 .8.1 1.2.1.7-.3 1.5-.9 1.8l-2 1.3 4.4 7.1 2.1-1.4zM19.2 41c1.6-4.2 6.7-5.7 10.3-3.1 2.5 1.8 3.5 5.1 2.4 7.9-1.6 4.2-6.6 5.7-10.3 3.1-2.5-1.7-3.5-5-2.4-7.9zm34.4-13.8c.3-.5.7-.7 1.3-.7h.8c.5-.1 1 .2 1.3.7l.9 1.5 5-2.9-.9-1.5c-.3-.5-.2-1 .1-1.4.2-.3.3-.5.4-.7.2-.5.7-.7 1.2-.7h1.8v-5.8h-1.8c-.5 0-1-.3-1.2-.7-.1-.3-.3-.5-.4-.7-.3-.4-.3-1-.1-1.4l.9-1.5-5-2.9-.9 1.3c-.3.5-.7.7-1.3.7h-.8c-.5.1-1-.2-1.3-.7l-.9-1.5-5 2.9.9 1.5c.3.5.2 1-.1 1.4-.2.3-.3.5-.4.7-.2.5-.7.7-1.2.7h-1.8v5.8h1.8c.5 0 1 .3 1.2.7.1.3.3.5.4.7.3.4.3 1 .1 1.4l-.9 1.5 5 2.9.9-1.3zm-3-8.8c0-2.6 2.1-4.7 4.7-4.7s4.7 2.1 4.7 4.7-2.1 4.7-4.7 4.7c-2.6.1-4.7-2.1-4.7-4.7zm288.7 108.4l-2.9-5-1.5.9c-.5.3-1 .2-1.4-.1-.3-.2-.5-.3-.7-.4-.5-.2-.7-.7-.7-1.2v-1.8h-5.8v1.8c0 .5-.3 1-.7 1.2-.3.1-.5.3-.7.4-.4.3-1 .3-1.4.1l-1.5-.9-2.9 5 1.5.9c.5.3.7.7.7 1.3v.8c.1.5-.2 1-.7 1.3l-1.5.9 2.9 5 1.5-.9c.5-.3 1-.2 1.4.1.3.2.5.3.7.4.5.2.7.7.7 1.2v1.8h5.8v-1.8c0-.5.3-1 .7-1.2.3-.1.5-.3.7-.4.4-.3 1-.3 1.4-.1l1.5.9 2.9-5-1.5-.9c-.5-.3-.7-.7-.7-1.3v-.8c-.1-.5.2-1 .7-1.3l1.5-.9zm-5.5 2.6c0 2.6-2.1 4.7-4.7 4.7s-4.7-2.1-4.7-4.7 2.1-4.7 4.7-4.7c2.5-.1 4.7 2 4.7 4.7zm-13.2-68v12.4l-8.1 9.4c-2.7-2.3-4.4-5.6-4.4-9.4.1-6.8 5.6-12.4 12.5-12.4z"/>
        <path class="st0" d="M335.5 75.1c0 2.6-.8 5.1-2.2 7.1-2.2 3.2-5.9 5.3-10.2 5.3-3.1 0-5.9-1.1-8.1-2.9l8.1-9.4V62.7c4.6 0 8.6 2.5 10.7 6.2 1.1 1.8 1.7 3.9 1.7 6.2z"/>
        <path class="st1" d="M335.5 75.1c0 2.6-.8 5.1-2.2 7.1-2.2 3.2-5.9 5.3-10.2 5.3-3.1 0-5.9-1.1-8.1-2.9l8.1-9.4V62.7c4.6 0 8.6 2.5 10.7 6.2 1.1 1.8 1.7 3.9 1.7 6.2z"/>
        <path class="st2" d="M315.1 67.7V51.8m1.1-1.2c0 .6-.5 1.1-1.1 1.1-.6 0-1.1-.5-1.1-1.1 0-.6.5-1.1 1.1-1.1.6 0 1.1.6 1.1 1.1z"/>
        <path class="st3" d="M318.4 49.5h12.4v.6h-12.4zm0 1.1h7v.6h-7z"/>
        <path class="st0" d="M38.8 96c-.8 5.9-5.9 10.4-12.1 10.4-6.7 0-12.2-5.5-12.2-12.2C14.5 87.4 20 82 26.7 82v12.2L38.8 96z"/>
        <path class="st1" d="M41.5 91.7c0 .6-.1 1.2-.2 1.8l-12.1-1.8V79.5c4.5 0 8.5 2.5 10.6 6.2 1.1 1.7 1.7 3.8 1.7 6z"/>
        <path class="st2" d="M32.9 101h13m.9.9c-.5 0-.9-.4-.9-.9s.4-.9.9-.9.9.4.9.9-.3.9-.9.9z"/>
        <path class="st3" d="M50.2 100.3h10.1v.5H50.2zm0 .9h5.7v.5h-5.7z"/>
    </g>
    <ellipse class="st0" cx="62" cy="220.1" rx="52.2" ry="6.8" id="Shadow"/>
    <g id="Screen">
        <path class="st0" d="M42.4 26.7h265.2v167.8H42.4z"/>
        <path class="st4" d="M42.4 26.7h14.5v167.8H42.4z"/>
        <path opacity=".1" fill="#000102" d="M42.4 33.2h14.5v14.5H42.4z"/>
        <path class="st6" d="M49.2 55.2c-1 0-1.8-.8-1.8-1.8s.8-1.8 1.8-1.8 1.8.8 1.8 1.8c.1 1-.8 1.8-1.8 1.8zm0-2.9c-.6 0-1.1.5-1.1 1.1 0 .6.5 1.1 1.1 1.1.6 0 1.1-.5 1.1-1.1.1-.6-.5-1.1-1.1-1.1z"/>
        <path transform="rotate(-45.001 50.966 55.154)" class="st6" d="M50.6 54.2h.7v2h-.7z"/>
        <path class="st6" d="M49.5 96.1c-.6 0-1.2-.5-1.2-1.2s.5-1.2 1.2-1.2c.6 0 1.2.5 1.2 1.2s-.6 1.2-1.2 1.2zm0-1.6c-.3 0-.5.2-.5.5s.2.5.5.5.5-.2.5-.5c-.1-.3-.3-.5-.5-.5z"/>
        <path class="st6" d="M49.5 97.1c-1.2 0-2.2-.9-2.2-2.2s.9-2.2 2.2-2.2c1.2 0 2.2.9 2.2 2.2-.1 1.3-1 2.2-2.2 2.2zm0-3.6c-.8 0-1.5.7-1.5 1.5s.7 1.5 1.5 1.5S51 95.8 51 95c-.1-.9-.7-1.5-1.5-1.5z"/>
        <path class="st6" d="M51 97.4l-1.4-2.2 2.4.9-.9.2zm-1.8 10.3c0 .2-.2.3-.3.4-.1 0-.2 0-.2.1-.1.1 0 .3.5.8s.7.5.8.5.1-.1.1-.2.2-.3.3-.3c.1 0 .8.3.9.5.1.2-.3.7-.8.7s-1.2-.3-1.8-.9c-.7-.7-.9-1.4-.8-1.7.1-.4.5-.7.6-.7.2 0 .7.7.7.8zm-1.6 13.4h4.2v2.8h-4.2z"/>
        <path class="st4" d="M47.6 121.1c.8.4 1.5.9 2.2 1.4h-.2c.7-.5 1.4-1 2.2-1.4-.6.6-1.3 1.2-2 1.7l-.1.1-.1-.1c-.7-.6-1.4-1.1-2-1.7z"/>
        <path class="st6" d="M47.8 66.8h.9v2.7h-.9zm2.9-1h.9v3.7h-.9zm-1.5 1.6h.9v2.1h-.9zm-.8 15.1s-.1.4-.6.7c0 0 .8.1 1.4-.5 0 0 2.5.2 2.6-1.4.1-1.4-1.7-1.6-2.2-1.6-.7 0-2 .4-2.1 1.5 0 1 .9 1.3.9 1.3zm1.3-43.8c-1.2 0-2.1.9-2.1 2.1 0 .5.2.9.4 1.3h3.3c.3-.4.4-.8.4-1.3 0-1.2-.9-2.1-2-2.1zm0 .3c.1 0 .2.1.2.2s-.1.2-.2.2-.2-.1-.2-.2c-.1-.1 0-.2.2-.2zm-1.6 2.1c-.1 0-.2-.1-.2-.2s.1-.2.2-.2.2.1.2.2-.1.2-.2.2zm.6-1.2c-.1.1-.2.1-.3 0-.1-.1-.1-.2 0-.3.1-.1.2-.1.3 0 .1 0 .1.2 0 .3zm1 1.8c-.2 0-.4-.2-.4-.4s.1-.3.2-.3l-.4-1 .5.8h.1c.2 0 .4.2.4.4 0 .3-.2.5-.4.5zm1.2-1.8c-.1.1-.2.1-.3 0-.1-.1-.1-.2 0-.3.1-.1.2-.1.3 0 .2 0 .2.2 0 .3zm.4 1.2c-.1 0-.2-.1-.2-.2s.1-.2.2-.2.2.1.2.2-.1.2-.2.2zm-2.6 96.4l2.1-2-1.7 2.3v1.1l.8-.9 1.3.5.6-4-4.3 2.4z"/>
        <circle class="st6" cx="49.7" cy="149.6" r=".9"/>
        <path class="st6" d="M51.1 152.7h-2.9v-1c0-.6.5-1.2 1.2-1.2h.5c.6 0 1.2.5 1.2 1.2v1z"/>
        <path class="st7" d="M42.4 26.7h265.2v6.5H42.4z"/>
        <path class="st3" d="M47.5 29.9c0 .9-.7 1.6-1.6 1.6-.9 0-1.6-.7-1.6-1.6 0-.9.7-1.6 1.6-1.6.9 0 1.6.7 1.6 1.6z"/>
        <path class="st6" d="M54.1 29.9c0 .9-.7 1.6-1.6 1.6-.9 0-1.6-.7-1.6-1.6 0-.9.7-1.6 1.6-1.6.9 0 1.6.7 1.6 1.6z"/>
        <path d="M60.6 29.9c0 .9-.7 1.6-1.6 1.6-.9 0-1.6-.7-1.6-1.6 0-.9.7-1.6 1.6-1.6.9 0 1.6.7 1.6 1.6z" fill="#ffc727"/>
        <path class="st6" d="M72.2 58.1h105.5v46.8H72.2z"/>
        <path class="st0" d="M85.1 97.8V95l-.1-2.8V69.6l.1-2.7v-2.7 5.4l.1 17.2-.1 5.4V95zm7.7 0l-.1-2.8V66.9l.1-2.7V95zm7.6 0v-5.6l-.1-5.4.1-17.2v-5.4 2.7l.1 2.7v17.2l-.1 5.4V95zm7.7 0V95l-.1-2.8V69.6l.1-2.7v-2.7 5.4l.1 17.2-.1 5.4V95zm7.7 0l-.1-2.8V66.9l.1-2.7V95zm7.7 0l-.1-2.8v-2.8l-.1-5.4.1-17.2v-2.7l.1-2.7V95zm7.6 0v-5.6l-.1-5.4.1-17.2v-5.4 5.4l.1 17.2-.1 5.4V95zm7.7 0l-.1-2.8V66.9l.1-2.7V95zm7.7 0l-.1-2.8V66.9l.1-2.7V95zm7.6 0v-5.6l-.1-5.4.1-17.2v-5.4 5.4l.1 17.2-.1 5.4V95zm7.7 0V95l-.1-2.8V69.6l.1-2.7v-2.7 5.4l.1 17.2-.1 5.4V95zm7.7 0l-.1-2.8V66.9l.1-2.7V95z"/>
        <path class="st9" d="M77.4 75.7l23.9-.1h47.9l24 .1h-24l-23.9.1-24-.1zm0 5.4l23.9-.1h47.9l24 .1h-71.9zm0-10.7l23.9-.1h47.9l24 .1h-71.9zm0-5.4h95.8l-24 .1h-47.9zm-.1 21.3l23.9-.1h47.9l24 .1h-71.9zm.1 5.5l23.9-.1h47.9l24 .1h-71.9z"/>
        <path class="st4" d="M77.4 96.5l7.6-4.6v-.1l7.8-5.6 7.6 3 7.7-2.9 7.7-5.4 7.7 4.9 7.6 2.8 7.7-1.8h-.1l7.7-2.9h.1l7.6.8 7.7-1.9 7.7-4.2-7.7 4.3-7.7 1.9-7.6-.8-7.7 3-7.7 1.9-7.6-2.9-7.7-4.9-7.7 5.4-7.7 2.9-7.7-3.1h.1L85 91.9z"/>
        <path class="st6" d="M85.7 91.8c0 .4-.3.6-.6.6s-.6-.3-.6-.6c0-.4.3-.6.6-.6.3-.1.6.2.6.6z"/>
        <path class="st4" d="M85.1 92.5c-.4 0-.8-.4-.8-.8s.4-.8.8-.8.8.4.8.8c0 .5-.4.8-.8.8zm0-1.3c-.3 0-.5.2-.5.5s.2.5.5.5.5-.2.5-.5c0-.2-.3-.5-.5-.5z"/>
        <circle class="st6" cx="92.8" cy="86.2" r=".6"/>
        <path class="st4" d="M92.8 87c-.4 0-.8-.4-.8-.8s.4-.8.8-.8.8.4.8.8c-.1.5-.4.8-.8.8zm0-1.2c-.3 0-.5.2-.5.5s.2.5.5.5.5-.2.5-.5c-.1-.3-.3-.5-.5-.5z"/>
        <path class="st6" d="M108.7 86.4c0 .4-.3.6-.6.6s-.6-.3-.6-.6.3-.6.6-.6.6.3.6.6z"/>
        <path class="st4" d="M108.1 87.2c-.4 0-.8-.4-.8-.8s.4-.8.8-.8.8.4.8.8-.3.8-.8.8zm0-1.3c-.3 0-.5.2-.5.5s.2.5.5.5.5-.2.5-.5-.2-.5-.5-.5z"/>
        <circle class="st6" cx="123.4" cy="86" r=".6"/>
        <path class="st4" d="M123.4 86.8c-.4 0-.8-.4-.8-.8s.4-.8.8-.8.8.4.8.8-.4.8-.8.8zm0-1.3c-.3 0-.5.2-.5.5s.2.5.5.5.5-.2.5-.5-.2-.5-.5-.5z"/>
        <path class="st6" d="M139.4 87c0 .4-.3.6-.6.6s-.6-.3-.6-.6.3-.6.6-.6.6.2.6.6z"/>
        <path class="st4" d="M138.8 87.8c-.4 0-.8-.4-.8-.8s.4-.8.8-.8.8.4.8.8-.4.8-.8.8zm0-1.4c-.3 0-.5.2-.5.5s.2.5.5.5.5-.2.5-.5c0-.2-.3-.5-.5-.5z"/>
        <path class="st6" d="M116.4 81c0 .4-.3.6-.6.6-.4 0-.6-.3-.6-.6s.3-.6.6-.6c.3-.1.6.2.6.6z"/>
        <path class="st4" d="M115.8 81.8c-.4 0-.8-.4-.8-.8s.4-.8.8-.8.8.4.8.8-.4.8-.8.8zm0-1.3c-.3 0-.5.2-.5.5s.2.5.5.5.5-.2.5-.5c-.1-.3-.3-.5-.5-.5z"/>
        <path class="st6" d="M131.8 88.8c0 .4-.3.6-.6.6-.4 0-.6-.3-.6-.6 0-.4.3-.6.6-.6s.6.2.6.6z"/>
        <path class="st4" d="M131.1 89.6c-.4 0-.8-.4-.8-.8s.4-.8.8-.8.8.4.8.8-.3.8-.8.8zm0-1.3c-.3 0-.5.2-.5.5s.2.5.5.5.5-.2.5-.5-.2-.5-.5-.5z"/>
        <path class="st6" d="M154.8 84.7c0 .4-.3.6-.6.6-.4 0-.6-.3-.6-.6 0-.4.3-.6.6-.6s.6.2.6.6z"/>
        <path class="st4" d="M154.1 85.5c-.4 0-.8-.4-.8-.8s.4-.8.8-.8.8.4.8.8-.3.8-.8.8zm0-1.3c-.3 0-.5.2-.5.5s.2.5.5.5.5-.2.5-.5-.2-.5-.5-.5z"/>
        <circle class="st6" cx="161.8" cy="82.8" r=".6"/>
        <path class="st4" d="M161.8 83.6c-.4 0-.8-.4-.8-.8s.4-.8.8-.8.8.4.8.8c0 .5-.4.8-.8.8zm0-1.3c-.3 0-.5.2-.5.5s.2.5.5.5.5-.2.5-.5-.3-.5-.5-.5z"/>
        <path class="st6" d="M147.1 83.9c0 .4-.3.6-.6.6-.4 0-.6-.3-.6-.6s.3-.6.6-.6.6.2.6.6z"/>
        <path class="st4" d="M146.5 84.7c-.4 0-.8-.4-.8-.8s.4-.8.8-.8.8.4.8.8-.4.8-.8.8zm0-1.3c-.3 0-.5.2-.5.5s.2.5.5.5.5-.2.5-.5c-.1-.3-.3-.5-.5-.5z"/>
        <path class="st6" d="M101.1 89.3c0 .4-.3.6-.6.6s-.6-.3-.6-.6c0-.4.3-.6.6-.6.3-.1.6.3.6.6z"/>
        <path class="st4" d="M100.4 90.1c-.4 0-.8-.4-.8-.8s.4-.8.8-.8.8.4.8.8c0 .5-.3.8-.8.8zm0-1.3c-.3 0-.5.2-.5.5s.2.5.5.5.5-.2.5-.5-.2-.5-.5-.5z"/>
        <path class="st10" d="M77.3 96.7L85 86.2l7.6-5.3 7.7-2.9h.2l7.7 2.6 7.7 4.7h-.1c2.6-1 5.1-2.1 7.7-3.1h.1l.1.1 7.7 3.8-.2.1 7.7-9 .1-.1h.1l7.7 2.9h-.1l7.7-.9 7.7.4 7.7-3-7.7 3-7.7-.3-7.7.9-7.7-2.8.1-.1-7.6 9.1-.1.1-.1-.1-7.7-3.8h.1c-2.5 1-5.1 2-7.7 3.1h-.1l-.1-.1-7.7-4.8-7.7-2.6h.1L92.8 81l-7.7 5.2-7.8 10.5z"/>
        <path class="st6" d="M85.7 86.2c0 .4-.3.6-.6.6s-.6-.3-.6-.6c0-.4.3-.6.6-.6s.6.3.6.6z"/>
        <path class="st10" d="M85.1 87c-.4 0-.8-.4-.8-.8s.4-.8.8-.8.8.4.8.8-.4.8-.8.8zm0-1.2c-.3 0-.5.2-.5.5s.2.5.5.5.5-.2.5-.5-.3-.5-.5-.5z"/>
        <circle class="st6" cx="92.8" cy="81" r=".6"/>
        <path class="st10" d="M92.8 81.8c-.4 0-.8-.4-.8-.8s.4-.8.8-.8.8.4.8.8c-.1.4-.4.8-.8.8zm0-1.3c-.3 0-.5.2-.5.5s.2.5.5.5.5-.2.5-.5c-.1-.3-.3-.5-.5-.5z"/>
        <path class="st6" d="M108.7 80.8c0 .4-.3.6-.6.6s-.6-.3-.6-.6c0-.4.3-.6.6-.6s.6.2.6.6z"/>
        <path class="st10" d="M108.1 81.5c-.4 0-.8-.4-.8-.8s.4-.8.8-.8.8.4.8.8c0 .5-.3.8-.8.8zm0-1.3c-.3 0-.5.2-.5.5s.2.5.5.5.5-.2.5-.5c0-.2-.2-.5-.5-.5z"/>
        <path class="st6" d="M124 82.5c0 .4-.3.6-.6.6-.4 0-.6-.3-.6-.6s.3-.6.6-.6c.4 0 .6.3.6.6z"/>
        <path class="st10" d="M123.4 83.3c-.4 0-.8-.4-.8-.8s.4-.8.8-.8.8.4.8.8c0 .5-.4.8-.8.8zm0-1.3c-.3 0-.5.2-.5.5s.2.5.5.5.5-.2.5-.5c0-.2-.2-.5-.5-.5z"/>
        <path class="st6" d="M139.4 77.2c0 .4-.3.6-.6.6s-.6-.3-.6-.6c0-.4.3-.6.6-.6s.6.3.6.6z"/>
        <path class="st10" d="M138.8 78c-.4 0-.8-.4-.8-.8s.4-.8.8-.8.8.4.8.8-.4.8-.8.8zm0-1.3c-.3 0-.5.2-.5.5s.2.5.5.5.5-.2.5-.5-.3-.5-.5-.5z"/>
        <path class="st6" d="M116.4 85.4c0 .4-.3.6-.6.6-.4 0-.6-.3-.6-.6s.3-.6.6-.6.6.2.6.6z"/>
        <path class="st10" d="M115.8 86.2c-.4 0-.8-.4-.8-.8s.4-.8.8-.8.8.4.8.8-.4.8-.8.8zm0-1.3c-.3 0-.5.2-.5.5s.2.5.5.5.5-.2.5-.5c-.1-.3-.3-.5-.5-.5z"/>
        <path class="st6" d="M131.8 86.1c0 .4-.3.6-.6.6-.4 0-.6-.3-.6-.6 0-.4.3-.6.6-.6s.6.3.6.6z"/>
        <path class="st10" d="M131.1 86.9c-.4 0-.8-.4-.8-.8s.4-.8.8-.8.8.4.8.8-.3.8-.8.8zm0-1.3c-.3 0-.5.2-.5.5s.2.5.5.5.5-.2.5-.5c0-.2-.2-.5-.5-.5z"/>
        <path class="st6" d="M154.8 79.1c0 .4-.3.6-.6.6-.4 0-.6-.3-.6-.6 0-.4.3-.6.6-.6s.6.3.6.6z"/>
        <path class="st10" d="M154.1 79.9c-.4 0-.8-.4-.8-.8s.4-.8.8-.8.8.4.8.8-.3.8-.8.8zm0-1.3c-.3 0-.5.2-.5.5s.2.5.5.5.5-.2.5-.5c0-.2-.2-.5-.5-.5z"/>
        <circle class="st6" cx="161.8" cy="79.4" r=".6"/>
        <path class="st10" d="M161.8 80.2c-.4 0-.8-.4-.8-.8s.4-.8.8-.8.8.4.8.8c0 .5-.4.8-.8.8zm0-1.2c-.3 0-.5.2-.5.5s.2.5.5.5.5-.2.5-.5-.3-.5-.5-.5z"/>
        <path class="st6" d="M147.1 80.1c0 .4-.3.6-.6.6-.4 0-.6-.3-.6-.6 0-.4.3-.6.6-.6s.6.3.6.6z"/>
        <path class="st10" d="M146.5 80.9c-.4 0-.8-.4-.8-.8s.4-.8.8-.8.8.4.8.8-.4.8-.8.8zm0-1.3c-.3 0-.5.2-.5.5s.2.5.5.5.5-.2.5-.5c-.1-.3-.3-.5-.5-.5z"/>
        <path class="st6" d="M101.1 78.1c0 .4-.3.6-.6.6s-.6-.3-.6-.6c0-.4.3-.6.6-.6s.6.2.6.6z"/>
        <path class="st10" d="M100.4 78.9c-.4 0-.8-.4-.8-.8s.4-.8.8-.8.8.4.8.8-.3.8-.8.8zm0-1.3c-.3 0-.5.2-.5.5s.2.5.5.5.5-.2.5-.5c0-.2-.2-.5-.5-.5z"/>
        <path class="st9" d="M77.4 62.8l.1 22.8.1 11-.1-.1 24-.1h24l24 .1c8 0 16 .1 24 .1-8 .1-16 .1-24 .1l-24 .1h-24l-24-.1h-.1v-.1l.1-11-.1-22.8z"/>
        <path class="st9" d="M76.7 75.7c.2-.1.5-.2.7-.2.2 0 .5.1.7.2-.2.1-.5.2-.7.2-.2 0-.4-.1-.7-.2zm0 5.4c.2-.1.5-.2.7-.2.2 0 .5.1.7.2-.2.1-.5.2-.7.2-.2-.1-.4-.1-.7-.2zm0-10.7c.2-.1.5-.2.7-.2.2 0 .5.1.7.2-.2.1-.5.2-.7.2-.2-.1-.4-.1-.7-.2zm0-5.4c.2-.1.5-.2.7-.2.2 0 .5.1.7.2-.2.1-.5.2-.7.2s-.4-.1-.7-.2zm0 21.4c.2-.1.5-.2.7-.2.2 0 .5.1.7.2-.2.1-.5.2-.7.2s-.4-.1-.7-.2zm0 5.4c.2-.1.5-.2.7-.2.2 0 .5.1.7.2-.2.1-.5.2-.7.2-.2-.1-.4-.1-.7-.2zm6.5 7c.1.1.1.1.2.1s.2-.1.2-.2v-.4.4c0 .1-.1.2-.2.2-.1.1-.2 0-.2-.1 0 .1 0 0 0 0zm.8.1h-.3l.2-.6.2.6v.1l-.1-.1zm-.2-.1h.3l-.1-.3-.2.3zm.5-.3v.5-.5c0-.1 0-.1 0 0l.4.5v-.5.5l-.4-.5zm.6-.1l.1.3c0 .1.1.2.2.2s.2-.1.2-.2v-.3.3c0 .2-.1.3-.3.3-.2 0-.3-.1-.3-.3l.1-.3zm1 .5h-.3l-.1.1v-.1l.2-.6.3.7v.1l-.1-.2zm-.3-.1h.3l-.1-.3-.2.3zm.8.1c0-.1 0-.1-.1-.1s-.1-.1-.1-.1H86v.2-.6h.2c.1 0 .2.1.2.2s-.1.1-.1.2c.1.1.1.1.1.2l.1.1c-.1 0-.1 0-.1-.1zm-.1-.5h-.2v.3h.2c.1 0 .1-.1.1-.1 0-.1-.1-.2-.1-.2zm.5.3l-.2-.3v-.1h.1l.1.4.2-.3h.1v.1l-.3.2.1.3-.1-.3zm3.9-.3h.3-.3l.1.3h.2-.3v.3-.6zm.5 0h.3-.3l.1.3h.3-.3v.2h.3-.3l-.1-.5zm.6 0h.2c.1 0 .2.1.2.2s0 .1-.1.1c.1 0 .1.1.1.2s-.1.2-.2.2h-.2v-.7zm.1.3c.1 0 .1-.1.1-.1 0-.1-.1-.1-.1-.1h-.1v.2h.1zm0 .3c.1 0 .1-.1.1-.1 0-.1-.1-.1-.1-.1h-.1v.2h.1z"/>
        <path class="st9" d="M92.5 98.9c0-.1 0-.1-.1-.1s-.1-.1-.1-.1h-.2v.2-.6h.2c.1 0 .2.1.2.2s-.1.1-.1.2c.1.1.2.1.1.2.1 0 .1 0 0 0l.1.1s-.1 0-.1-.1zm-.1-.5h-.2v.3h.2c.1 0 .1-.1.1-.1 0-.1 0-.2-.1-.2zm.4 0l.1.3c0 .1.1.2.2.2s.2-.1.2-.2v-.3.3c0 .2-.1.3-.3.3s-.3-.1-.3-.3l.1-.3zm.9.5h-.3l.2-.6.2.6v.1l-.1-.1zm-.3-.1h.3l-.1-.3-.2.3zm.8.1c0-.1 0-.1-.1-.1s-.1-.1-.1-.1v.2-.6h.2c.1 0 .2.1.2.2s-.1.1-.1.2c-.1.1 0 .1-.1.2.1 0 .1 0 0 0l.1.1s-.1 0-.1-.1zm-.1-.5H94v.3h.2c.1 0 .1-.1.1-.1-.1-.1-.1-.2-.2-.2zm.5.3l-.2-.3v-.1h.1l.1.4.2-.3h.1v.1l-.3.2.1.3-.1-.3zm4.8-.2l-.2.3-.2-.3v.5-.6h.1l.2.3.2-.3h.1v.6-.5h-.2zm.6.4h-.3l.2-.6.2.6v.1l-.1-.1zm-.2-.1h.3l-.1-.3-.2.3zm.7.1c0-.1 0-.1-.1-.1s-.1-.1-.1-.1h-.2v.2-.6h.2c.1 0 .2.1.2.2s-.1.1-.1.2c.1.1.1.1.1.2l.1.1c-.1 0-.1 0-.1-.1zm-.1-.5h-.2v.3h.2c.1 0 .1-.1.1-.1 0-.1 0-.2-.1-.2zm.6 0c.1 0 .2 0 .2.1v.1h-.1c.1-.2 0-.2-.1-.2-.2.1-.3.2-.3.3 0 .2.1.3.3.3.1 0 .1 0 .2-.1h.1v.1c-.1.1-.1.1-.2.1-.2 0-.3-.2-.3-.3-.1-.3.1-.4.2-.4zm.8.3h-.3v.3-.6.3h.3v-.3.6-.3zm5.5.2h-.3l.2-.6.2.6v.1l-.1-.1zm-.2-.1h.3l-.1-.3-.2.3zm.4-.4s.1 0 0 0h.2c.1 0 .2.1.2.2s-.1.2-.2.2h-.2v.2-.6zm.3.3c.1 0 .1-.1.1-.1 0-.1-.1-.1-.1-.1h-.2v.3l.2-.1zm.6.2c0-.1 0-.1-.1-.1s-.1-.1-.1-.1h-.2v.2-.6h.2c.1 0 .2.1.2.2s-.1.1-.1.2c.1.1.1.1.1.2l.1.1c-.1 0-.1 0-.1-.1zm-.2-.5h-.2v.3h.2c.1 0 .1-.1.1-.1.1-.1 0-.2-.1-.2zm.4 0c.1 0 .1 0 0 0l.1.6-.1-.6zm.3.6v-.6.6l.3-.1-.3.1zm6.6-.5l-.2.3-.2-.3v.5-.6h.1l.2.3.2-.3h.1v.6-.5h-.2z"/>
        <path class="st9" d="M116 98.9h-.3l-.1.2V99l.2-.6.2.6v.1-.2zm-.2-.1h.3l-.1-.3-.2.3zm.5-.1l-.2-.3v-.1h.1l.1.4.2-.3h.1v.1l-.3.2.1.3-.1-.3zm6 .1c.1.1.1.1.2.1s.2-.1.2-.2v-.4.4c0 .1-.1.2-.2.2 0 .1-.2 0-.2-.1 0 .1 0 0 0 0zm.6-.4l.1.3c0 .1.1.2.2.2s.2-.1.2-.2v-.3.3c0 .2-.1.3-.3.3s-.3-.1-.3-.3l.1-.3zm.7.1v.5-.5c0-.1 0-.1 0 0l.4.5v-.5.5l-.4-.5zm.6-.1h.3-.3l.1.3h.3-.3v.2h.3-.3v-.5zm5.9.4c.1.1.1.1.2.1s.2-.1.2-.2v-.4.4c0 .1-.1.2-.2.2-.1.1-.2 0-.2-.1 0 .1 0 0 0 0zm.6-.4l.1.3c0 .1.1.2.2.2s.2-.1.2-.2v-.3.3c0 .2-.1.3-.3.3s-.3-.1-.3-.3l.1-.3zm.6.6v-.6.6l.3-.1-.3.1zm.6-.3l-.2-.3v-.1h.1l.1.4.2-.3h.1v.1l-.3.2.1.3-.1-.3zm5.5.2h-.3l-.1.1v-.1l.2-.6.2.6v.1-.1zm-.3-.1h.3l-.1-.3-.2.3zm.5-.4l.1.3c0 .1.1.2.2.2s.2-.1.2-.2v-.3.3c0 .2-.1.3-.3.3s-.3-.1-.3-.3l.1-.3zm.9.3l.2-.1v.2c-.1.1-.1.1-.2.1-.2 0-.3-.2-.3-.3s.2-.3.3-.3c.1 0 .2 0 .2.1v.1h-.1c-.1-.1-.1-.1-.2-.1-.2 0-.3.1-.3.3s.1.3.3.3c.1 0 .1 0 .2-.1v-.2h-.1zm.4-.3c.1 0 .1 0 0 0l.1.3c0 .1.1.2.2.2s.2-.1.2-.2v-.3.3c0 .2-.1.3-.3.3-.2 0-.3-.1-.3-.3l.1-.3zm.7.5c.1.1.2.1.2.1s.1 0 .1-.1c.1 0 .1-.1.1-.1 0-.1 0-.1-.1-.1s-.1-.1-.2-.1-.1 0-.2-.1c-.1 0-.1-.1-.1-.1 0-.1 0-.1.1-.1.1-.1.1-.1.2-.1s.2.1.2.1v.1c-.1-.1-.1-.1-.2-.1s-.1 0-.1.1c-.1 0-.1.1-.1.1 0 .1 0 .1.1.1s.1.1.1.1c.1 0 .1.1.2.1s.1.1.1.1c0 .1-.1.1-.1.1-.1.1-.1.1-.2.1 0-.1 0-.1-.1-.2zm.8-.5h-.2.4-.2l.1.5-.1-.5zm3.6.5s.1 0 0 0c.1.1.2.1.2.1s.1 0 .2-.1c.1 0 .1-.1.1-.1 0-.1 0-.1-.1-.1s-.1-.1-.2-.1-.1 0-.2-.1c-.1 0-.1-.1-.1-.1 0-.1 0-.1.1-.1.1-.1.1-.1.2-.1s.2.1.2.1v.1c-.1-.1-.1-.1-.2-.1s-.1 0-.1.1c-.1 0-.1.1-.1.1 0 .1 0 .1.1.1s.1.1.1.1c.1 0 .1.1.2.1s.1.1.1.1c0 .1-.1.1-.1.1-.1.1-.1.1-.2.1 0-.1-.1-.1-.2-.2zm.7-.5h.3-.3l.1.3h.3-.3v.2h.3-.3v-.5zm.4 0h.2c.1 0 .2.1.2.2s-.1.2-.2.2h-.2v.2-.6zm.3.3c.1 0 .1-.1.1-.1 0-.1-.1-.1-.1-.1h-.2v.3l.2-.1zm.4-.3h-.2.4-.2l.1.5-.1-.5zm.4 0h.3-.3l.1.3h.3-.3v.2h.3-.3v-.5zm1 .1l-.2.3-.2-.3v.5-.6h.1l.2.3.2-.3h.1v.6-.5h-.2zm.3-.1h.2c.1 0 .2.1.2.2s0 .1-.1.1c.1 0 .1.1.1.2s-.1.2-.2.2h-.2v-.7zm.1.3c.1 0 .1-.1.1-.1 0-.1-.1-.1-.1-.1h-.1v.2h.1zm0 .3c.1 0 .1-.1.1-.1 0-.1-.1-.1-.1-.1h-.2v.2h.2zm.3-.6h.3-.3l.1.3h.3-.3v.2h.3-.3v-.5zm.9.5c0-.1 0-.1-.1-.1s-.1-.1-.1-.1h-.2v.2-.6h.2c.1 0 .2.1.2.2s-.1.1-.1.2c.1.1.1.1.1.2l.1.1c-.1 0-.1 0-.1-.1zm-.2-.5h-.2v.3h.2c.1 0 .1-.1.1-.1.1-.1 0-.2-.1-.2zm3.8 0c.2 0 .3.2.3.3 0 .2-.1.3-.3.3-.2 0-.3-.2-.3-.3 0-.2.2-.3.3-.3zm0 .6c.2 0 .3-.1.3-.3 0-.2-.1-.3-.3-.3-.2 0-.3.1-.3.3 0 .2.2.3.3.3zm.7-.6c.1 0 .2 0 .2.1v.1h-.1c.1-.2 0-.2-.1-.2-.2.1-.3.2-.3.3 0 .2.1.3.3.3.1 0 .1 0 .2-.1h.1v.1c-.1.1-.1.1-.2.1-.2 0-.3-.2-.3-.3-.1-.3.1-.4.2-.4zm.6 0h-.2.4-.2l.1.5-.1-.5zm.6 0c.2 0 .3.2.3.3 0 .2-.1.3-.3.3-.2 0-.3-.2-.3-.3 0-.2.1-.3.3-.3zm0 .6c.2 0 .3-.1.3-.3 0-.2-.1-.3-.3-.3-.2 0-.3.1-.3.3 0 .2.1.3.3.3zm.4-.6h.2c.1 0 .2.1.2.2s0 .1-.1.1c.1 0 .1.1.1.2s-.1.2-.2.2h-.2v-.7zm.2.3c.1 0 .1-.1.1-.1 0-.1-.1-.1-.1-.1h-.1v.2h.1zm0 .3c.1 0 .1-.1.1-.1 0-.1-.1-.1-.1-.1h-.2v.2h.2zm.3-.6s.1 0 0 0h.3-.3l.1.3h.3-.3v.2h.3-.3v-.5zm.8.5c0-.1 0-.1-.1-.1s-.1-.1-.1-.1h-.2v.2-.6h.2c.1 0 .2.1.2.2s-.1.1-.1.2c.1.1.2.1.1.2.1 0 .1 0 0 0l.1.1s-.1 0-.1-.1zm-.1-.5h-.2v.3h.2c.1 0 .1-.1.1-.1 0-.1 0-.2-.1-.2zm3.7.1v.5-.5c0-.1 0-.1 0 0l.4.5v-.5.5l-.4-.5zm.8-.1c.2 0 .3.2.3.3 0 .2-.1.3-.3.3-.2 0-.3-.2-.3-.3 0-.2.2-.3.3-.3zm0 .6c.1 0 .3-.1.3-.3 0-.2-.1-.3-.3-.3-.2 0-.3.1-.3.3.1.2.2.3.3.3zm.6 0l-.2-.6v-.1h.1l.2.5.2-.5h.1v.1l-.4.6c.1 0 0 0 0 0zm.5-.6h.3-.3l.1.3h.3-.3v.2h.3-.3v-.5zm.9.1l-.2.3-.2-.3v.5-.6h.1l.2.3.2-.3h.1v.6-.5h-.2zm.3-.1h.2c.1 0 .2.1.2.2s0 .1-.1.1c.1 0 .1.1.1.2s-.1.2-.2.2h-.2v-.7zm.1.3c.1 0 .1-.1.1-.1 0-.1-.1-.1-.1-.1h-.1v.2h.1zm.1.3c.1 0 .1-.1.1-.1 0-.1-.1-.1-.1-.1h-.2v.2h.2zm.3-.6h.3-.3l.1.3h.3-.3v.2h.3-.3v-.5zm.8.5c0-.1 0-.1-.1-.1s-.1-.1-.1-.1h-.2v.2-.6h.2c.1 0 .2.1.2.2s-.1.1-.1.2c.1.1.1.1.1.2l.1.1c-.1 0-.1 0-.1-.1zm-.1-.5h-.2v.3h.2c.1 0 .1-.1.1-.1 0-.1-.1-.2-.1-.2zm3.4.6v-.6h.1c.2 0 .3.2.3.3 0 .2-.2.3-.3.3h-.1zm.1 0c.2 0 .3-.1.3-.3 0-.2-.1-.3-.3-.3h-.1v.6h.1zm.5-.6h.3-.3l.1.3h.3-.3v.2h.3-.3v-.5zm.8 0c.1 0 .2 0 .2.1v.1h-.1c0-.2-.1-.2-.1-.2-.2.1-.3.2-.3.3 0 .2.1.3.3.3.1 0 .1 0 .2-.1h.1v.1c-.1.1-.1.1-.2.1-.2 0-.3-.2-.3-.3-.1-.3 0-.4.2-.4zm.4 0h.3-.3l.1.3h.3-.3v.2h.3-.3v-.5zm.9.1l-.2.3-.2-.3v.5-.6h.1l.2.3.2-.3h.1v.6-.5h-.2zm.3-.1h.2c.1 0 .2.1.2.2s0 .1-.1.1c.1 0 .1.1.1.2s-.1.2-.2.2h-.2v-.7zm.1.3c.1 0 .1-.1.1-.1 0-.1-.1-.1-.1-.1h-.1v.2h.1zm.1.3c.1 0 .1-.1.1-.1 0-.1-.1-.1-.1-.1h-.2v.2h.2zm.3-.6h.3-.3l.1.3h.3-.3v.2h.3-.3v-.5zm.8.5c0-.1 0-.1-.1-.1s-.1-.1-.1-.1h-.2v.2-.6h.2c.1 0 .2.1.2.2s-.1.1-.1.2c.1.1.1.1.1.2l.1.1c-.1 0-.1 0-.1-.1zm-.1-.5h-.2v.3h.2c.1 0 .1-.1.1-.1 0-.1-.1-.2-.1-.2z"/>
        <path class="st6" d="M186.1 58.1h105.5v46.8H186.1z"/>
        <path class="st0" d="M199 97.8v-5.6l-.1-5.4.1-17.2v-5.4 5.4l.1 17.2-.1 5.4V95zm7.6 0V64.2l.1 2.7v2.7l.1 17.2-.1 5.4V95zm7.7 0V64.2l.1 2.7V95zm7.7 0v-5.6l-.1-5.4.1-17.2v-5.4 5.4l.1 17.2-.1 5.4V95zm7.7 0V95l-.1-2.8V69.6l.1-2.7v-2.7 5.4l.1 17.2-.1 5.4V95zm7.6 0V64.2l.1 2.7V95zm7.7 0v-5.6l-.1-5.4.1-17.2v-5.4 2.7l.1 2.7v22.6L245 95zm7.7 0v-5.6l-.1-5.4.1-17.2v-5.4 5.4l.1 17.2-.1 5.4V95zm7.7 0l-.1-2.8V66.9l.1-2.7V95zm7.6 0v-5.6l-.1-5.4.1-17.2v-5.4 2.7l.1 2.7v22.6L268 95zm7.7 0v-5.6l-.1-5.4.1-17.2v-5.4 5.4l.1 17.2-.1 5.4V95zm7.7 0V95l-.1-2.8V69.6l.1-2.7v-2.7 5.4l.1 17.2-.1 5.4V95z"/>
        <path class="st9" d="M191.3 75.7l23.9-.1h47.9l23.9.1h-23.9l-23.9.1-24-.1zm0 5.4l23.9-.1h47.9l23.9.1h-71.8zm0-10.7l23.9-.1h47.9l23.9.1h-71.8zm0-5.4H287l-23.9.1h-47.9zm-.1 21.3l24-.1H263l23.9.1h-71.7zm.1 5.5l23.9-.1h47.9l23.9.1h-71.8zm5.8 7c.1.1.1.1.2.1s.2-.1.2-.2v-.4.4c0 .1-.1.2-.2.2-.1.1-.2 0-.2-.1 0 .1 0 0 0 0zm.9.1h-.3l-.1.2V99l.2-.6.2.6v.1-.2zm-.3-.1h.3l-.1-.3-.2.3zm.5-.3v.5-.5c0-.1 0-.1 0 0l.4.5v-.5.5l-.4-.5zm.6-.1l.1.3c0 .1.1.2.2.2s.2-.1.2-.2v-.3.3c0 .2-.1.3-.3.3s-.3-.1-.3-.3l.1-.3zm.9.5h-.3l-.1.2V99l.2-.6.2.6v.1-.2zm-.2-.1h.3l-.1-.3-.2.3zm.8.1c0-.1 0-.1-.1-.1s-.1-.1-.1-.1h-.1v.2-.6h.2c.1 0 .2.1.2.2s-.1.1-.1.2v.2l.1.1c-.1 0-.1 0-.1-.1zm-.1-.5h-.2v.3h.2c.1 0 .1-.1.1-.1 0-.1-.1-.2-.1-.2zm.4.3l-.2-.3v-.1h.1l.1.4.2-.3h.1v.1l-.3.2.1.3-.1-.3zm4-.3h.3-.3l.1.3h.3-.3v.3l-.1-.6zm.5 0s.1 0 0 0h.3-.3l.1.3h.3-.3v.2h.3-.3v-.5zm.5 0h.2c.1 0 .2.1.2.2s0 .1-.1.1c.1 0 .1.1.1.2s-.1.2-.2.2h-.2v-.7zm.2.3c.1 0 .1-.1.1-.1 0-.1-.1-.1-.1-.1h-.1v.2h.1zm.1.3c.1 0 .1-.1.1-.1 0-.1-.1-.1-.1-.1h-.2v.2h.2zm.5-.1c0-.1 0-.1-.1-.1s-.1-.1-.1-.1h-.2v.2-.6h.2c.1 0 .2.1.2.2s-.1.1-.1.2c.1.1.2.1.1.2.1 0 .1 0 0 0l.1.1s-.1 0-.1-.1zm-.1-.5h-.2v.3h.2c.1 0 .1-.1.1-.1 0-.1 0-.2-.1-.2zm.3 0s.1 0 0 0l.1.3c0 .1.1.2.2.2s.2-.1.2-.2v-.3.3c0 .2-.1.3-.3.3s-.3-.1-.3-.3l.1-.3zm1 .5h-.3l-.1.2V99l.2-.6.2.6v.1-.2zm-.3-.1h.3l-.1-.3-.2.3zm.8.1c0-.1 0-.1-.1-.1s-.1-.1-.1-.1h-.2v.2-.6h.2c.1 0 .2.1.2.2s-.1.1-.1.2c.1.1.2.1.1.2.1 0 .1 0 0 0l.1.1s-.1 0-.1-.1zm-.1-.5h-.2v.3h.2c.1 0 .1-.1.1-.1 0-.1 0-.2-.1-.2zm.5.3l-.2-.3v-.1h.1l.1.4.2-.3h.1v.1l-.3.2.1.3-.1-.3zm4.9-.2l-.2.3-.2-.3v.5-.6h.1l.2.3.2-.3h.1v.6-.5h-.2z"/>
        <path class="st9" d="M213.9 98.9h-.3l-.1.2V99l.2-.6.3.6v.1l-.1-.2zm-.3-.1h.3l-.1-.3-.2.3zm.8.1c0-.1 0-.1-.1-.1s-.1-.1-.1-.1h-.2v.2-.6h.2c.1 0 .2.1.2.2s-.1.1-.1.2c.1.1.1.1.1.2.1 0 .1 0 0 0l.1.1s-.1 0-.1-.1zm-.1-.5h-.2v.3h.2c.1 0 .1-.1.1-.1 0-.1 0-.2-.1-.2zm.7 0c.1 0 .2 0 .2.1v.1h-.1c0-.2-.1-.2-.1-.2-.2.1-.3.2-.3.3 0 .2.1.3.3.3.1 0 .1 0 .2-.1h.1v.1c-.1.1-.1.1-.2.1-.2 0-.3-.2-.3-.3-.2-.3 0-.4.2-.4zm.6.3h-.3v.3-.6.3h.3v-.3.6-.3zm5.6.2h-.2l-.1.2V99l.2-.6.2.6v.1l-.1-.2zm-.2-.1h.3l-.1-.3-.2.3zm.5-.4h.2c.1 0 .2.1.2.2s-.1.2-.2.2h-.2v.2-.6zm.2.3c.1 0 .1-.1.1-.1 0-.1-.1-.1-.1-.1h-.2v.3l.2-.1zm.6.2c0-.1 0-.1-.1-.1s-.1-.1-.1-.1h-.1v.2-.6h.2c.1 0 .2.1.2.2s-.1.1-.1.2v.2l.1.1c-.1 0-.1 0-.1-.1zm-.1-.5h-.2v.3h.2c.1 0 .1-.1.1-.1 0-.1-.1-.2-.1-.2zm.3 0l.1.6-.1-.6zm.3.6v-.6.6l.3-.1-.3.1zm6.6-.5l-.2.3-.2-.3v.5-.6h.1l.2.3.2-.3h.1v.6-.5h-.2z"/>
        <path class="st9" d="M229.9 98.9h-.3l-.1.2V99l.2-.6.3.6v.1l-.1-.2zm-.2-.1h.3l-.1-.3-.2.3zm.5-.1l-.2-.3v-.1h.1l.1.4.2-.3h.1v.1l-.3.2.1.3-.1-.3zm6 .1s.1 0 0 0c.1.1.1.1.2.1s.2-.1.2-.2v-.4.4c0 .1-.1.2-.2.2-.1.1-.2 0-.2-.1 0 .1 0 0 0 0zm.6-.4l.1.3c0 .1.1.2.2.2s.2-.1.2-.2v-.3.3c0 .2-.1.3-.3.3s-.3-.1-.3-.3l.1-.3zm.7.1v.5-.5c0-.1 0-.1 0 0l.4.5v-.5.5l-.4-.5zm.6-.1h.3-.3l.1.3h.3-.3v.2h.3-.3v-.5zm5.9.4s.1 0 0 0c.1.1.1.1.2.1s.2-.1.2-.2v-.4.4c0 .1-.1.2-.2.2-.1.1-.2 0-.2-.1 0 .1 0 0 0 0zm.6-.4l.1.3c0 .1.1.2.2.2s.2-.1.2-.2v-.3.3c0 .2-.1.3-.3.3s-.3-.1-.3-.3l.1-.3zm.6.6v-.6.6l.3-.1-.3.1zm.6-.3l-.2-.3v-.1h.1l.1.4.2-.3h.1v.1l-.3.2.1.3-.1-.3zm5.4.2h-.2l-.1.2V99l.2-.6.2.6v.1l-.1-.2zm-.2-.1h.3l-.1-.3-.2.3zm.5-.4l.1.3c0 .1.1.2.2.2s.2-.1.2-.2v-.3.3c0 .2-.1.3-.3.3-.2 0-.3-.1-.3-.3l.1-.3zm.9.3l.2-.1v.2c-.1.1-.1.1-.2.1-.2 0-.3-.2-.3-.3s.2-.3.3-.3c.1 0 .2 0 .2.1v.1h-.1c-.1-.1-.1-.1-.2-.1-.2 0-.3.1-.3.3s.1.3.3.3c.1 0 .1 0 .2-.1v-.2h-.1zm.4-.3c.1 0 .1 0 0 0l.1.3c0 .1.1.2.2.2s.2-.1.2-.2v-.3.3c0 .2-.1.3-.3.3s-.3-.1-.3-.3l.1-.3zm.7.5c.1.1.2.1.2.1.1 0 .1 0 .1-.1.1 0 .1-.1.1-.1 0-.1 0-.1-.1-.1s-.1-.1-.2-.1-.1 0-.2-.1c-.1 0-.1-.1-.1-.1 0-.1 0-.1.1-.1.1-.1.1-.1.2-.1s.2.1.2.1v.1c-.1-.1-.1-.1-.2-.1s-.1 0-.1.1c-.1 0-.1.1-.1.1 0 .1 0 .1.1.1s.1.1.1.1c.1 0 .1.1.2.1s.1.1.1.1c0 .1-.1.1-.1.1-.1.1-.1.1-.2.1 0-.1 0-.1-.1-.2zm.7-.5h-.2.4-.2l.1.5-.1-.5zm3.8.5c.1.1.2.1.2.1.1 0 .1 0 .1-.1.1 0 .1-.1.1-.1 0-.1 0-.1-.1-.1s-.1-.1-.2-.1-.1 0-.2-.1c-.1 0-.1-.1-.1-.1 0-.1 0-.1.1-.1.1-.1.1-.1.2-.1s.2.1.2.1v.1c-.1-.1-.1-.1-.2-.1s-.1 0-.1.1c-.1 0-.1.1-.1.1 0 .1 0 .1.1.1s.1.1.1.1c.1 0 .1.1.2.1s.1.1.1.1c0 .1-.1.1-.1.1-.1.1-.1.1-.2.1 0-.1-.1-.1-.1-.2zm.6-.5h.3-.3l.1.3h.3-.3v.2h.3-.3v-.5zm.5 0h.2c.1 0 .2.1.2.2s-.1.2-.2.2h-.2v.2-.6zm.1.3c.1 0 .1-.1.1-.1 0-.1-.1-.1-.1-.1h-.2v.3l.2-.1zm.5-.3h-.2.4-.2l.1.5-.1-.5zm.4 0h.3-.3l.1.3h.3-.3v.2h.3-.3v-.5zm1 .1l-.2.3-.2-.3v.5-.6h.1l.2.3.2-.3h.1v.6-.5h-.2z"/>
        <path class="st9" d="M261.4 98.4h.2c.1 0 .2.1.2.2s0 .1-.1.1c.1 0 .1.1.1.2s-.1.2-.2.2h-.2v-.7zm.1.3c.1 0 .1-.1.1-.1 0-.1-.1-.1-.1-.1h-.1v.2h.1zm0 .3c.1 0 .1-.1.1-.1 0-.1-.1-.1-.1-.1h-.2v.2h.2zm.3-.6s.1 0 0 0h.3-.3l.1.3h.3-.3v.2h.3-.3l-.1-.5zm.9.5c0-.1 0-.1-.1-.1s-.1-.1-.1-.1h-.2v.2-.6h.2c.1 0 .2.1.2.2s-.1.1-.1.2c.1.1.1.1.1.2l.1.1c-.1 0-.1 0-.1-.1zm-.1-.5h-.2v.3h.2c.1 0 .1-.1.1-.1 0-.1-.1-.2-.1-.2zm3.7 0c.2 0 .3.2.3.3 0 .2-.1.3-.3.3-.2 0-.3-.2-.3-.3 0-.2.1-.3.3-.3zm0 .6c.2 0 .3-.1.3-.3 0-.2-.1-.3-.3-.3-.2 0-.3.1-.3.3.1.2.2.3.3.3zm.7-.6c.1 0 .2 0 .2.1v.1h-.1c0-.2 0-.2-.1-.2-.2.1-.3.2-.3.3 0 .2.1.3.3.3.1 0 .1 0 .2-.1h.1v.1c-.1.1-.1.1-.2.1-.2 0-.3-.2-.3-.3-.1-.3.1-.4.2-.4zm.6 0h-.2.4-.2l.1.5-.1-.5zm.6 0c.2 0 .3.2.3.3 0 .2-.1.3-.3.3-.2 0-.3-.2-.3-.3 0-.2.1-.3.3-.3zm0 .6c.2 0 .3-.1.3-.3 0-.2-.1-.3-.3-.3-.2 0-.3.1-.3.3 0 .2.1.3.3.3zm.4-.6h.2c.1 0 .2.1.2.2s0 .1-.1.1c.1 0 .1.1.1.2s-.1.2-.2.2h-.2v-.7zm.2.3c.1 0 .1-.1.1-.1 0-.1-.1-.1-.1-.1h-.1v.2h.1zm0 .3c.1 0 .1-.1.1-.1 0-.1-.1-.1-.1-.1h-.2v.2h.2zm.3-.6h.3-.3l.1.3h.3-.3v.2h.3-.3v-.5z"/>
        <path class="st9" d="M269.9 98.9c0-.1 0-.1-.1-.1s-.1-.1-.1-.1h-.2v.2-.6h.2c.1 0 .2.1.2.2s-.1.1-.1.2c.1.1.2.1.1.2.1 0 .1 0 0 0l.1.1s-.1 0-.1-.1zm-.1-.5h-.2v.3h.2c.1 0 .1-.1.1-.1 0-.1 0-.2-.1-.2zm3.7.1v.5-.5c0-.1 0-.1 0 0l.4.5v-.5.5l-.4-.5zm.8-.1c.2 0 .3.2.3.3 0 .2-.1.3-.3.3-.2 0-.3-.2-.3-.3 0-.2.1-.3.3-.3zm0 .6c.1 0 .3-.1.3-.3 0-.2-.1-.3-.3-.3-.2 0-.3.1-.3.3 0 .2.2.3.3.3zm.6 0l-.2-.6v-.1h.1l.2.5.2-.5h.1v.1l-.4.6c.1 0 .1 0 0 0 .1 0 0 0 0 0zm.5-.6h.3-.3l.1.3h.3-.3v.2h.3-.3v-.5zm.9.1l-.2.3-.2-.3v.5-.6h.1l.2.3.2-.3h.1v.6-.5h-.2zm.3-.1h.2c.1 0 .2.1.2.2s0 .1-.1.1c.1 0 .1.1.1.2s-.1.2-.2.2h-.2v-.7zm.1.3c.1 0 .1-.1.1-.1 0-.1-.1-.1-.1-.1h-.1v.2h.1zm.1.3c.1 0 .1-.1.1-.1 0-.1-.1-.1-.1-.1h-.2v.2h.2zm.3-.6h.3-.3l.1.3h.3-.3v.2h.3-.3v-.5z"/>
        <path class="st9" d="M277.9 98.9c0-.1 0-.1-.1-.1s-.1-.1-.1-.1h-.2v.2-.6h.2c.1 0 .2.1.2.2s-.1.1-.1.2c.1.1.1.1.1.2l.1.1c-.1 0-.1 0-.1-.1zm-.1-.5h-.2v.3h.2c.1 0 .1-.1.1-.1 0-.1 0-.2-.1-.2zm3.4.6v-.6h.1c.2 0 .3.2.3.3 0 .2-.2.3-.3.3h-.1zm.1 0c.2 0 .3-.1.3-.3 0-.2-.1-.3-.3-.3h-.1v.6h.1zm.5-.6h.3-.3l.1.3h.3-.3v.2h.3-.3v-.5zm.8 0c.1 0 .2 0 .2.1v.1h-.1c0-.2-.1-.2-.1-.2-.2.1-.3.2-.3.3 0 .2.1.3.3.3.1 0 .1 0 .2-.1h.1v.1c-.1.1-.1.1-.2.1-.2 0-.3-.2-.3-.3-.1-.3 0-.4.2-.4zm.3 0h.3-.3l.1.3h.3-.3v.2h.3-.3v-.5zm1 .1l-.2.3-.2-.3v.5-.6h.1l.2.3.2-.3h.1v.6-.5h-.2zm.3-.1h.2c.1 0 .2.1.2.2s0 .1-.1.1c.1 0 .1.1.1.2s-.1.2-.2.2h-.2v-.7zm.1.3c.1 0 .1-.1.1-.1 0-.1-.1-.1-.1-.1h-.1v.2h.1zm.1.3c.1 0 .1-.1.1-.1 0-.1-.1-.1-.1-.1h-.2v.2h.2zm.3-.6h.3-.3l.1.3h.3-.3v.2h.3-.3v-.5z"/>
        <path class="st9" d="M285.5 98.9c0-.1 0-.1-.1-.1s-.1-.1-.1-.1h-.2v.2-.6h.2c.1 0 .2.1.2.2s-.1.1-.1.2c.1.1.1.1.1.2l.1.1c-.1 0-.1 0-.1-.1zm-.1-.5h-.2v.3h.2c.1 0 .1-.1.1-.1 0-.1-.1-.2-.1-.2z"/>
        <path class="st0" d="M197 65.2h4v31.4h-4z"/>
        <path class="st4" d="M197 85.2h4v11.4h-4z"/>
        <path class="st4" d="M197 85.2h4v11.4h-4z"/>
        <path class="st0" d="M204.6 65.2h4v31.4h-4z"/>
        <path class="st11" d="M204.6 87.5h4v9.1h-4z"/>
        <path class="st0" d="M212.3 65.2h4v31.4h-4z"/>
        <path class="st4" d="M212.3 82.3h4v14.3h-4z"/>
        <path class="st0" d="M220 65.2h4v31.4h-4z"/>
        <path class="st11" d="M220 79.8h4v16.8h-4z"/>
        <path class="st0" d="M227.7 65.2h4v31.4h-4z"/>
        <path class="st4" d="M227.7 80.6h4v16h-4z"/>
        <path class="st0" d="M235.3 65.2h4v31.4h-4z"/>
        <path class="st11" d="M235.3 79.4h4v17.1h-4z"/>
        <path class="st0" d="M243 65.2h4v31.4h-4z"/>
        <path class="st4" d="M243 77.8h4v18.7h-4z"/>
        <path class="st0" d="M250.7 65.2h4v31.4h-4z"/>
        <path class="st11" d="M250.7 75.6h4v21h-4z"/>
        <path class="st0" d="M258.4 65.2h4v31.4h-4z"/>
        <path class="st4" d="M258.4 77.2h4v19.3h-4z"/>
        <path class="st0" d="M266 65.2h4v31.4h-4z"/>
        <path class="st11" d="M266 76.4h4v20.2h-4z"/>
        <path class="st0" d="M273.7 65.2h4v31.4h-4z"/>
        <path class="st4" d="M273.7 74.5h4v22h-4z"/>
        <path class="st0" d="M281.4 65.2h4v31.4h-4z"/>
        <path class="st11" d="M281.4 73h4v23.6h-4z"/>
        <path class="st9" d="M191.3 62.8l.1 22.8.1 11-.1-.1 24-.1h24l24 .1c8 0 16 .1 24 .1-8 .1-16 .1-24 .1l-24 .1h-24l-24-.1h-.1v-.1l.1-11-.1-22.8z"/>
        <path class="st9" d="M190.6 75.7c.2-.1.5-.2.7-.2.2 0 .5.1.7.2-.2.1-.5.2-.7.2-.2 0-.5-.1-.7-.2zm0 5.4c.2-.1.5-.2.7-.2.2 0 .5.1.7.2-.2.1-.5.2-.7.2-.2-.1-.5-.1-.7-.2zm0-10.7c.2-.1.5-.2.7-.2.2 0 .5.1.7.2-.2.1-.5.2-.7.2-.2-.1-.5-.1-.7-.2zm0-5.4c.2-.1.5-.2.7-.2.2 0 .5.1.7.2-.2.1-.5.2-.7.2-.2 0-.5-.1-.7-.2zm0 21.4c.2-.1.5-.2.7-.2.2 0 .5.1.7.2-.2.1-.5.2-.7.2-.2-.1-.5-.1-.7-.2zm0 5.4c.2-.1.5-.2.7-.2.2 0 .5.1.7.2-.2.1-.5.2-.7.2-.2-.1-.5-.1-.7-.2zm96.3-46.4h4.6v.9h-4.6zm0 1.9h4.6v.9h-4.6zm0 1.8h4.6v.9h-4.6zM74.3 49c.1.1 0 .3-.2.3H74c-.1 0-.1 0-.2-.1l-.2-.2c-.1-.1-.1-.3-.1-.5 0-.1 0-.2-.1-.2 0-.1-.1-.1-.1-.1-.1-.1-.2-.1-.2-.1h-.5v.9c0 .1-.1.2-.2.2s-.2-.1-.2-.2v-2.5c0-.1.1-.2.2-.2h.7c.5 0 .9.4.9.9 0 .3-.1.5-.3.7l.2.2c.1.1.2.3.2.5v.3c.2-.1.2 0 .2.1zm-.6-1.7c0-.3-.2-.4-.4-.4h-.5v.8h.5c.2 0 .4-.2.4-.4zm1.1 1c0-.6.5-1.1 1.1-1.1.5 0 1 .4 1 1v.1c0 .1-.1.2-.2.2h-1.3c0 .1.1.2.2.3.1.1.3.2.4.2.2 0 .3 0 .4-.1.1-.1.3-.1.3 0 .1.1.1.2 0 .3-.2.2-.5.3-.7.3-.8-.2-1.2-.7-1.2-1.2zm.4-.2h1.2c-.1-.2-.3-.4-.6-.4-.4-.1-.5.2-.6.4zm4.2.2v.8c0 .5-.5 1-1 1-.2 0-.3-.1-.4-.1-.1-.1-.2-.2-.1-.3.1-.1.2-.2.3-.1.1.1.2.1.3.1.3 0 .5-.2.5-.5-.2.1-.4.2-.5.2-.3 0-.5-.1-.7-.3-.2-.2-.3-.4-.3-.7 0-.3.1-.5.3-.7.2-.2.4-.3.7-.3.2 0 .4.1.6.2 0-.1.1-.2.2-.2s.2.1.2.2l-.1.7zm-.5 0c0-.2-.1-.3-.2-.4-.1-.1-.3-.2-.4-.2s-.3.1-.4.2c-.1.1-.2.3-.2.4s.1.3.2.4.3.2.4.2c.2 0 .3-.1.4-.2.2-.1.2-.2.2-.4zm1.8-1.6c0 .1-.1.2-.2.2s-.2-.1-.2-.2v-.1c0-.1.1-.2.2-.2s.2.1.2.2v.1zm0 .8v1.6c0 .1-.1.2-.2.2s-.2-.1-.2-.2v-1.6c0-.2.1-.2.2-.2.1-.1.2 0 .2.2zm.9 1.6c-.2-.2-.3-.4-.3-.7 0-.3.1-.5.3-.7.2-.2.4-.3.7-.3.3 0 .5.1.7.3.2.2.3.5.3.7 0 .3-.1.6-.3.7-.2.2-.4.3-.7.3-.2 0-.4-.2-.7-.3zm.2-.8c0 .2.1.3.2.4.1.1.3.2.4.2s.3-.1.4-.2c.1-.1.2-.3.2-.4 0-.2-.1-.3-.2-.4-.1-.1-.3-.2-.4-.2-.2 0-.3.1-.4.2-.1 0-.2.2-.2.4zm4.1-.2v1c0 .1-.1.2-.2.2s-.2-.1-.2-.2v-1c0-.2-.2-.4-.4-.4s-.4.2-.4.4v1.1c0 .1-.1.2-.2.2s-.2-.1-.2-.2v-1.6c0-.1.1-.2.2-.2s.2.1.2.1c.1-.1.3-.1.4-.1.3-.2.8.2.8.7zm2.5.2v.8c0 .1-.1.2-.2.2s-.2-.1-.2-.2c-.2.1-.4.2-.6.2-.3 0-.5-.1-.7-.3-.2-.2-.3-.5-.3-.7 0-.3.1-.5.3-.7.2-.2.4-.3.7-.3.2 0 .4.1.6.2 0-.1.1-.2.2-.2s.2.1.2.2v.8zm-.4 0c0-.2-.1-.3-.2-.4s-.3-.2-.4-.2c-.2 0-.3.1-.4.2v.4c0 .2.1.3.2.4.1.1.3.2.4.2.2 0 .3-.1.4-.2v-.4zm1.6-1.9c.1 0 .2.1.2.2v2.5c0 .1-.1.2-.2.2s-.2-.1-.2-.2v-2.5c0-.1.1-.2.2-.2zm2 2.2c.1-.1.2-.1.3-.1.2.2.5.3.8.3.2 0 .4-.1.5-.2.1-.1.2-.2.2-.3 0-.1 0-.1-.1-.2 0-.1-.1-.1-.1-.1-.1-.1-.3-.2-.6-.2-.2-.1-.4-.1-.5-.2-.2-.1-.3-.2-.4-.3-.1-.1-.1-.2-.1-.4 0-.3.2-.5.3-.6.2-.2.5-.2.7-.2.4 0 .7.2.9.3.1.1.1.2.1.3-.1.1-.2.1-.3.1-.2-.2-.4-.3-.7-.3-.2 0-.4.1-.5.2-.1.1-.2.2-.2.3 0 .1 0 .1.1.1 0 .1.1.1.1.1.1.1.3.2.5.2.2.1.4.1.6.2.2.1.3.2.4.4.1.1.1.2.1.4 0 .3-.2.5-.4.6-.2.2-.5.3-.8.3-.5 0-.8-.2-1.1-.4.1-.1.1-.2.2-.3zm4.6-.3v.8c0 .1-.1.2-.2.2s-.2-.1-.2-.2c-.2.1-.4.2-.6.2-.3 0-.5-.1-.7-.3-.2-.2-.3-.5-.3-.7 0-.3.1-.5.3-.7s.4-.3.7-.3c.2 0 .4.1.6.2 0-.1.1-.2.2-.2s.2.1.2.2v.8zm-.4 0c0-.2-.1-.3-.2-.4-.1-.1-.3-.2-.4-.2-.2 0-.3.1-.4.2-.1.1-.2.3-.2.4 0 .2.1.3.2.4.1.1.3.2.4.2.2 0 .3-.1.4-.2.2-.1.2-.2.2-.4zm1.6-1.9c.1 0 .2.1.2.2v2.5c0 .1-.1.2-.2.2s-.2-.1-.2-.2v-2.5c0-.1.1-.2.2-.2zm.8 1.9c0-.6.5-1.1 1.1-1.1.5 0 1 .4 1 1v.1c0 .1-.1.2-.2.2h-1.3c0 .1.1.2.2.3.1.1.3.2.4.2.2 0 .3 0 .4-.1.1-.1.3-.1.3 0 .1.1.1.2 0 .3-.2.2-.5.3-.7.3-.7-.2-1.2-.7-1.2-1.2zm.5-.2h1.2c-.1-.2-.3-.4-.6-.4-.4-.1-.6.2-.6.4zm2.1.6c.1-.1.2-.1.3-.1.1.1.3.2.5.2.1 0 .2-.1.3-.1s.1-.1.1-.1v-.1s0-.1-.1-.1c-.1-.1-.2-.1-.3-.1-.1 0-.3-.1-.4-.1-.1-.1-.2-.1-.3-.3-.1-.1-.1-.2-.1-.3 0-.2.1-.4.3-.5.2-.1.3-.2.5-.2.3 0 .5.2.6.2.1.1.1.2.1.3-.1.1-.2.1-.3.1-.2-.1-.3-.2-.4-.2s-.2.1-.3.1l-.1.1v.1l.1.1c.1.1.2.1.3.1.2 0 .3.1.4.1s.2.1.3.3c.1.1.1.2.1.3 0 .2-.1.4-.3.5-.2.1-.3.2-.5.2-.3 0-.6-.2-.7-.3-.1 0-.1-.1-.1-.2zm181.5-1.6l-.6-1.1-.4.2c-.1.1-.2.1-.3 0-.1-.1-.1-.1-.2-.1-.1-.1-.2-.2-.2-.3v-.4h-1.3v.4c0 .1-.1.2-.2.3-.1.1-.1.1-.2.1-.1.1-.2.1-.3 0l-.4-.2-.6 1.1.4.2c.1.1.2.2.2.3v.2c0 .1-.1.2-.2.3l-.4.2.6 1.1.4-.2c.1-.1.2-.1.3 0 .1.1.1.1.2.1.1.1.2.2.2.3v.4h1.3v-.4c0-.1.1-.2.2-.3.1-.1.1-.1.2-.1.1-.1.2-.1.3 0l.4.2.6-1.1-.4-.2c-.1-.1-.2-.2-.2-.3v-.2c0-.1.1-.2.2-.3l.4-.2zm-1.3.6c0 .6-.5 1.1-1.1 1.1-.6 0-1.1-.5-1.1-1.1 0-.6.5-1.1 1.1-1.1.7 0 1.1.5 1.1 1.1z"/>
        <path class="st6" d="M151.5 110.8h66.7v32.6h-66.7zm0 39.7h66.7v32.6h-66.7zm73.4-39.7h66.7v32.6h-66.7zm0 39.7h66.7v32.6h-66.7zM72.2 110.8h72.3v72.3H72.2z"/>
        <ellipse class="st11" cx="97.4" cy="147.5" rx="17" ry="17"/>
        <path class="st1" d="M97.4 147.6l-6.1 15.8c-6.6-2.5-11-8.8-11-15.9 0-9.3 7.7-17 17-17s17 7.7 17 17l-16.9.1z"/>
        <path class="st1" d="M97.4 147.6l13.6 10.1c-3.2 4.3-8.3 6.9-13.6 6.9-9.3 0-17-7.7-17-17s7.7-17 17-17 17 7.7 17 17h-17z"/>
        <path class="st4" d="M97.4 147.6l-15.1 7.8c-1.3-2.4-1.9-5.1-1.9-7.8 0-9.3 7.7-17 17-17s17 7.7 17 17h-17z"/>
        <path class="st3" d="M104.3 140.1l-.3-.2 8.2-8.2h10.3v.4h-10.2zm2.4 10h15.8v.4h-15.8zm15.8 18h-10.7l-.1-.1-7.7-9.4.3-.2 7.6 9.3h10.6z"/>
        <path class="st3" d="M123.3 131.9c0 .4-.4.8-.8.8s-.8-.4-.8-.8.4-.8.8-.8c.5 0 .8.4.8.8zm0 18.5c0 .4-.4.8-.8.8s-.8-.4-.8-.8.4-.8.8-.8c.5 0 .8.3.8.8zm0 17.5c0 .4-.4.8-.8.8s-.8-.4-.8-.8.4-.8.8-.8c.5 0 .8.4.8.8zm2.2-36.2h7.1v.4h-7.1zm0 1.2h9.9v.4h-9.9zm0 1.1h8.5v.4h-8.5zm0 1.2h10.8v.4h-10.8zm0 1.2h9.4v.4h-9.4zm0 1.2h8.1v.4h-8.1zm0 12.5h9.8v.4h-9.8zm0 1.2h6.6v.4h-6.6zm0 1.2h9v.4h-9zm0 1.2h9.8v.4h-9.8zm0 1.1h10.8v.4h-10.8zm0 1.2h8.1v.4h-8.1zm0 11.7h8.2v.4h-8.2zm0 1.2h10.8v.4h-10.8zm0 1.2h6.8v.4h-6.8zm0 1.1h10.8v.4h-10.8zm0 1.2h9.4v.4h-9.4zm0 1.2h5.7v.4h-5.7z"/>
        <path class="st6" d="M104.4 147.6c0 3.9-3.2 7.1-7.1 7.1s-7.1-3.2-7.1-7.1 3.2-7.1 7.1-7.1 7.1 3.1 7.1 7.1z"/>
        <path class="st9" d="M79.8 118.3c0-.2-.1-.3-.2-.3-.1-.1-.2-.1-.3-.1h-.5v.9c0 .1-.1.1-.1.1-.1 0-.1-.1-.1-.1v-2.1c0-.1.1-.1.1-.1h.6c.4 0 .6.3.6.6s-.2.5-.4.6h.1c.2.1.3.3.3.5 0 .1 0 .2.1.3 0 .1.1.1.1.1.1 0 .1 0 .1.1s0 .1-.1.1H80c-.1 0-.1-.1-.2-.1v-.5zm-.4-1.5h-.5v.9h.6c.3 0 .5-.2.5-.5-.1-.2-.4-.4-.6-.4zm1.1 1.3c0-.4.3-.8.7-.8.4 0 .7.3.7.7 0 .1-.1.1-.1.1h-1.3c0 .3.3.6.6.6.2 0 .4-.1.5-.3 0-.1.1-.1.1 0 .1 0 .1.1 0 .1-.2.2-.4.4-.6.4-.2-.1-.6-.4-.6-.8zm.1-.2h1.2c-.1-.3-.3-.5-.6-.5-.2.1-.5.3-.6.5zm3.3.8c0 .4-.3.7-.7.7-.1 0-.2-.1-.3-.1-.1 0-.1-.1-.1-.1 0-.1.1-.1.1-.1.1.1.2.1.3.1.3 0 .6-.3.6-.6v-.2c-.1.2-.3.3-.6.3-.4 0-.7-.4-.7-.8s.3-.8.7-.8c.2 0 .5.1.6.3v-.2c0-.1.1-.1.1-.1.1 0 .1.1.1.1l-.1 1.5zm-.1-.7c0-.4-.3-.6-.6-.6s-.6.3-.6.6.3.6.6.6c.3.1.6-.2.6-.6zm.8-1.1c0-.1 0-.1 0 0 .1-.1.1 0 .1 0v.1c0 .1-.1.1-.1.1v-.2zm0 .4c.1-.1.1 0 .1 0v1.4c0 .1-.1.1-.1.1-.1 0-.1-.1-.1-.1v-1.4zm1.6 0c.4 0 .7.4.7.8s-.3.8-.7.8c-.4 0-.7-.4-.7-.8-.1-.4.3-.8.7-.8zm0 1.4c.3 0 .6-.3.6-.6s-.3-.6-.6-.6-.6.3-.6.6.3.6.6.6zm2.4-.8c0-.3-.2-.5-.5-.5s-.5.2-.5.5v.9l-.1.1s-.1 0-.1-.1v-1.3c0-.1.1-.1.1-.1.1 0 .1.1.1.1v.2c.1-.2.3-.2.5-.2.4 0 .6.3.6.6v.8c0 .1-.1.1-.1.1-.1 0-.1-.1-.1-.1l.1-1zm2.1-.6v1.4c0 .1-.1.1-.1.1-.1 0-.1-.1-.1-.1v-.2c-.2.2-.4.3-.6.3-.4 0-.7-.4-.7-.8s.3-.8.7-.8c.3 0 .5.1.6.3v-.2h.2zm-.2.8c0-.4-.3-.6-.6-.6s-.6.3-.6.6.3.6.6.6c.4 0 .6-.3.6-.6zm.9-1.4s.1 0 0 0c.1-.1.1 0 .1 0v2.1c0 .1-.1.1-.1.1-.1 0-.1-.1-.1-.1v-2.1zm.7 1l.7-.1c.1 0 .1 0 .1.1s-.1.1-.1.1l-.7-.1c0 .1 0 .1 0 0zm1.9 1.1l-.6-1.4c0-.1 0-.1.1-.1s.1 0 .1.1l.5 1.2.4-.8c0-.1.1-.1.1-.1.1 0 .1 0 .1.1l.4.8.5-1.2c0-.1.1-.1.1-.1.1 0 .1.1.1.1l-.6 1.4s0 .1-.1.1H95s-.1 0-.1-.1l-.4-.8-.4.8H94zm2-1.9c0-.1 0-.1 0 0 .1-.1.1 0 .1 0v.1c0 .1-.1.1-.1.1v-.2zm0 .4c.1-.1.1 0 .1 0v1.4c0 .1-.1.1-.1.1-.1 0-.1-.1-.1-.1v-1.4zm.8 1.2c0-.1.1-.1.1 0 .1.1.3.2.5.2.1 0 .2-.1.3-.1.1-.1.1-.1.1-.2s-.1-.1-.1-.2c-.1-.1-.2-.1-.3-.1-.2 0-.3-.1-.4-.1s-.2-.2-.2-.3.1-.2.2-.3c.1-.1.2-.1.4-.1s.3.1.5.2c.1 0 .1.1 0 .1 0 .1-.1.1-.1 0-.1-.1-.2-.2-.4-.2-.1 0-.2.1-.3.1-.1.1-.1.1-.1.2s.1.1.1.2c.1.1.2.1.3.1.2 0 .3.1.4.1.1.1.2.2.2.3 0 .1-.1.2-.2.3-.1.1-.2.1-.4.1-.3-.1-.5-.2-.6-.3 0 .1 0 .1 0 0zm1.5-.4c0-.4.3-.8.7-.8.4 0 .7.3.7.7 0 .1-.1.1-.1.1h-1.3c0 .3.3.6.6.6.2 0 .4-.1.5-.3 0-.1.1-.1.1 0 .1 0 .1.1 0 .1-.2.2-.4.4-.6.4-.2-.1-.6-.4-.6-.8zm.2-.2h1.2c-.1-.3-.3-.5-.6-.5-.3.1-.6.3-.6.5zm59.8-1.3c.3 0 .5.1.7.3.1.1.1.1 0 .1 0 .1-.1.1-.1 0-.2-.2-.4-.2-.6-.2-.5 0-1 .4-1 .9s.4.9 1 .9c.2 0 .5-.1.6-.2h.1c.1.1 0 .1 0 .1-.2.2-.4.3-.7.3-.6 0-1.2-.5-1.2-1.1.1-.6.6-1.1 1.2-1.1zm2 .7c.4 0 .7.4.7.8s-.3.8-.7.8c-.4 0-.7-.4-.7-.8s.3-.8.7-.8zm0 1.4c.3 0 .6-.3.6-.6s-.3-.6-.6-.6-.6.3-.6.6.3.6.6.6zm3.5-.8c0-.3-.2-.5-.5-.5s-.5.2-.5.5v.8s0 .1-.1.1h-.1v-.8c0-.3-.2-.5-.5-.5s-.5.2-.5.5v.8s0 .1-.1.1-.1-.1-.1-.1v-1.3c0-.1.1-.1.1-.1.1 0 .1.1.1.1v.2c.1-.2.3-.2.5-.2.3 0 .4.2.5.3.1-.2.3-.3.6-.3.4 0 .6.3.6.6v.8c0 .1-.1.1-.1.1-.1 0-.1-.1-.1-.1v-.9h.2zm.8.2v-.7c0-.1.1-.1.1-.1.1 0 .1.1.1.1v.2c.2-.2.4-.3.6-.3.4 0 .7.4.7.8s-.3.8-.7.8c-.3 0-.5-.1-.6-.3v.9c0 .1-.1.1-.1.1-.1 0-.1-.1-.1-.1v-1.4zm.2-.1c0 .3.3.6.6.6s.6-.3.6-.6-.3-.6-.6-.6c-.4.1-.6.3-.6.6zm3.2-.7v1.4c0 .1-.1.1-.1.1-.1 0-.1-.1-.1-.1v-.2c-.2.2-.4.3-.6.3-.4 0-.7-.4-.7-.8s.3-.8.7-.8c.2 0 .5.1.6.3v-.2h.2zm-.2.8c0-.4-.3-.6-.6-.6s-.6.3-.6.6.3.6.6.6c.4 0 .6-.3.6-.6zm.9-.8c.1-.1.1 0 .1 0v.2c.1-.2.3-.4.6-.4.1 0 .1.1.1.1 0 .1-.1.1-.1.1-.2 0-.3.1-.5.3-.1.2-.2.3-.2.4v.7c0 .1-.1.1-.1.1-.1 0-.1-.1-.1-.1l.2-1.4zm1.4-.4c0-.1 0-.1 0 0 .1-.1.1 0 .1 0v.1c0 .1-.1.1-.1.1v-.2zm0 .4c.1-.1.1 0 .1 0v1.4c0 .1-.1.1-.1.1-.1 0-.1-.1-.1-.1v-1.4zm.7 1.2c0-.1.1-.1.1 0 .1.1.3.2.5.2.1 0 .2-.1.3-.1.1-.1.1-.1.1-.2s-.1-.1-.1-.2c-.1-.1-.2-.1-.3-.1-.2 0-.3-.1-.4-.1s-.2-.2-.2-.3.1-.2.2-.3c.1-.1.2-.1.4-.1s.3.1.5.2c.1 0 .1.1 0 .1s-.1.1-.1 0c-.1-.1-.2-.2-.4-.2-.1 0-.2.1-.3.1-.1.1-.1.1-.1.2s.1.1.1.2.2.1.3.1c.2 0 .3.1.4.1.1.1.2.2.2.3 0 .1-.1.2-.2.3-.1.1-.2.1-.4.1l-.6-.3c0 .1 0 .1 0 0zm1.7-1.6c0-.1.1-.1 0 0 .1-.1.1 0 .1 0v.1c0 .1-.1.1-.1.1v-.2zm0 .4s.1 0 0 0c.1-.1.1 0 .1 0v1.4c0 .1-.1.1-.1.1-.1 0-.1-.1-.1-.1v-1.4zm1.6 0c.4 0 .7.4.7.8s-.3.8-.7.8c-.4 0-.7-.4-.7-.8-.1-.4.2-.8.7-.8zm0 1.4c.3 0 .6-.3.6-.6s-.3-.6-.6-.6-.6.3-.6.6.2.6.6.6zm2.4-.8c0-.3-.2-.5-.5-.5s-.5.2-.5.5v.9l-.1.1s-.1 0-.1-.1v-1.3c0-.1.1-.1.1-.1.1 0 .1.1.1.1v.2c.1-.2.3-.2.5-.2.4 0 .6.3.6.6v.8c0 .1-.1.1-.1.1-.1 0-.1-.1-.1-.1l.1-1zm2.4-.1l-.7-1v-.1c.1-.1.1 0 .1 0l.7.9.7-.9c0-.1.1-.1.1 0 .1 0 .1.1 0 .1l-.7 1v1c0 .1-.1.1-.1.1-.1 0-.1-.1-.1-.1v-1zm.8.3c0-.4.3-.8.7-.8.4 0 .7.3.7.7 0 .1-.1.1-.1.1h-1.3c0 .3.3.6.6.6.2 0 .4-.1.5-.3 0-.1.1-.1.1 0 .1 0 .1.1 0 .1-.2.2-.4.4-.6.4-.2-.1-.6-.4-.6-.8zm.1-.2h1.2c-.1-.3-.3-.5-.6-.5-.2.1-.5.3-.6.5zm3.2-.6v1.4c0 .1-.1.1-.1.1l-.1-.1v-.2c-.2.2-.4.3-.6.3-.4 0-.7-.4-.7-.8s.3-.8.7-.8c.2 0 .5.1.6.3v-.2h.2zm-.1.8c0-.4-.3-.6-.6-.6s-.6.3-.6.6.3.6.6.6.6-.3.6-.6zm.8-.8c0-.1.1-.1.1-.1l.1.1v.2c.1-.2.3-.4.6-.4.1 0 .1.1.1.1 0 .1-.1.1-.1.1-.2 0-.3.1-.5.3-.1.2-.2.3-.2.4v.7c0 .1-.1.1-.1.1-.1 0-.1-.1-.1-.1l.1-1.4zm1.4-.6s.1 0 0 0c.1-.1.1 0 .1 0v2.1c0 .1-.1.1-.1.1-.1 0-.1-.1-.1-.1v-2.1zm.9.6c.1-.1.2 0 .2 0v.8c0 .3.2.5.5.5s.5-.2.5-.5v-.9h.2v1.5c0 .4-.3.7-.7.7-.1 0-.2-.1-.3-.1-.1 0-.1-.1-.1-.1 0-.1.1-.1.1-.1.1.1.2.1.3.1.3 0 .6-.3.6-.6v-.1c-.1.2-.3.2-.5.2-.4 0-.6-.3-.6-.6l-.2-.8zm-22.2 10.6l-2.6 2.6c.6.1 1.2.4 1.7.9.6.6 1 1.5 1 2.4 0 .9-.3 1.7-1 2.4-.6.6-1.5 1-2.4 1s-1.7-.3-2.4-1c-.2-.1-.2-.4 0-.5.1-.2.4-.2.5 0 .5.5 1.2.8 1.9.8a2.732 2.732 0 0 0 2.7-2.7 2.732 2.732 0 0 0-2.7-2.7c-.1 0-.2-.1-.3-.2-.2-.2-.2-.4 0-.5l2.5-2.5h-3.8c-.2 0-.4-.2-.4-.4s.2-.4.4-.4h4.7c.2 0 .4.2.4.4 0 .1 0 .1-.1.2s-.1.1-.1.2zm2.8 4.3c0-1.3.3-2.6.9-3.5.6-.9 1.5-1.5 2.5-1.5s1.9.6 2.5 1.5c.6.9.9 2.2.9 3.5s-.4 2.6-.9 3.5c-.6.9-1.5 1.5-2.5 1.5s-1.9-.6-2.5-1.5c-.6-.9-.9-2.1-.9-3.5zm.7 0c0 1.2.3 2.3.8 3.1.5.7 1.2 1.2 1.9 1.2s1.4-.4 1.9-1.2c.5-.8.8-1.8.8-3.1 0-1.2-.3-2.3-.8-3.1-.5-.8-1.2-1.2-1.9-1.2s-1.4.4-1.9 1.2c-.5.8-.8 1.9-.8 3.1zm-8.7-7.6c0 .1-.1.2-.2.2h-1.1c-.1 0-.1 0-.1-.1-.1-.1-.1-.2 0-.3l.9-.8c.1-.1.2-.2.2-.3 0-.1-.1-.2-.1-.3-.1-.1-.2-.2-.3-.2s-.2.1-.3.1l-.1.1c-.1.1-.2.1-.3 0-.1-.1-.1-.2 0-.3l.1-.1c.2-.2.3-.2.5-.2s.4.1.6.3c.2.2.2.3.2.5s-.1.4-.3.6l-.6.5h.7c.1.1.2.2.2.3zm.4-1c0-.3.1-.5.2-.7.2-.2.3-.4.6-.4s.5.2.6.4c.2.2.2.5.2.7 0 .3-.1.5-.2.7-.2.2-.3.4-.6.4s-.5-.2-.6-.4c-.1-.1-.2-.4-.2-.7zm1.3 0c0-.2-.1-.4-.2-.6-.1-.2-.2-.2-.3-.2s-.2.1-.3.2c-.1.2-.2.3-.2.6 0 .2.1.4.2.6.1.2.2.2.3.2s.2-.1.3-.2c.1-.1.2-.3.2-.6zm1.6-.9v1.8c0 .1-.1.2-.2.2s-.2-.1-.2-.2V123l-.1.1h-.1s-.1-.1-.2-.1c-.1-.1 0-.2.1-.2l.4-.2.3.1zm.4.6c0-.4.4-.8.8-.8s.7.3.7.7v.2c0 .2-.1.4-.1.6-.1.2-.2.4-.4.5-.2.1-.3.2-.5.2-.1 0-.2-.1-.2-.2s.1-.2.2-.2.2-.1.3-.1c.1-.1.2-.1.2-.2l.1-.1c-.1.1-.2.1-.3.1-.4 0-.8-.3-.8-.7zm.4 0c0 .2.2.4.4.4s.4-.2.4-.4-.2-.4-.4-.4c-.3 0-.4.2-.4.4zm1.7.5c0-.1.1-.2.2-.2h.6c.1 0 .2.1.2.2s-.1.2-.2.2h-.6c-.2 0-.2-.1-.2-.2zm2.6.8c0 .1-.1.2-.2.2h-1.1c-.1 0-.1 0-.1-.1-.1-.1-.1-.2 0-.3l.9-.8c.1-.1.2-.2.2-.3 0-.1-.1-.2-.1-.3-.1-.1-.2-.2-.3-.2s-.2.1-.3.1v.1c-.1.1-.2.1-.3 0-.1-.1-.1-.2 0-.3l.1-.1c.2-.2.3-.2.5-.2s.4.1.6.3c.2.2.2.3.2.5s-.1.4-.3.6l-.6.5h.7c.1.1.1.2.1.3zm.5-1c0-.3.1-.5.2-.7.2-.2.3-.4.6-.4s.5.2.6.4c.2.2.2.5.2.7 0 .3-.1.5-.2.7-.2.2-.3.4-.6.4s-.5-.2-.6-.4c-.1-.1-.2-.4-.2-.7zm1.2 0c0-.2-.1-.4-.2-.6-.1-.2-.2-.2-.3-.2-.1 0-.2.1-.3.2-.1.2-.2.3-.2.6 0 .2.1.4.2.6.1.2.2.2.3.2.1 0 .2-.1.3-.2.2-.1.2-.3.2-.6zm2.4 1c0 .1-.1.2-.2.2h-1.1c-.1 0-.1 0-.1-.1-.1-.1-.1-.2 0-.3l.9-.8c.1-.1.2-.2.2-.3 0-.1-.1-.2-.1-.3-.1-.1-.2-.2-.3-.2s-.2.1-.3.1l-.1.1c-.1.1-.2.1-.3 0-.1-.1-.1-.2 0-.3l.1-.1c.2-.2.3-.2.5-.2s.4.1.6.3c.2.2.2.3.2.5s-.1.4-.3.6l-.6.5h.7c.2.1.2.2.2.3zm.5-1c0-.3.1-.5.2-.7.2-.2.3-.4.6-.4s.5.2.6.4c.2.2.2.5.2.7 0 .3-.1.5-.2.7-.2.2-.3.4-.6.4s-.5-.2-.6-.4c-.2-.1-.2-.4-.2-.7zm1.2 0c0-.2-.1-.4-.2-.6-.1-.2-.2-.2-.3-.2-.1 0-.2.1-.3.2-.1.2-.2.3-.2.6 0 .2.1.4.2.6.1.2.2.2.3.2.1 0 .2-.1.3-.2.1-.1.2-.3.2-.6z"/>
        <path class="st0" d="M194.1 116.1h7.7v21.4h-7.7z"/>
        <path class="st11" d="M194.1 127.8h7.7v9.7h-7.7z"/>
        <path class="st0" d="M205 116.1h7.7v21.4H205z"/>
        <path class="st4" d="M205 122h7.7v15.6H205z"/>
        <path class="st9" d="M231.8 116.6c.3 0 .5.1.7.3.1.1.1.1 0 .1 0 .1-.1.1-.1 0-.2-.2-.4-.2-.6-.2-.5 0-1 .4-1 .9s.4.9 1 .9c.2 0 .5-.1.6-.2h.1c.1.1 0 .1 0 .1-.2.2-.4.3-.7.3-.6 0-1.2-.5-1.2-1.1 0-.6.5-1.1 1.2-1.1zm1.2.1s.1 0 0 0c.1-.1.1 0 .1 0v2.1c0 .1-.1.1-.1.1-.1 0-.1-.1-.1-.1v-2.1zm.8.2c0-.1 0-.1 0 0 .1-.1.2 0 .2 0v.1c0 .1-.1.1-.1.1s-.1-.1-.1-.2zm0 .4c.1-.1.2 0 .2 0v1.4c0 .1-.1.1-.1.1l-.1-.1v-1.4zm.8.7c0-.4.4-.8.8-.8.2 0 .4.1.5.2.1 0 .1.1 0 .1 0 .1-.1.1-.1 0-.1-.1-.3-.2-.4-.2-.4 0-.6.3-.6.6s.3.6.6.6c.2 0 .3-.1.4-.2h.1c.1.1 0 .1 0 .1-.1.1-.3.2-.5.2-.5.2-.8-.1-.8-.6zm1.8-1.3s.1 0 0 0c.1-.1.2 0 .2 0v1.5l.9-.9c.1-.1.1-.1.1 0s.1.1 0 .1l-.6.6.6.7c.1.1 0 .1 0 .1h-.1s-.1 0-.1-.1l-.6-.7-.3.3v.4c0 .1-.1.1-.1.1l-.1-.1v-2zm3.9 1.6c0-.2-.1-.3-.2-.3-.1-.1-.2-.1-.3-.1h-.5v.9c0 .1-.1.1-.1.1l-.1-.1v-2.1c0-.1.1-.1.1-.1h.6c.4 0 .6.3.6.6s-.2.5-.4.6h.1c.2.1.3.3.3.5 0 .1 0 .2.1.3 0 .1.1.1.1.1.1 0 .1 0 .1.1s0 .1-.1.1h-.1c-.1 0-.1-.1-.2-.1v-.5zm-.4-1.5h-.5v.9h.6c.3 0 .5-.2.5-.5-.2-.2-.4-.4-.6-.4zm2.6.5v1.4c0 .1-.1.1-.1.1-.1 0-.1-.1-.1-.1v-.2c-.2.2-.4.3-.6.3-.4 0-.7-.4-.7-.8s.3-.8.7-.8c.2 0 .5.1.6.3v-.2h.2c-.1 0 0 0 0 0zm-.2.8c0-.4-.3-.6-.6-.6s-.6.3-.6.6.3.6.6.6.6-.3.6-.6zm1.4-.8c0 .1-.1.1 0 0l-.3.1v1.1c0 .1.1.1.1.1l.1.1c0 .1-.1.1-.1.1-.2 0-.3-.1-.3-.3v-1.1h-.2c-.1 0-.1-.1-.1-.1 0-.1 0-.1.1-.1h.2v-.6c0-.1.1-.1.1-.1.1 0 .1.1.1.1v.6h.2c0 .1.1.1.1.1zm.4.8c0-.4.3-.8.7-.8.4 0 .7.3.7.7 0 .1-.1.1-.1.1h-1.3c0 .3.3.6.6.6.2 0 .4-.1.5-.3 0-.1.1-.1.1 0 .1 0 .1.1 0 .1-.2.2-.4.4-.6.4-.2-.1-.6-.4-.6-.8zm.2-.2h1.2c-.1-.3-.3-.5-.6-.5-.3.1-.6.3-.6.5zm25.1 18.1c.4 0 .7.3.7.7 0 .4-.3.7-.7.7-.4 0-.7-.3-.7-.7 0-.3.3-.7.7-.7zm0 1.5c.3 0 .6-.3.6-.6 0-.4-.3-.6-.6-.6s-.6.3-.6.6c0 .2.2.6.6.6zm1.1-.5v-.5c0-.1 0-.1.1-.1s.1 0 .1.1v.2c.1-.1.2-.2.4-.2.3 0 .5.2.5.5s-.2.5-.5.5c-.2 0-.3-.1-.4-.2v.6c0 .1 0 .1-.1.1s-.1 0-.1-.1v-.9zm.1 0c0 .2.2.4.4.4s.4-.2.4-.4-.2-.4-.4-.4-.4.2-.4.4zm1.2 0c0-.3.2-.5.5-.5s.5.2.5.5c0 .1 0 .1-.1.1h-.8c0 .2.2.4.4.4s.3-.1.3-.2c0 0 .1-.1.1 0 0 0 .1.1 0 .1-.1.2-.3.2-.4.2-.3 0-.5-.3-.5-.6zm.1-.1h.8c-.1-.2-.2-.3-.4-.3s-.4.2-.4.3zm2 0c0-.2-.2-.3-.3-.3s-.3.2-.3.3v.6h-.1s-.1 0-.1-.1v-1c0-.1 0-.1.1-.1s.1 0 .1.1v.1c.1-.1.2-.2.3-.2.2 0 .4.2.4.4v.6c0 .1 0 .1-.1.1s-.1 0-.1-.1l.1-.4zm6.8-.9c.2 0 .4.1.5.2 0 0 .1.1 0 .1 0 0-.1.1-.1 0-.1-.2-.3-.2-.4-.3-.4.1-.7.3-.7.7 0 .4.3.6.7.6.2 0 .3-.1.4-.2h.1v.1c-.1.1-.3.2-.5.2-.4 0-.8-.3-.8-.7 0-.3.4-.7.8-.7zm.8.1c.1-.1.1-.1.1 0v1.4c0 .1 0 .1-.1.1s-.1 0-.1-.1l.1-1.4zm.5.1c.1-.1.1-.1.1 0v.1c0 .1 0 .1-.1.1v-.2zm0 .4c0-.1 0-.1 0 0 .1-.1.1-.1.1 0v.9c0 .1 0 .1-.1.1s-.1 0-.1-.1l.1-.9zm.5.4c0-.3.2-.5.5-.5.1 0 .3.1.3.1v.1h-.1c-.1-.1-.2-.1-.3-.1-.3 0-.4.2-.4.4s.2.4.4.4c.1 0 .2-.1.3-.1h.1v.1c-.1.1-.2.1-.3.1-.2.1-.5-.2-.5-.5zm1.3-.9c.1-.1.1-.1.1 0v1l.6-.6h.1v.1l-.4.4.4.5v.1h-.2l-.4-.5-.2.2v.2c0 .1 0 .1-.1.1s-.1 0-.1-.1l.2-1.4zm-52.7.5l4.7-4.2c.6-.5.8-1.2.8-1.9 0-.6-.2-1.2-.7-1.7-.5-.6-1.2-.8-1.9-.8-.6 0-1.3.2-1.7.6l-.5.4c-.2.2-.4.1-.5 0-.2-.2-.1-.4 0-.5l.5-.5c.6-.6 1.4-.8 2.2-.8.9 0 1.7.3 2.4 1.1.6.6.8 1.4.8 2.2 0 .9-.4 1.8-1.1 2.4l-4 3.6h4.7c.2 0 .4.2.4.4s-.2.3-.4.3h-5.7c-.1 0-.2-.1-.3-.1.2-.1.2-.4.3-.5zm13.7-1.5h-5.5c-.1 0-.2 0-.2-.1-.2-.1-.2-.3-.1-.5l5.8-7.2c.1-.2.3-.2.5-.1.1.1.1.1.1.2v7h.7c.2 0 .4.2.4.3 0 .2-.2.3-.4.3h-.6v1.7c0 .2-.2.3-.4.3s-.4-.2-.4-.3l.1-1.6zm0-.6v-5.8l-4.7 5.8h4.7z"/>
        <path class="st0" d="M267.5 116.1h7.7v18.7h-7.7z"/>
        <path class="st11" d="M267.5 120.5h7.7v14.3h-7.7z"/>
        <path class="st0" d="M278.4 116.1h7.7v18.7h-7.7z"/>
        <path class="st4" d="M278.4 124.5h7.7v10.3h-7.7z"/>
        <path class="st9" d="M157.3 156l1.2-.1c.1 0 .1.1.1.1 0 .1-.1.1-.1.1h-1.1v.9h.9c.1 0 .1.1.1.1l-.1.1h-.9v.9h1.1c.1 0 .1.1.1.1 0 .1-.1.1-.1.1h-1.1c-.1 0-.1-.1-.1-.1V156zm4 1.3c0-.3-.2-.5-.5-.5s-.5.2-.5.5v.8s0 .1-.1.1h-.1v-.8c0-.3-.2-.5-.5-.5s-.5.2-.5.5v.8s0 .1-.1.1-.1-.1-.1-.1v-1.3c0-.1.1-.1.1-.1.1 0 .1.1.1.1v.2c.1-.2.3-.2.5-.2.3 0 .4.2.5.3.1-.2.3-.3.6-.3.4 0 .6.3.6.6v.8c0 .1-.1.1-.1.1-.1 0-.1-.1-.1-.1v-.9h.2zm2.1-.6v1.4c0 .1-.1.1-.1.1-.1 0-.1-.1-.1-.1v-.2c-.2.2-.4.3-.6.3-.4 0-.7-.4-.7-.8s.3-.8.7-.8c.3 0 .5.1.6.3v-.2h.2c0-.1 0-.1 0 0zm-.1.7c0-.4-.3-.6-.6-.6s-.6.3-.6.6c0 .4.3.6.6.6s.6-.3.6-.6zm.8-1.2s.1 0 0 0c.1-.1.1 0 .1 0v.1c0 .1-.1.1-.1.1v-.2zm0 .5c0-.1.1-.1 0 0 .1-.1.1 0 .1 0v1.4c0 .1-.1.1-.1.1-.1 0-.1-.1-.1-.1v-1.4zm.8-.7s.1 0 0 0c.1-.1.1 0 .1 0v2.1c0 .1-.1.1-.1.1-.1 0-.1-.1-.1-.1V156zm1.7 1.7c0-.1.1-.1.1 0 .2.2.4.3.7.3.2 0 .4-.1.5-.2.1-.1.2-.2.2-.3s-.1-.2-.2-.3c-.1-.1-.3-.2-.5-.2-.2-.1-.4-.1-.5-.2s-.2-.2-.2-.4.1-.3.2-.4c.2-.1.3-.2.5-.2.3 0 .5.2.7.3.1 0 .1.1 0 .1 0 .1-.1.1-.1 0-.2-.1-.4-.2-.6-.2-.2 0-.3.1-.5.2-.1.1-.2.2-.2.3s.1.2.2.3c.1.1.3.1.5.2s.4.1.6.2c.2.1.3.3.3.4s-.1.3-.3.4-.4.2-.6.2c-.3 0-.6-.2-.8-.3 0-.1-.1-.1 0-.2zm2.1-1c0-.1.1-.1 0 0 .1-.1.1 0 .1 0v.8c0 .3.2.5.5.5s.5-.2.5-.5v-.8c0-.1.1-.1.1-.1.1 0 .1.1.1.1v.8c0 .4-.3.6-.6.6-.4 0-.6-.3-.6-.6v-.8h-.1zm2 .7v-.7c0-.1.1-.1.1-.1.1 0 .1.1.1.1v.2c.2-.2.4-.3.6-.3.4 0 .7.4.7.8s-.3.8-.7.8c-.3 0-.5-.1-.6-.3v.9c0 .1-.1.1-.1.1-.1 0-.1-.1-.1-.1v-1.4zm.1 0c0 .3.3.6.6.6s.6-.3.6-.6-.3-.6-.6-.6-.6.2-.6.6zm2 0v-.7c0-.1.1-.1.1-.1.1 0 .1.1.1.1v.2c.2-.2.4-.3.6-.3.4 0 .7.4.7.8s-.3.8-.7.8c-.3 0-.5-.1-.6-.3v.9c0 .1-.1.1-.1.1-.1 0-.1-.1-.1-.1v-1.4zm.1 0c0 .3.3.6.6.6s.6-.3.6-.6-.3-.6-.6-.6-.6.2-.6.6zm2.6-.8c.4 0 .7.4.7.8s-.3.8-.7.8c-.4 0-.7-.4-.7-.8s.3-.8.7-.8zm0 1.4c.3 0 .6-.3.6-.6s-.3-.6-.6-.6-.6.3-.6.6.3.6.6.6zm1.2-1.3c0-.1.1-.1 0 0 .1-.1.1 0 .1 0v.2c.1-.2.3-.4.6-.4.1 0 .1.1.1.1 0 .1-.1.1-.1.1-.2 0-.3.1-.5.3-.1.2-.2.3-.2.4v.7c0 .1-.1.1-.1.1-.1 0-.1-.1-.1-.1l.2-1.4zm2 0s-.1 0 0 0l-.3.1v1.1c0 .1.1.1.1.1l.1.1c0 .1-.1.1-.1.1-.2 0-.3-.1-.3-.3v-1.1h-.2c-.1 0-.1-.1-.1-.1 0-.1 0-.1.1-.1h.2v-.6c0-.1.1-.1.1-.1.1 0 .1.1.1.1v.6h.2l.1.1zm-20.8 18.9c-.2-.2-.2-.4 0-.5.2-.2.4-.2.5 0 .5.5 1.2.8 1.9.8a2.732 2.732 0 0 0 2.7-2.7 2.732 2.732 0 0 0-2.7-2.7c-.7 0-1.4.3-1.9.8-.2.2-.4.2-.5 0l-.1-.1v-.2l.5-4c0-.1.1-.2.2-.3.1-.1.2-.1.2-.1h4.6c.2 0 .4.2.4.4s-.2.4-.4.4H159l-.4 2.9c.5-.3 1.1-.5 1.7-.5.9 0 1.7.3 2.4 1 .7.6 1 1.5 1 2.4s-.3 1.7-1 2.4c-.6.6-1.5 1-2.4 1-.8-.1-1.7-.4-2.4-1zm8.6-4c0-1.3.3-2.6.9-3.5.6-.9 1.5-1.5 2.5-1.5s1.9.6 2.5 1.5c.6.9.9 2.2.9 3.5 0 1.3-.4 2.6-.9 3.5-.6.9-1.5 1.5-2.5 1.5s-1.9-.6-2.5-1.5c-.6-1-.9-2.2-.9-3.5zm.7 0c0 1.2.3 2.3.8 3.1.5.7 1.2 1.2 1.9 1.2s1.4-.4 1.9-1.2c.5-.8.8-1.8.8-3.1 0-1.2-.3-2.3-.8-3.1s-1.2-1.2-1.9-1.2-1.4.4-1.9 1.2c-.5.8-.8 1.8-.8 3.1zm17.9-7.2l-.1-1.4c0-.1 0-.1.1-.1h.3c.4 0 .7.3.7.7 0 .4-.3.7-.7.7l-.3.1zm.3-.1c.4 0 .6-.3.6-.6 0-.4-.3-.6-.6-.6h-.2v1.3l.2-.1zm1.1-.5c0-.3.2-.5.5-.5s.5.2.5.5c0 .1 0 .1-.1.1h-.8c0 .2.2.4.4.4s.3-.1.3-.2c0 0 .1-.1.1 0 0 0 .1.1 0 .1-.1.2-.3.2-.4.2-.3 0-.5-.3-.5-.6zm.1-.1h.8c-.1-.2-.2-.3-.4-.3s-.4.2-.4.3zm1.2-.8c.1-.1.1-.1.1 0v1.4c0 .1 0 .1-.1.1s-.1 0-.1-.1v-1.4zm.6.1c.1-.1.1-.1.1 0v.1c0 .1 0 .1-.1.1s0-.1 0-.2zm0 .4c0-.1 0-.1 0 0 .1-.1.1-.1.1 0v.9c0 .1 0 .1-.1.1s-.1 0-.1-.1v-.9zm.9.9l-.4-.9v-.1s.1 0 .1.1l.4.8.4-.8.1-.1s.1.1 0 .1l-.6.9c0 .1 0 .1 0 0 0 .1 0 .1 0 0 0 .1 0 .1 0 0 0 .1 0 .1 0 0zm.7-.5c0-.3.2-.5.5-.5s.5.2.5.5c0 .1 0 .1-.1.1h-.8c0 .2.2.4.4.4s.3-.1.3-.2c0 0 .1-.1.1 0 0 0 .1.1 0 .1-.1.2-.3.2-.4.2-.2 0-.5-.3-.5-.6zm.2-.1h.8c-.1-.2-.2-.3-.4-.3-.3 0-.4.2-.4.3zm1.1-.3s.1-.1 0 0c.1-.1.1-.1.1 0v.2c.1-.1.2-.3.4-.3.1 0 .1 0 .1.1s0 .1-.1.1c-.2 0-.2.1-.3.2-.1.1-.1.2-.1.3v.5c0 .1 0 .1-.1.1s-.1 0-.1-.1l.1-1.1zm.8.4c0-.3.2-.5.5-.5s.5.2.5.5c0 .1 0 .1-.1.1h-.8c0 .2.2.4.4.4s.3-.1.3-.2c0 0 .1-.1.1 0 0 0 .1.1 0 .1-.1.2-.3.2-.4.2-.3 0-.5-.3-.5-.6zm.1-.1h.8c-.1-.2-.2-.3-.4-.3s-.4.2-.4.3zm2.1.5c-.1.1-.2.2-.4.2-.3 0-.5-.2-.5-.5s.2-.5.5-.5c.2 0 .3.1.4.2v-.6c0-.1 0-.1.1-.1s.1 0 .1.1v1.4c0 .1 0 .1-.1.1s-.1 0-.1-.1v-.2zm0-.4c0-.3-.2-.4-.4-.4s-.4.2-.4.4.2.4.4.4c.2.1.4-.2.4-.4z"/>
        <path class="st0" d="M184.8 160.4H214v.9h-29.2z"/>
        <path class="st11" d="M184.8 160.4h15.4v.9h-15.4z"/>
        <path class="st9" d="M185.9 159.6c0 .1-.1.1-.1.1h-.7c-.1 0-.1 0-.1-.1s-.1-.1 0-.2l.6-.6c.1-.1.1-.1.1-.2s0-.1-.1-.2-.1-.1-.2-.1-.1 0-.2.1l-.1.1c-.1.1-.1.1-.2 0s-.1-.1 0-.2l.1-.1c.1-.1.2-.1.3-.1.2 0 .3.1.4.2.1.1.1.2.1.3 0 .2-.1.3-.2.4l-.4.4h.5l.2.2zm1.1-.7c.1.1.2.2.2.4s-.1.3-.2.4c-.1.1-.2.2-.4.2s-.3-.1-.4-.2c-.1-.1-.1-.1 0-.2s.1-.1.2 0 .1.1.2.1.2-.1.2-.1.1-.1.1-.2-.1-.2-.1-.2-.1-.1-.2-.1-.1 0-.1-.1c-.1-.1-.1-.1 0-.2l.2-.2h-.3c-.1 0-.1-.1-.1-.1l.1-.1h.6c.1 0 .1.1.1.1v.2l-.3.3c.1-.1.2-.1.2 0zm-2 14.8c.2.1.4.2.5.2.1 0 .3-.1.3-.1.1-.1.1-.2.1-.2 0-.1-.1-.2-.1-.2-.1-.1-.2-.1-.3-.1-.2 0-.3-.1-.4-.1s-.2-.2-.2-.3.1-.2.2-.3c.1-.1.2-.1.4-.1s.3.1.5.2c0 0 .1.1 0 .1 0 0-.1.1-.1 0-.1-.1-.3-.2-.4-.2-.1 0-.2.1-.3.1-.1.1-.1.1-.1.2s.1.1.1.2c.1.1.2.1.3.1.2.1.3.1.4.2.1.1.2.2.2.3s-.1.2-.2.3c-.1.1-.2.1-.4.1s-.4-.1-.5-.2v-.2zm1.4-.2c0-.3.2-.5.5-.5s.5.2.5.5c0 .1 0 .1-.1.1h-.8c0 .2.2.4.4.4s.3-.1.3-.2c0 0 .1-.1.1 0 0 0 .1.1 0 .1-.1.2-.3.2-.4.2-.3-.2-.5-.4-.5-.6zm.1-.1h.8c-.1-.2-.2-.3-.4-.3s-.4.1-.4.3zm2 0c0-.2-.2-.3-.3-.3-.2 0-.3.2-.3.3v.6h-.1s-.1 0-.1-.1v-1c0-.1 0-.1.1-.1s.1 0 .1.1v.1c.1-.1.2-.2.3-.2.2 0 .4.2.4.4v.6c0 .1 0 .1-.1.1s-.1 0-.1-.1l.1-.4zm1.3.4c-.1.1-.2.2-.4.2-.3 0-.5-.2-.5-.5s.2-.5.5-.5c.2 0 .3.1.4.2v-.6c0-.1 0-.1.1-.1s.1 0 .1.1v1.4c0 .1 0 .1-.1.1s-.1 0-.1-.1v-.2zm0-.3c0-.3-.2-.4-.4-.4s-.4.2-.4.4.2.4.4.4c.2-.1.4-.2.4-.4zm-3.9-4.2c0 .1-.1.1-.1.1h-.7c-.1 0-.1 0-.1-.1s-.1-.1 0-.2l.6-.6c.1-.1.1-.1.1-.2s0-.1-.1-.2-.1-.1-.2-.1-.1 0-.2.1l-.1.1c-.1.1-.1.1-.2 0s-.1-.1 0-.2l.1-.1c.1-.1.2-.1.3-.1.2 0 .3.1.4.2.1.1.1.2.1.3 0 .2-.1.3-.2.4l-.4.4h.5c.1.1.2.1.2.2zm1.2-1.2l-.5 1.3c0 .1-.1.1-.1.1h-.1c-.1-.1-.1-.1-.1-.2l.5-1.1h-.5c-.1 0-.1-.1-.1-.1l.1-.1h.8v.1z"/>
        <path class="st0" d="M184.8 170.1H214v.9h-29.2z"/>
        <path class="st4" d="M184.8 170.1h20.7v.9h-20.7z"/>
        <path class="st9" d="M230.6 157.7c0-.1.1-.1.1 0 .2.2.4.3.7.3.2 0 .4-.1.5-.2.1-.1.2-.2.2-.3s-.1-.2-.2-.3c-.1-.1-.3-.2-.5-.2-.2-.1-.4-.1-.5-.2s-.2-.2-.2-.4.1-.3.2-.4c.2-.1.3-.2.5-.2.3 0 .5.2.7.3.1 0 .1.1 0 .1 0 .1-.1.1-.1 0-.2-.1-.4-.2-.6-.2-.2 0-.3.1-.5.2-.1.1-.2.2-.2.3s.1.2.2.3c.1.1.3.1.5.2s.4.1.6.2c.2.1.3.3.3.4s-.1.3-.3.4c-.2.1-.4.2-.6.2-.3 0-.6-.2-.8-.3v-.2zm2.1-1c0-.1.1-.1 0 0h.1v.8c0 .3.2.5.5.5s.5-.2.5-.5v-.8c0-.1.1-.1.1-.1.1 0 .1.1.1.1v.8c0 .4-.3.6-.6.6-.4 0-.6-.3-.6-.6l-.1-.8zm2 .7v-.7c0-.1.1-.1.1-.1.1 0 .1.1.1.1v.2c.2-.2.4-.3.6-.3.4 0 .7.4.7.8s-.3.8-.7.8c-.3 0-.5-.1-.6-.3v.9c0 .1-.1.1-.1.1l-.1-.1v-1.4zm.2 0c0 .3.3.6.6.6s.6-.3.6-.6-.3-.6-.6-.6c-.4 0-.6.2-.6.6zm1.9 0v-.7c0-.1.1-.1.1-.1.1 0 .1.1.1.1v.2c.2-.2.4-.3.6-.3.4 0 .7.4.7.8s-.3.8-.7.8c-.3 0-.5-.1-.6-.3v.9c0 .1-.1.1-.1.1l-.1-.1v-1.4zm.1 0c0 .3.3.6.6.6s.6-.3.6-.6-.3-.6-.6-.6-.6.2-.6.6zm2.6-.8c.4 0 .7.4.7.8s-.3.8-.7.8c-.4 0-.7-.4-.7-.8s.3-.8.7-.8zm0 1.4c.3 0 .6-.3.6-.6s-.3-.6-.6-.6-.6.3-.6.6.3.6.6.6zm1.3-1.3c0-.1.1-.1.1-.1l.1.1v.2c.1-.2.3-.4.6-.4.1 0 .1.1.1.1 0 .1-.1.1-.1.1-.2 0-.3.1-.5.3-.1.2-.2.3-.2.4v.7c0 .1-.1.1-.1.1-.1 0-.1-.1-.1-.1l.1-1.4zm1.9 0l-.3.1v1.1c0 .1.1.1.1.1l.1.1c0 .1-.1.1-.1.1-.2 0-.3-.1-.3-.3v-1.1h-.2c-.1 0-.1-.1-.1-.1 0-.1 0-.1.1-.1h.2v-.6c0-.1.1-.1.1-.1.1 0 .1.1.1.1v.6h.2c.1 0 .1.1.1.1zm-11.3 19.7c.1-.1.1 0 .1 0v1.3c0 .4.3.7.7.7.4 0 .7-.3.7-.7v-1.3c0-.1.1-.1.1-.1.1 0 .1.1.1.1v1.3c0 .5-.4.9-.9.9s-.9-.4-.9-.9v-1.3h.1zm3.6 1.2c0-.3-.2-.5-.5-.5s-.5.2-.5.5v.9l-.1.1s-.1 0-.1-.1v-1.3c0-.1.1-.1.1-.1.1 0 .1.1.1.1v.2c.1-.2.3-.2.5-.2.4 0 .6.3.6.6v.8c0 .1-.1.1-.1.1-.1 0-.1-.1-.1-.1l.1-1zm1.5-.6c.4 0 .7.4.7.8s-.3.8-.7.8c-.4 0-.7-.4-.7-.8s.3-.8.7-.8zm0 1.4c.3 0 .6-.3.6-.6 0-.4-.3-.6-.6-.6s-.6.3-.6.6.3.6.6.6zm1.3-.6v-.7c0-.1.1-.1.1-.1.1 0 .1.1.1.1v.2c.2-.2.4-.3.6-.3.4 0 .7.4.7.8s-.3.8-.7.8c-.3 0-.5-.1-.6-.3v.9c0 .1-.1.1-.1.1-.1 0-.1-.1-.1-.1v-1.4zm.2-.1c0 .3.3.6.6.6s.6-.3.6-.6-.3-.6-.6-.6c-.4.1-.6.3-.6.6zm1.8.1c0-.4.3-.8.7-.8.4 0 .7.3.7.7 0 .1-.1.1-.1.1h-1.3c0 .3.3.6.6.6.2 0 .4-.1.5-.3 0-.1.1-.1.1 0 .1 0 .1.1 0 .1-.2.2-.4.4-.6.4-.3-.1-.6-.4-.6-.8zm.1-.2h1.2c-.1-.3-.3-.5-.6-.5-.3.1-.5.3-.6.5zm3 0c0-.3-.2-.5-.5-.5s-.5.2-.5.5v.9l-.1.1s-.1 0-.1-.1v-1.3c0-.1.1-.1.1-.1.1 0 .1.1.1.1v.2c.1-.2.3-.2.5-.2.4 0 .6.3.6.6v.8c0 .1-.1.1-.1.1-.1 0-.1-.1-.1-.1l.1-1zm.7.2c0-.4.3-.8.7-.8.4 0 .7.3.7.7 0 .1-.1.1-.1.1h-1.3c0 .3.3.6.6.6.2 0 .4-.1.5-.3 0-.1.1-.1.1 0 .1 0 .1.1 0 .1-.2.2-.4.4-.6.4-.2-.1-.6-.4-.6-.8zm.2-.2h1.2c-.1-.3-.3-.5-.6-.5-.3.1-.6.3-.6.5zm3.1.6c-.2.2-.4.3-.6.3-.4 0-.7-.4-.7-.8s.3-.8.7-.8c.3 0 .5.1.6.3v-.9c0-.1.1-.1.1-.1l.1.1v2.1c0 .1-.1.1-.1.1-.1 0-.1-.1-.1-.1v-.2zm0-.4c0-.4-.3-.6-.6-.6s-.6.3-.6.6.3.6.6.6.6-.3.6-.6zm-10-5.4h-5.5c-.1 0-.2 0-.2-.1-.2-.1-.2-.3-.1-.5l5.8-7.2c.1-.2.3-.2.5-.1.1.1.1.1.1.2v7h.7c.2 0 .4.2.4.3 0 .2-.2.3-.4.3h-.7v1.7c0 .2-.2.3-.4.3s-.3-.2-.3-.3l.1-1.6zm0-.7v-5.8l-4.7 5.8h4.7zm3.7 2.1l4.7-4.2c.6-.5.8-1.2.8-1.9 0-.6-.2-1.2-.7-1.7-.5-.6-1.2-.8-1.9-.8-.6 0-1.3.2-1.7.6l-.5.4c-.2.2-.4.1-.5 0-.2-.2-.1-.4 0-.5l.5-.5c.6-.6 1.4-.8 2.2-.8.9 0 1.7.3 2.4 1.1.6.6.8 1.4.8 2.2 0 .9-.4 1.8-1.1 2.4l-4 3.6h4.7c.2 0 .4.2.4.4s-.2.3-.4.3h-5.7c-.1 0-.2-.1-.3-.1.1-.1.1-.4.3-.5z"/>
        <path class="st0" d="M271.4 157.1c-8.2 0-14.7 6.6-14.7 14.7h8.4c0-3.5 2.8-6.4 6.4-6.4 3.5 0 6.3 2.8 6.3 6.4h8.4c-.1-8.1-6.7-14.7-14.8-14.7z"/>
        <path class="st4" d="M268 157.5c-6.5 1.5-11.4 7.4-11.4 14.4h8.4c0-3 2.1-5.5 4.9-6.2l-1.9-8.2z"/>
        <path class="st7" d="M270.8 171.9l-2.8-14.4 3.9 14.2z"/>
        <path class="st0" d="M274.3 171.8c0 1.6-1.3 2.9-2.9 2.9s-2.9-1.3-2.9-2.9c0-1.6 1.3-2.9 2.9-2.9s2.9 1.3 2.9 2.9z"/>
    </g>
    <g id="Plant">
        <path class="st4" d="M314.2 177.5s-9.1-2.1-14.1-6.7-7.8-12.8-7.8-12.8 5.4 1 10.2 2.7c.8.9 2.4 2.7 3.1 4.4 0 0 .2-1.8 0-3.1 1.3.6 2.4 1.3 3.3 1.9 4.2 3.6 5.3 13.6 5.3 13.6z"/>
        <path class="st7" d="M298 162c-1.3-.8-2.5-1.7-3.7-2.6-.1-.1 0-.2.1-.1 2.4 1.4 4.7 2.9 6.9 4.5.8.5 1.5 1.1 2.3 1.7-.1-.1-.1-.2-.2-.3-.3-.5-.6-.9-.8-1.4-.6-.9-1.2-1.8-1.9-2.6-.1-.1 0-.1.1-.1.7.8 1.4 1.6 2.1 2.5.3.4.6.8.8 1.3.2.2.3.5.4.7.1.1.1.2.2.2 1.2.9 2.3 1.9 3.4 2.9.7.6 1.3 1.3 1.9 1.9-.4-1.1-.7-2.2-1.1-3.3 0-.1.1-.1.1 0 .4 1.2.8 2.3 1.2 3.5.7.7 1.4 1.5 2 2.4 0-.1 0-.1-.1-.2-.1-.4-.2-.8-.3-1.3-.2-.8-.5-1.6-.7-2.5-.6-1.6-1.3-3.3-2.5-4.6 0-.1 0-.1.1-.1 1.8 2.1 2.8 4.6 3.5 7.3l.3 1.2c.1.2.1.4.2.6.3.4.5.7.8 1.2 1.6 2.4 2.8 4.9 3.8 7.6 1.2 2.9 2.1 6.1 2.9 9.1 0 .1-.1.1-.1 0-1.8-5.3-3.6-10.7-6.6-15.5-.6-1-1.3-2-2.1-2.9-1.5-.1-3-.4-4.4-.9-1.6-.5-3.1-1.3-4.4-2.2-.8-.5-1.5-1.1-2.3-1.7-.1-.1 0-.1.1-.1 1.2 1.1 2.7 1.8 4.2 2.5s3 1.2 4.6 1.5c.7.2 1.4.3 2.1.4-.8-1.1-1.7-2.1-2.7-3l-.9-.9c-1.1-.8-2.2-1.4-3.4-1.9-1.5-.7-2.9-1.5-4.4-2.3-.8-.4-1.7-.8-2.5-1.3-.1 0 0-.1.1-.1l4.5 2.1c1.4.6 2.8 1.3 4.2 2.1.1.1.1.1.2.1-1.2-1.1-2.5-2.1-3.8-3.1-1.7-.6-2.9-1.5-4.2-2.3z"/>
        <path class="st7" d="M298.5 166.7c.7.3 1.5.6 2.2.9.7.4 1.5.8 2.2 1.2.1 0 0 .1-.1.1-.7-.4-1.5-.7-2.2-1.1-.6-.3-1.3-.7-2.1-1.1z"/>
        <path class="st4" d="M343.9 131.6s-2.6 2.9-2.7 7.6c-.1.8.1 1.9.2 3.3-3.4 1.8-5.9 5.1-5.9 5.1 1.9-1.2 4.6-1.6 6-1.4-.1.9-.2 1.8-.4 2.7-.6-.1-1.8.1-3.8.8 0 0 2-.1 3.5.7-1.6 5.2-6.5 10.5-19.8 12.7 0 0-2.6-9.1 2.4-18.7 3.8-8 20.5-12.8 20.5-12.8z"/>
        <path class="st7" d="M316.2 185.1c.2-2.2.5-4.4.8-6.6.7-4.4 1.6-8.7 2.7-13.1.5-2.1 1.2-4 1.9-5.9-.1-.4-.1-.7-.1-1.1v-1.3c0-.8.1-1.7.1-2.6.2-1.7.4-3.4.8-5 .3-.9.5-1.9.8-2.8 0-.1.1 0 .1 0-.5 1.6-.7 3.3-1 5-.3 1.6-.4 3.3-.5 5v2c.6-1.6 1.4-3.2 2.3-4.6 1.4-2.4 2.9-4.7 4.6-6.8 0-.3.1-.5.1-.7.1-.3.1-.6.2-.9.2-.6.3-1.2.5-1.8.3-1.2.8-2.4 1.2-3.6 0-.1.1 0 .1 0-.4 1.2-.6 2.4-.8 3.6-.2.6-.3 1.2-.4 1.8-.1.3-.1.6-.2.9v.1c.5-.7 1.1-1.4 1.6-2 2.5-3 5.3-5.7 8.2-8.5.4-.3.7-.7 1.1-1 .1-.1.1 0 .1.1-2.7 2.8-5.3 5.6-7.8 8.6-.6.7-1.2 1.4-1.7 2.2l.9-.6 2.4-1.5c.8-.5 1.6-.9 2.5-1.3.8-.4 1.8-.8 2.6-1.3.1 0 .1.1.1.1-.8.4-1.6.9-2.4 1.4-.8.5-1.6.9-2.4 1.5l-2.4 1.5c-.6.4-1.3.9-1.9 1.3-1.5 2-3 4.1-4.3 6.2-.8 1.4-1.5 2.7-2.2 4.2.2-.1.3-.2.5-.2.4-.2.8-.4 1.2-.5.8-.4 1.6-.7 2.4-1.1 1.5-.6 3-1.3 4.5-1.9.8-.4 1.6-.8 2.4-1.3.1 0 .1.1.1.1-2.7 1.9-5.8 3.2-8.8 4.5l-1.3.6c-.4.2-.7.3-1.1.5-.9 2-1.6 4.1-2.3 6.2-1.2 4.2-2.2 8.6-2.9 12.9-.8 4.4-1.3 8.7-1.7 13.2-.1.5-.1 1.1-.2 1.6 0 .2-.4.2-.4 0-.4-2.6-.2-4.9 0-7.1z"/>
        <path class="st7" d="M324.4 148.3c.3-1.4.6-2.7.9-4 0-.1.1 0 .1 0-.3 1.3-.6 2.6-.8 3.9-.3 1.4-.5 2.7-.7 4.1h-.1c.2-1.4.3-2.7.6-4zm5.7 3.6c.9-.6 1.9-1.1 2.9-1.6.5-.3 1-.5 1.5-.7.5-.3 1.1-.5 1.5-.7.1 0 .1.1.1.1-.5.3-.9.5-1.4.8-.5.3-1 .5-1.5.8-1 .5-1.9 1.1-2.9 1.5-.2 0-.3-.1-.2-.2z"/>
        <path d="M314.1 161.7s-8.4-2-12.3-7.7c-3.7-5.4-4.9-14.6-5-15.4.2.7 1.9 8.8 7.6 12.5 4.4 2.9 8.7 5.3 9.7 10.6z" opacity=".1" fill="#263238"/>
        <path class="st7" d="M306.3 147.1c1.5 1.4 2.6 3.1 3.1 5.1h-.1c-.6-1.8-1.6-3.6-3-5.1-.1 0 0 0 0 0z"/>
        <path class="st4" d="M314.1 161.7s-8.4-2-12.3-7.7c-3.7-5.4-4.9-14.6-5-15.4v-.1s4.1 5.7 8.3 7.2c4.2 1.6 10.2 6.6 9 16z"/>
        <path class="st7" d="M298.3 141.7c.8 1.5 1.6 3.1 2.6 4.5s2.2 2.5 3.5 3.6c1.2.9 2.4 1.7 3.5 2.6v-.1c-.2-.3-.5-.6-.7-.9l-1.5-1.8c-1.1-1.2-2.1-2.3-3.1-3.5-.5-.7-1-1.4-1.4-2.2 0-.1.1-.1.1 0 1.4 2.8 4.1 4.7 6.1 7.1.3.4.5.7.8 1.1.2.3.4.5.5.8 1.1.9 2.1 1.8 2.9 2.9-.1-.6-.2-1.1-.3-1.6-.2-.7-.5-1.5-.9-2.2 0-.1.1-.1.1-.1.4.7.7 1.4 1 2.1.2.6.3 1.2.3 1.8l1.2 1.8c-.1-.2-.1-.4-.1-.5-.2-.8-.4-1.7-.6-2.5-.4-1.7-1.1-3.3-2.1-4.7 0-.1.1-.1.1-.1 1 1.4 1.7 3 2.3 4.6.3.8.5 1.7.7 2.5.1.4.2.8.3 1.3.1.2.1.4.1.7.8 1.8 1.5 3.8 1.9 5.7.8 3.5 1.4 7.1 1.8 10.7.4 3.7.6 7.5.6 11.3 0 .5-.1.9-.1 1.4 0 .1-.2.2-.2 0-.1-1.9-.1-3.7-.3-5.6-.1-1.9-.3-3.7-.5-5.6-.4-3.6-.9-7.3-1.7-10.9-.7-3.1-1.6-6.2-3.3-8.9-.8-1.4-1.8-2.5-3.1-3.6-1.2-1.1-2.5-2-3.7-3-1.3-1-2.4-2.1-3.4-3.3-1.1-1.3-1.9-2.8-2.7-4.4-.4-.2-.6-.6-.7-1-.1 0-.1 0 0 0z"/>
        <path class="st7" d="M299.7 142.9c.5 1.2 1.2 2.2 1.9 3.3 0 0 0 .1-.1 0-.7-1.1-1.3-2.2-1.8-3.3-.1 0 0 0 0 0z"/>
        <path class="st4" d="M345 158s.2 12-7.1 15.4c-7.2 3.5-11 .6-15.9 1.7.2-.3 3.7-5.3 9.2-6.6 5.8-1.4 12.1-5.5 13.8-10.5z"/>
        <path class="st13" d="M345 158s.2 12-7.1 15.4c-7.2 3.5-11 .6-15.9 1.7.2-.1 3.7-1.9 8.2-2.4 4.6-.5 13.2-3.4 14.8-14.7z"/>
        <path class="st7" d="M321.6 175.4c.8-.8 1.8-1.4 2.8-1.9.2-.1.3-.2.5-.2l.3-.3c.2-.2.4-.4.7-.6.5-.4.9-.7 1.4-1.1 1.2-.7 2.5-1.2 3.7-1.8.1 0 .1.1.1.1-.6.3-1.2.6-1.8 1-.6.3-1.2.6-1.7 1-.5.3-.9.7-1.4 1.1-.1.1-.3.2-.4.4.8-.3 1.6-.5 2.4-.6 1.3-.3 2.6-.5 3.9-.7.6-.2 1.3-.3 1.9-.5.6-.5 1.2-.9 1.7-1.5.7-.6 1.3-1.3 1.8-2.1 0-.1.1 0 .1.1-.9 1.2-1.8 2.3-2.9 3.3.3-.1.6-.3.9-.4 2.4-1.1 4.6-2.8 6.1-5.1 0-.1.1 0 .1.1-1.3 1.9-3 3.5-4.9 4.7-1 .6-2 1.1-3.1 1.5-1.3.4-2.6.7-3.9.9-1.3.3-2.6.5-3.8.9-1.2.4-2.2.9-3.2 1.7-1.8 1.4-3.3 3.3-4.3 5.3-1.4 2.7-2 5.7-2.4 8.7 0 .1-.2.1-.2 0 .4-5.3 1.7-10.5 5.6-14z"/>
        <path class="st7" d="M330 171.5c.4-.6.9-1 1.5-1.3.7-.4 1.3-.8 1.7-1.5 0-.1.1 0 .1.1-.4.6-.9 1-1.5 1.4-.7.3-1.4.7-1.8 1.3z"/>
        <path class="st10" d="M326.2 184.2l-.4 6.6-1 20.2h-15l-1-20.2-.3-6.6z"/>
        <path class="st7" d="M326.2 184.2l-.4 6.6h-17l-.3-6.6z"/>
        <path class="st10" d="M307.4 181.5h19.8v6.3h-19.8z"/>
    </g>
    <g id="Chair">
        <path class="st1" d="M51.2 165.1l1 6.5 7.3 39.5h1.2l-5.3-39.5-.8-6.5z"/>
        <path class="st9" d="M54.6 165.1h-3.4l1 6.5h3.2z"/>
        <path class="st1" d="M28.2 211.1h1.2l7.3-39.5 1-6.5h-3.4l-.8 6.5z"/>
        <path class="st9" d="M34.3 165.1l-.8 6.5h3.2l1-6.5z"/>
        <path class="st1" d="M6.2 211.1h1.2l7.3-39.5 1.1-6.5h-3.4l-.8 6.5z"/>
        <path class="st9" d="M11.6 171.6h3.1l1.1-6.5h-3.4z"/>
        <path class="st1" d="M8.1 168.2h53.6v-5.7H41.6l-6.7-39.3H10.1z"/>
        <path class="st9" d="M8.1 168.2H11l1.9-45h-2.8z"/>
    </g>
    <path class="st7" d="M4.2 211.1l42.7-.1 42.7-.1 85.4-.1 85.4.1 42.7.1 42.7.1-42.7.1-42.7.1H89.6l-42.7-.1z" id="Floor"/>
    <g id="Character">
        <path class="st14" d="M62 220.1c-1.1.1-30.5-6.2-31.4-7.1-.1-.1.4-2.7 1.2-6.3v-.1c.5-2.3 8.7-20.6 8.7-20.6l19.1 4.8-8.3 17.1s3.6 2.5 6.7 4.8c1.9 1.4 3.6 2.7 3.9 3.2.9 1.1 1.2 4.1.1 4.2z"/>
        <path class="st0" d="M62 220.1c-1.1.1-30.5-6.2-31.4-7.1-.1-.1.4-2.7 1.2-6.3v-.1c.2-.8 1.4-3.9 2.9-7.5 3.2.8 14.4 3.5 18.5 4.7l-1.9 4.1s3.6 2.5 6.7 4.8c1.9 1.4 3.6 2.7 3.9 3.2.9 1.1 1.2 4.1.1 4.2z"/>
        <path class="st9" d="M62.1 220.2c-1.1.1-30.5-6.3-31.5-7.2-.4-.4.2-4.9 1.7-9.7l19 4.2s9.8 7.3 10.7 8.4c1 1.1 1.2 4.2.1 4.3z"/>
        <path class="st4" d="M30.6 213c.6.6 14 3.7 23.2 5.6 4.5.9 8 1.6 8.4 1.6 1.1-.1.8-3.2-.1-4.4-.4-.4-1.9-1.7-3.8-3.2-3.1-2.4-6.9-5.3-6.9-5.3l-19-4.2c-1.6 5-2.2 9.5-1.8 9.9z"/>
        <path class="st13" d="M53.7 218.6c4.5.9 8 1.6 8.4 1.6 1.1-.1.8-3.2-.1-4.4-.4-.4-1.9-1.7-3.8-3.2l-4.5 6z"/>
        <path class="st7" d="M61.9 219c-4.9-1.2-24.8-5.5-29.7-6.4-.1 0-.1 0 0 .1 4.8 1.3 24.7 5.5 29.7 6.4.1 0 .1-.1 0-.1zm-1.6-4.6c-1.2-.3-2.4 0-3.2.5-.7.5-1.5 1.3-1.7 2.3 0 .1.1.1.1 0 .7-1.8 2.8-3.1 4.8-2.8.1.1.1 0 0 0zm-7.6-6.2c-1.9-.5-4.4-.3-6 1.1-.1.1 0 .2.1.1 2-.5 3.8-.8 5.9-.9.1-.1.1-.2 0-.3z"/>
        <path class="st7" d="M54.1 209.1c-1.9-.5-4.4-.3-6 1.1-.1.1 0 .2.1.1 2-.5 3.8-.8 5.9-.9.1 0 .2-.2 0-.3zm1.4 1c-1.9-.5-4.4-.3-6 1.1-.1.1 0 .2.1.1 2-.5 3.8-.8 5.9-.9.1-.1.1-.3 0-.3z"/>
        <path class="st7" d="M56.9 211c-1.9-.5-4.4-.3-6 1.1-.1.1 0 .2.1.1 2-.5 3.8-.8 5.9-.9.1-.1.1-.3 0-.3z"/>
        <path class="st10" d="M51.8 208.3l-20.3-4.9s18.1-38.9 16.6-40.9c-.7-1-19.6-1.5-25.6-6.5-7.7-6.6-2.4-16.4-2.4-16.4l21.1-.4s-.3 4.3.5 5c.5.4 25.7 2.8 28.3 11.2 3.5 10.1-18.2 52.9-18.2 52.9z"/>
        <path class="st7" d="M52.7 204.1c-.5-.3-1.1-.4-1.7-.6l-1.8-.6c-1.2-.4-2.3-.7-3.5-1-2.4-.6-4.7-1.2-7.1-1.8-1.3-.3-3.9-.9-4.1-.9-.1 0-.1.2 0 .2 2.3.8 4.6 1.4 7 2.1 2.3.7 4.7 1.3 7.1 1.9.6.2 1.3.3 1.9.4.7.2 1.4.4 2.1.4.1.1.2-.1.1-.1zm-.9-43.3c-.4-.4-1.1-.4-1.6-.5-3.1-.5-6.1-1.1-9.1-1.6-2.8-.5-5.7-.9-8.5-1.5-2.4-.5-4.7-1.1-6.7-2.4-2-1.3-3.4-3.2-4.1-5.4-.7-2.2-.7-4.6-.5-6.8.1-.6.2-1.1.3-1.6 0-.1-.1-.1-.1 0-.8 4.2-.9 9.2 2.3 12.6 1.6 1.7 3.7 2.6 5.9 3.3 2.5.7 5.1 1.1 7.6 1.5 3.1.5 6.1 1.1 9.1 1.6 1.5.3 2.9.5 4.4.8.3.1.6.2.8.4.3.3.2.7.1 1.1l-.6 2.1c-1.7 5.5-14.1 31.9-14.4 32.5-.1.1.1.1.1.1 2.8-4.8 12.1-25.2 14-30.4.5-1.3.9-2.7 1.3-4.1.1-.8.2-1.3-.3-1.7z"/>
        <path class="st14" d="M92.2 221.7c-1.1.3-31.1-.2-32.2-.8-.2-.1-.2-2.7-.1-6.4v-.1c0-2.3-.5-22.1-.5-22.1l18.9.1.9 19.5s4.1 1.7 7.6 3.4c2.2 1.1 4.1 2 4.5 2.3 1 .8 1.9 3.7.9 4.1z"/>
        <path class="st0" d="M92.2 221.7c-1.1.3-31.1-.2-32.2-.8-.2-.1-.2-2.7-.1-6.4V213c0-1.5-.1-4.1-.1-6.7l19.2.1.3 5.5s4.1 1.7 7.6 3.4c2.2 1.1 4.1 2 4.5 2.3.9.8 1.8 3.7.8 4.1z"/>
        <path class="st4" d="M92.3 221.8c-1.1.3-31.2-.2-32.3-.9-.4-.3-.8-4.8-.3-9.8l19.4.4s11.1 5.3 12.2 6.2c1.2.8 2 3.7 1 4.1z"/>
        <path class="st7" d="M91.9 220.6c-5.1-.2-25.4-.6-30.4-.4-.1 0-.1.1 0 .1 5 .3 25.4.5 30.4.5.1-.1.1-.2 0-.2zm-2.5-4.2c-1.2-.1-2.4.5-3.1 1.2-.6.7-1.2 1.6-1.2 2.6 0 .1.1.1.1 0 .3-1.9 2.2-3.5 4.2-3.8 0 .1 0 0 0 0zm-8.7-4.5c-2-.1-4.4.6-5.7 2.2-.1.1.1.1.1.1 1.8-.9 3.6-1.5 5.6-2.1.2 0 .1-.2 0-.2z"/>
        <path class="st7" d="M82.2 212.5c-2-.1-4.4.6-5.7 2.2-.1.1.1.1.1.1 1.8-.9 3.6-1.5 5.6-2.1.2 0 .2-.2 0-.2zm1.6.6c-2-.1-4.4.6-5.7 2.2-.1.1.1.1.1.1 1.8-.9 3.6-1.5 5.6-2.1.2 0 .1-.2 0-.2zm1.5.7c-2-.1-4.4.6-5.7 2.2-.1.1.1.1.1.1 1.8-.9 3.6-1.5 5.6-2.1.2 0 .2-.2 0-.2z"/>
        <path class="st10" d="M80.1 211.3H59.3s-1.3-41.6-2.9-43.7c-1.6-2.1-31.7.5-38.2-8.6-5.9-8.2-.7-19.7-.7-19.7l23.5-.4s-.8 3.6-2.3 7.2c0 0 28.2 1.9 34 9.4 4.9 6.2 7.4 55.8 7.4 55.8z"/>
        <path class="st7" d="M42.9 144.6c-.7.1-1.4.4-2 .6-.7.3-1.4.5-2 .8-1.3.6-2.5 1.3-3.7 2-.1 0 0 .1.1.1 1.3-.6 2.6-1.2 3.9-1.7.6-.3 1.3-.5 1.9-.8.6-.3 1.3-.5 1.9-.8.1-.1 0-.2-.1-.2z"/>
        <path class="st7" d="M41.6 138.9c-.3 1.1-.5 2.1-.8 3.2-.2.5-.3.9-.5 1.4-.2.4-.4.8-.8.9-.5.1-.7-.4-.6-.8.1-.5.2-.9.3-1.4.1-.5.3-1.1.4-1.6.1-.3.1-.5.2-.8 0-.1.1-.6.1-.7h.1s.1 0 .1-.1v-.1H40c-.1.1-.1.2-.2.3-.1.3-.2.5-.3.8-.2.5-.3 1-.4 1.5-.2.5-.3 1-.4 1.5-.1.4-.2.8-.1 1.2.1.4.5.6.8.7 0 .1-.1.1-.1.1-.1.1-.1.2-.1.3-.1.1-.1.2-.1.3 0 .1 0 .1-.1.2v.2c0 .1.1.2.2.1s.1-.1.1-.2c.1-.1.1-.1.1-.2.1-.1.1-.2.1-.3.1-.1.1-.2.1-.3v-.2c.2 0 .4-.1.6-.2.3-.2.5-.6.6-.9.2-.4.3-.9.4-1.3.3-1.1.6-2.2.7-3.4-.1-.3-.2-.3-.3-.2zm-14 2.4c-.1.5-.2 1.1-.3 1.6-.1.5-.3 1-.5 1.5s-.4.9-.7 1.4c-.3.4-.7.7-1.1 1.1-.8.6-1.6 1.1-2.5 1.4-.5.2-.9.3-1.4.4-.3.1-.5.1-.7.1-.2 0-.4.1-.6.1-.1.1-.1.2 0 .2.3.2.8.1 1.1.1.4-.1.8-.1 1.2-.2.8-.2 1.6-.5 2.3-.9.7-.4 1.4-.9 1.9-1.5s.8-1.4 1.1-2.2c.2-.9.4-1.9.4-2.9-.1-.2-.2-.2-.2-.2zM79.1 207c-.6-.1-1.2-.1-1.7-.1-.6 0-1.2-.1-1.8-.1-1.2 0-2.4-.1-3.6-.1-2.5 0-4.9 0-7.4.1-1.3 0-4 .1-4.2.1-.1 0-.1.1 0 .1 2.4.1 4.9.1 7.3.2 2.4 0 4.9.1 7.3 0 .7 0 1.4-.1 2-.1.7 0 1.4 0 2.2-.1 0 .1 0 0-.1 0zm-31.7-40.5c1.5 0 2.9.1 4.4.1.7.1 1.5.1 2.2.2s1.5.2 2.2.5c.1.1.2.1.3.2.1.1.2.2.2.3.1.2.1.4.2.6.1.4.2.7.2 1.1.1.7.2 1.5.3 2.2.2 1.5.3 2.9.4 4.4.2 2.9.4 5.9.6 8.9l.2 4.4.1 4.4-.6-8.8c-.2-2.9-.4-5.9-.7-8.8-.1-1.5-.3-2.9-.4-4.4-.1-.7-.2-1.5-.3-2.2-.1-.4-.1-.7-.2-1.1-.1-.2-.1-.4-.2-.5-.1-.2-.2-.2-.3-.3-.6-.3-1.4-.4-2.1-.5s-1.5-.2-2.2-.3c-1.4-.3-2.9-.3-4.3-.4zm-7.8-20.3c1.5.1 2.9.2 4.4.3 1.5.1 2.9.3 4.4.4 2.9.4 5.8.8 8.6 1.5 2.8.6 5.6 1.6 8.4 2.6 1.4.5 2.7 1.1 4.1 1.7.6.4 1.3.7 1.8 1.2.6.5 1.1 1 1.5 1.6-.5-.5-1-1.1-1.6-1.5-.6-.4-1.2-.8-1.8-1.1-1.3-.6-2.7-1.2-4.1-1.6-2.8-.9-5.5-1.9-8.4-2.5-2.8-.7-5.7-1.2-8.6-1.6-1.4-.2-2.9-.4-4.4-.6-1.4-.1-2.9-.3-4.3-.4z"/>
        <path class="st7" d="M19.8 140.6c-.7 1.9-1.1 3.8-1.4 5.8-.2 2-.2 4 .3 5.9.4 1.9 1.3 3.8 2.6 5.2.7.7 1.5 1.3 2.4 1.7.9.5 1.8.8 2.7 1.2 3.8 1.3 7.7 1.9 11.7 2.4 3.9.5 8 .9 11.9 1.3 2 .2 3.9.4 5.9.8.5.1 1 .2 1.5.4.3.1.5.2.7.3.1.1.2.1.4.2.1.1.2.2.3.4.3.5.4.9.6 1.5.2.5.3 1 .4 1.5.4 1.9.6 3.9.9 5.9.2 2 .4 4 .6 5.9.3 4 .5 8 .7 12 .2 4 .3 8 .5 12-.2-4-.5-8-.7-12-.3-4-.5-8-.9-12-.4-3.9-.7-8-1.5-11.8-.1-.5-.2-.9-.4-1.4-.2-.5-.3-.9-.5-1.3-.1-.1-.1-.2-.2-.2-.1-.1-.2-.1-.3-.2-.2-.1-.4-.2-.7-.3-.5-.2-.9-.3-1.4-.4-1.9-.4-3.9-.6-5.9-.8-3.9-.4-8-.8-11.9-1.3-3.9-.6-8-1.2-11.7-2.5-.9-.3-1.9-.7-2.8-1.2-.9-.5-1.7-1.1-2.4-1.8-1.4-1.5-2.2-3.4-2.6-5.4-.4-2-.4-4-.1-6 .1-2 .5-4 1.3-5.8z"/>
        <path class="st14" d="M38.5 117.9c1.1 8.8 4.1 20 7 22.5 2.4 2 21 8.4 21.7 8.5 1.8.4 6.8-12.2 4.9-12.7-2.5-.6-19.3-4.3-19.9-5-.6-.7-4.2-6.6-8.2-13.5-2.8-4.6-6.2-5.2-5.5.2z"/>
        <path class="st4" d="M65.8 133.8l-6.2 13.4s-13.6-5.1-15.3-7.6c-1.6-2.5-5.3-14.8-5.8-21.3s2.7-4.9 5.2-1.4c2.5 3.4 8.6 14 8.9 14.2.1.1 13.2 2.7 13.2 2.7z"/>
        <path class="st6" d="M47.7 135.8c-.2.3-.3.7-.3 1.1.3-.3.4-.6.6-.9.2-.3.3-.7.3-1.1-.2.2-.4.5-.6.9zm16.3-2.3c-.2.2-.3.5-.4.7-.2.3-.3.7-.3 1.1.3-.3.4-.6.6-.9.1-.3.2-.5.3-.8-.1-.1-.1-.1-.2-.1zm-8.2 11.3c-.1.3-.2.5-.3.8.1 0 .1.1.1.1.2-.3.3-.5.4-.8.2-.3.3-.7.3-1.1-.1.3-.3.6-.5 1zm-12.7-19.3c-.2.4-.3.7-.3 1.1.3-.3.4-.6.6-.9.2-.3.3-.7.3-1.1-.3.2-.4.5-.6.9zm-4.3-5.3c-.1 0-.1-.1-.2-.1 0 .1.1.2.1.3.3.2.7.3 1.1.3-.3-.1-.6-.4-1-.5zm3.1 12.3c-.2-.1-.3-.2-.5-.2l.1.3c.1.1.2.1.3.2.3.2.7.3 1.1.3-.3-.3-.6-.5-1-.6zm11.8 7c-.4-.2-.7-.3-1.1-.3.3.3.6.4.9.6.4.2.7.3 1.1.3-.2-.3-.5-.4-.9-.6zm-5.7-10c-.2-.3-.3-.7-.5-1 .1.4.1.7.3 1.1.2.3.3.7.5 1-.1-.4-.2-.7-.3-1.1zm11.2 7.8c-.2-.3-.3-.7-.5-1 0 .4.1.7.3 1.1.2.3.3.7.5 1-.1-.4-.2-.8-.3-1.1zm-14.1-16.6c-.2-.4-.3-.7-.5-1 .1.4.1.7.3 1.1.2.4.3.7.5 1-.1-.3-.2-.7-.3-1.1zm8.9 11.8c-.3.2-.7.3-1 .5.4 0 .7-.2 1.1-.3.4-.1.7-.3 1-.5-.4 0-.7.1-1.1.3zm-12.2-17.7c-.1.1-.2.1-.4.1-.4.2-.7.3-1 .5.4-.1.7-.1 1.1-.3.2-.1.3-.1.5-.2-.1 0-.1 0-.2-.1z"/>
        <path class="st7" d="M57.7 143.8c.2-.4.5-.9.7-1.3.4-.9.9-1.9 1.3-2.8.4-.9.9-1.9 1.3-2.8.4-.9.8-1.9 1.3-2.8 0-.1-.1-.1-.1-.1l-1.5 2.7c-.5.9-.9 1.9-1.4 2.8-.4.9-.9 1.9-1.3 2.8-.2.5-.4.9-.6 1.5-.2.5-.4.9-.5 1.4 0 .1.1.1.1 0 .3-.4.5-.9.7-1.4zm-4.1 1c-3.9-1.7-8.5-3.8-9.4-5.3-1.6-2.5-5.3-14.8-5.8-21.3-.2-3.1.4-4.3 1.3-4.4l13.9 31zm-11.7-29.9c.6.5 1.1 1.2 1.6 1.8s1 1.3 1.4 1.9c.9 1.3 1.8 2.7 2.7 4.1.9 1.4 1.7 2.7 2.6 4.1.8 1.4 1.6 2.8 2.5 4.2l-.1-.1 5.4 1.2c1.8.4 3.6.8 5.4 1.3-1.8-.3-3.6-.7-5.4-1.1-1.8-.4-3.6-.7-5.4-1.1h-.1l-.1-.1-2.5-4.2c-.8-1.4-1.7-2.8-2.5-4.2-.8-1.4-1.7-2.7-2.6-4.1-.4-.7-.9-1.4-1.4-2-.2-.3-.5-.6-.7-.9-.3-.2-.5-.6-.8-.8z"/>
        <path class="st4" d="M43.9 145.2c-.7.6-29.2 1.3-29.3 1.1-.3-.5 7.1-26.1 19.1-34.1 2.1-1.4 5.4-.5 6.8.6.7.5 2.5 4.4 2.8 7.8.4 3.2 1.1 24.2.6 24.6z"/>
        <path class="st6" d="M34.4 116c-.2.4-.3.7-.3 1.1.3-.3.4-.6.6-.9s.3-.7.3-1.1c-.3.2-.5.6-.6.9zm-3 13.5c-.2.3-.3.7-.3 1.1.3-.3.4-.6.6-.9.2-.3.3-.7.3-1.1-.3.2-.4.5-.6.9zm12.2-4.9c-.2.3-.4.6-.5.8-.2.4-.3.7-.3 1.1.3-.3.4-.6.6-.9.1-.3.2-.5.3-.7 0-.1.1-.2.1-.3h-.2zm-8 17.7c-.2.3-.3.7-.3 1.1.3-.3.4-.6.6-.9.2-.4.3-.7.3-1.1-.3.2-.5.5-.6.9zm-15.1-7.1c-.2.3-.3.7-.3 1.1.3-.3.4-.6.6-.9.2-.3.3-.7.3-1.1-.3.3-.5.6-.6.9zm4.6-11.6c-.2.3-.3.7-.3 1.1.3-.3.4-.6.6-.9.2-.3.3-.7.3-1.1l-.6.9zm13.7-3.4c-.3-.2-.7-.3-1.1-.3.3.3.6.4.9.6.4.2.7.3 1.1.3-.2-.2-.5-.5-.9-.6zm3.1 12.3c-.3-.2-.7-.3-1.1-.3.3.3.6.4.9.6.3.2.7.3 1.1.3-.2-.3-.5-.5-.9-.6zm-1.4 12.8c.1.1.3.2.4.3.2 0 .4 0 .5-.1-.3-.1-.6-.2-.9-.2zm-13-10.2c-.3-.2-.7-.3-1.1-.3.3.3.6.4.9.6.3.2.7.3 1.1.3l-.9-.6zm.3 8.8c-.3-.2-.7-.3-1.1-.3.3.3.6.4.9.6.4.2.7.3 1.1.3l-.9-.6zm3.7-21.8c-.2-.4-.3-.7-.5-1 .1.4.2.7.3 1.1s.3.7.5 1c-.1-.4-.2-.8-.3-1.1zm5 12.6c-.2-.4-.3-.7-.5-1 0 .4.1.7.3 1.1.2.4.3.7.5 1-.1-.4-.2-.7-.3-1.1zM23.2 140c-.2-.4-.3-.7-.5-1 0 .4.1.7.3 1.1.2.3.3.7.5 1-.1-.4-.2-.7-.3-1.1zm5.3-23c-.1.2-.3.3-.4.4.1 0 .1 0 .1-.1.4-.2.7-.3 1-.5-.3.1-.5.1-.7.2zm13.3 22.1c-.4.2-.7.3-1 .5.4 0 .7-.2 1.1-.3.4-.1.7-.3 1-.5-.4.1-.7.2-1.1.3zm-17.9-9.3c-.4.2-.7.3-1 .5.4 0 .7-.1 1.1-.3s.7-.3 1-.5c-.4.1-.7.2-1.1.3zm7 9.3c-.4.2-.7.3-1 .5.4 0 .7-.2 1.1-.3.4-.2.7-.3 1-.5-.4.1-.8.2-1.1.3zM19 143.7c-.4.2-.7.3-1 .5.4 0 .7-.1 1.1-.3s.7-.3 1-.5c-.4 0-.7.1-1.1.3zm17.3-18.3c-.4.2-.7.3-1 .5.4-.1.7-.2 1.1-.3.4-.1.7-.3 1-.5-.4 0-.7.1-1.1.3zm5.5-10.6c-.1.1-.2.1-.4.1-.4.2-.7.3-1 .5.4-.1.7-.1 1.1-.3.1-.1.2-.1.4-.2 0 .1-.1 0-.1-.1z"/>
        <path class="st14" d="M30.9 113.8c-6 4.2-22.3 21.2-19.2 25.6 3.1 4.4 25.4 3.8 32 2.3 1.9-.5-3.1-13.3-5.2-13.2-1.2.1-10.8 1.5-11 .9-.2-.6 2.6-3.8 6.4-11 4.3-8.3-.3-6.5-3-4.6zm16.2 13.8c4.2.3 5.3 1 9-.6 2.4-1.1 4.2 0 2.5 2.1-2.8 3.5-8.3 4.3-10.3 4l-1.2-5.5z"/>
        <path class="st14" d="M35.4 129.2s5.2-1.6 9.7-1.7c3.1-.1 10 .4 15 8.2 1.2 1.8 1.6 5.3-1.5 2.9-2.2-1.6-3.1-3.3-4.5-4.1 0 0-.1 4.4-2 5.5-.8.5-3.2 1.8-5.2 2.5 0 0-.3-.4-.6-.9 0 0-1.9.8-4.9-.1l-6-12.3z"/>
        <path class="st14" d="M48.1 127.8c1.3 1 3.9 3.2 5.5 5.7 1.7 2.8 4.2 8.7 2.1 9.9-1.6.9-2.7-1.3-2.7-1.3s.5 2.6-1.1 3.2c-1.5.5-2.3-1.3-2.3-1.3s.1 1.7-1.5 1.8c-1.8.2-1.6-3.3-3.6-4.6-.4-.2 3.6-13.4 3.6-13.4z"/>
        <path class="st7" d="M50.2 134.9c1.1 1.2 2.7 4.4 2.7 7.3 0 .1-.1.1-.1.1-.7-3.3-2-6.2-2.6-7.4zm-2.9 1.8c.8 1.1 2.4 4.5 2.3 7.5 0 .1-.1.1-.1.1-.6-3.6-1.6-6.4-2.2-7.6 0 0 0-.1 0 0zm6.8-2.2c1.3.6 2 1.5 2.9 2.5.5.5.9 1 1.5 1.4.5.4 1.2 1 1.9.7.4-.2.5-.6.5-1s-.1-.8-.3-1.2c0 0 0-.1.1 0 .2.4.3.7.4 1.1.1.3.1.7-.1 1.1-.4.7-1.3.6-1.8.3-.4-.2-.6-.5-.9-.7-.3-.3-.6-.5-.8-.8-.5-.5-1.1-1.1-1.6-1.7-.7-.7-1.2-1.1-1.8-1.7 0 .1 0 0 0 0z"/>
        <path class="st7" d="M55.9 139.7c-.2-.8-1.4-4.3-1.8-5.2 0 0 0-.1.1 0 .8 1.2 1.9 4.1 2.2 5 .2.9.4 2 .3 2.9-.3 1.4-1.3 1.4-1.6 1.4-.4 0-.8-.2-1.2-.4-.4-.3-.7-.8-.9-1.2 0 0 0-.1.1 0 .4.6 1.1 1.3 1.8 1.4.3 0 .7-.1.9-.3.3-.3.4-.7.5-1.1 0-.8-.2-1.6-.4-2.5z"/>
        <path class="st7" d="M49.6 144.1c.2.2.4.8 1.1 1.1.4.2.9.3 1.4 0s.6-.7.8-1.2c.1-.3.1-1.4.1-1.8 0-.1.1-.1.1 0 .1.6.2 1.4.1 1.9s-.4 1-.8 1.3c-.5.3-1.1.3-1.5 0-.5-.1-1.2-.7-1.3-1.3zm-4.9-3c.2.2.4.4.5.6.2.2.3.5.5.7.3.5.5 1 .7 1.5.2.5.3 1.1.7 1.5.4.4 1 .6 1.5.4.3-.1.5-.3.6-.6s.3-.6.3-.9c0-.1.1 0 .1 0-.1.3 0 .6-.1.8-.1.3-.2.5-.4.7-.4.4-1.1.4-1.5.2-.6-.2-.9-.7-1.1-1.3-.3-.6-.4-1.2-.7-1.8-.2-.3-.3-.6-.4-.9-.4-.2-.6-.5-.7-.9z"/>
        <path class="st7" d="M42.4 141.8c.5.1 1.8.2 2.8.1.1 0 .1.1 0 .1-.4.1-1.2.1-1.5.1-.4-.1-.9-.1-1.3-.3-.1 0-.1 0 0 0z"/>
        <path class="st4" d="M35.6 128.1l4.9 14.7s-28 1.8-29.4-3.9c-1.4-5.9 13.7-21 19.2-24.9s6.7-1.5 4.6 2.7c-2 4.3-7 12.4-6.8 12.5l7.5-1.1z"/>
        <path class="st6" d="M30.9 139.1c-.4.2-.7.3-1 .5.4 0 .7-.2 1.1-.3.4-.2.7-.3 1-.5-.4.1-.8.2-1.1.3zm-7-9.3c-.4.2-.7.3-1 .5.4 0 .7-.1 1.1-.3s.7-.3 1-.5c-.4.1-.7.2-1.1.3zm4.2-12.7c-.4.2-.7.3-1 .5.4-.1.7-.1 1.1-.3.4-.2.7-.3 1-.5-.4.1-.7.2-1.1.3zm-12.7 15.2c-.2-.4-.3-.7-.5-1 .1.4.1.7.3 1.1.2.4.3.7.5 1-.1-.4-.2-.8-.3-1.1zm7.8 7.7c-.2-.4-.3-.7-.5-1 0 .4.1.7.3 1.1.2.3.3.7.5 1-.1-.4-.2-.7-.3-1.1zm13.3-5.3c-.2-.4-.3-.7-.5-1 0 .4.1.7.3 1.1.2.4.3.7.5 1-.1-.4-.2-.7-.3-1.1zm-5-12.6c-.2-.4-.3-.7-.5-1 .1.4.2.7.3 1.1.1.3.2.5.4.7.1-.1.1-.1.1-.2-.2-.2-.3-.4-.3-.6zm-16.2 16.6c-.3-.2-.7-.3-1.1-.3.3.3.6.4.9.6.3.2.7.3 1.1.3-.3-.3-.6-.4-.9-.6zm4.2-12.3c-.3-.2-.7-.3-1.1-.3.3.3.6.4.9.6.4.2.7.3 1.1.3-.2-.2-.6-.4-.9-.6zm8 8.7c-.3-.2-.7-.3-1.1-.3.3.3.6.4.9.6.3.2.7.3 1.1.3l-.9-.6zm-2.4-11.5c-.2.3-.3.7-.3 1.1.3-.3.4-.6.6-.9.2-.3.3-.7.3-1.1l-.6.9zm-4.6 11.6c-.2.3-.3.7-.3 1.1.3-.3.4-.6.6-.9.2-.3.3-.7.3-1.1-.3.3-.5.6-.6.9zm15.1 7.1c-.1.3-.2.5-.3.7h.2c.2-.2.3-.4.4-.6.2-.4.3-.7.3-1.1-.3.3-.5.6-.6 1zm-3.8-13.6c-.2.3-.3.5-.5.8-.2.3-.3.7-.3 1.1.3-.3.4-.6.6-.9.1-.3.3-.6.3-.9 0-.2 0-.1-.1-.1zm2.6-12.7c-.2.4-.3.7-.3 1.1.3-.3.4-.6.6-.9s.3-.7.3-1.1c-.3.2-.5.6-.6.9z"/>
        <path class="st7" d="M35.6 128.1c-2.4.1-4.7.6-7.1 1.1s-4.6 1.2-6.9 1.9c-1.3.5-2.5.9-3.8 1.5-.1 0 0 .1.1.1 1.2-.4 2.3-.7 3.5-1.1 1.1-.4 2.3-.7 3.4-1 2.3-.6 4.6-1.2 7-1.6 1.3-.3 2.6-.5 3.9-.7 0-.1 0-.3-.1-.2zm-.2 12.3c-.1-.5-.2-.9-.4-1.5-.3-1-.5-2-.8-3-.3-1-.6-2-.8-3l-.9-3c0-.1-.1-.1-.1 0 .2 1 .4 2 .6 3.1.3 1 .5 2.1.8 3.1l.9 3c.2.5.3 1 .5 1.5s.3.9.5 1.4c0 .1.1 0 .1 0-.1-.6-.2-1.1-.4-1.6zm5.3 2.6c-.1-.2-.1-.5-.2-.7 0-.1-.2-.1-.2 0 0 .2.1.4.1.6-1.6-.1-3.2.1-4.7.1-1.6.1-3.3.1-4.9.1-3.2-.1-6.4-.2-9.6-.5-1.8-.2-3.6-.5-5.5-.7-.1 0-.1.1 0 .1 3.2.8 6.4 1.1 9.7 1.3 3.3.2 6.5.3 9.8.2 1.8-.1 3.6 0 5.5-.2v-.3z"/>
        <path class="st7" d="M31.9 123.3c-.3.3-.6.6-.8 1-.1.1-.1.2-.2.3.5-.9.9-1.9 1.4-2.8 0-.1-.1-.1-.1 0l-2.4 3.9c-.4.6-.7 1.3-1.1 2-.2.3-.4.7-.6 1-.2.3-.4.6-.4.9 0 .1.1.1.1.1.3-.2.5-.6.6-.8.2-.3.4-.7.6-1 .4-.7.8-1.3 1.2-2 .1-.2.2-.3.3-.5.3-.3.5-.6.7-.8.3-.5.5-.9.7-1.3z"/>
        <path class="st14" d="M39.5 116.7c-1.6.3-4.4-2.2-5.4-4.2-.1-.2.7-5.5.7-6.6 0-.2 6.9 1.8 6.9 1.8s-.7 2.3-.7 4.2c-.1.2.1 4.5-1.5 4.8z"/>
        <path class="st7" d="M41.7 107.8c0 .1-.1.2-.1.4-.1.4-.3.9-.4 1.6-.2.7-.3 1.4-.3 2.2v.6c-.2 0-.4.1-.7 0-3.8-.2-4.9-4.7-5.2-6.5h.1c.2.1.4.1.7.2.1 0 .2.1.2.1.5.1 1 .3 1.6.4.2.1.4.1.6.2l1.2.3c.2.1.3.1.5.2s.3.1.5.2c.1 0 .2.1.2.1.1 0 .1 0 .1.1.2.1.4.1.6.2.1.1.2.1.3.1 0-.4.1-.4.1-.4zm.9-13s2.4.8 2.9 3.2.1 4.9-.1 5.1c-.2.1-2.8-8.3-2.8-8.3z"/>
        <path class="st14" d="M33.8 98.7c-.6 2.5 1.1 9.3 2.9 10.7 2.6 2.1 6.8 2 8.6-1.1 1.7-3-.6-12-2.7-13.2-2.9-1.9-7.8-.1-8.8 3.6z"/>
        <path class="st7" d="M41 102.2c.1.5.2 1.1-.2 1.3 0 0 0 .1 0 0 .5-.2.4-.8.2-1.3z"/>
        <path class="st7" d="M40.5 101.9c-.8.2-.4 1.6.3 1.5.7-.2.3-1.6-.3-1.5zm3.3-.2c.2.5.3 1 .8 1.1v.1c-.6-.1-.8-.8-.8-1.2z"/>
        <path class="st7" d="M44.1 101.1c.7-.2 1.2 1.3.5 1.5-.8.2-1.1-1.3-.5-1.5zm-4.2.2c.2 0 .4-.1.6-.1.3-.1.4-.1.6-.3.1-.1.1-.3 0-.4-.2-.2-.5-.3-.8-.2-.3.1-.5.2-.8.4-.1.3.1.6.4.6zm4.6-1.3h-.6c-.3 0-.4 0-.6-.2-.1-.1-.2-.3-.1-.4.2-.3.5-.3.8-.3.3 0 .6.1.8.3.1.1 0 .5-.3.6zm-2.9 6.7c.2.1.3.2.5.2s.4-.2.5-.3c0 0 .1 0 0 0-.1.2-.3.4-.5.4-.3 0-.5-.1-.5-.3-.1 0-.1 0 0 0z"/>
        <path class="st7" d="M41.7 105.1c.4.3.8.5 1.3.5.2 0 .4-.1.6-.1.1 0 .1 0 .1-.1.1 0 .1 0 .1-.1.1 0 .1-.1.1-.1v-.2c-.1-.4-.2-.9-.2-.9.2.1.9.2.8 0-.5-1.5-.9-3.2-1.7-4.6 0-.1-.1 0-.1.1.4 1.5 1 2.9 1.4 4.4-.2-.1-.6-.1-.8-.1-.1.1.3 1.1.4 1.2-.8.3-1.2.2-2 0zm-7-.4c.8.1 1.3-2.4 1.4-3.4.1-.8-.2-3.4-.2-3.6 0-.2 3.8 1.6 5.7.6 1.8-.9 2.8-3 2.7-3.8-.2-.8-3-2.5-5.2-2.2-2.2.3-4.5 3.6-4.5 3.6l.7-1.4c-.1-.1-1.3.7-1.4 1.7 0 0 .1-1.3-.1-1.3-.1 0-.9 1.3-.6 2 0 0-1 1.3-.9 2.5.3 1.2 1.4 5.2 2.4 5.3z"/>
        <path class="st7" d="M42.9 97.6c-.5.4-1.1.8-1.7 1.1-.7.2-1.5.2-2.2.1-.7-.1-1.4-.4-2.1-.7-.6-.3-1.1-.7-1.7-.9-.2-.2-.3 0-.2.1 1.1 1.1 2.6 1.8 4.1 1.9 1.6.1 2.9-.4 3.8-1.6z"/>
        <path class="st14" d="M35.8 104.2s-1.8-2.1-2.8-1.5c-1 .6.5 3.8 1.7 4.2 1.3.3 1.6-.8 1.6-.8l-.5-1.9z"/>
        <path class="st7" d="M33.4 103.7c.9.3 1.4 1.1 1.8 1.8-.3-.3-.6-.4-1.1-.1 0 0 0 .1.1.1.4-.1.6-.1.8.2.2.2.3.4.5.6.1.1.2 0 .2-.1-.1-1.1-1.1-2.5-2.3-2.5z"/>
        <path class="st0" d="M40.9 112.5l-1.7 4.1-5.1-5.2-1.5 1.6s4.9 8.2 4.9 7.8l1.7-3.5 2.4 2.4-.1-6.1-.6-1.1z"/>
        <path class="st7" d="M41.9 116.8c-.1-1-.1-2-.2-3 0-.1-.1-.1-.1 0-.2.9 0 4.8 0 5.7-.1-.1-2.3-2.2-2.3-2.1-.4.5-1.7 3.1-1.7 3.3-.8-1.3-3.7-6-4.6-7.3-.1-.1-.1 0-.1.1.7 1.4 4.6 7.7 4.6 7.7.1.1 1.6-3.1 1.8-3.7.4.4 2.5 2.7 2.5 2.6.2-1.1.2-2.3.1-3.3z"/>
        <path class="st3" d="M36.4 150.9h32.4v1.4H36.4z"/>
        <path class="st9" d="M43.3 150.9l-1.1 1.5h26.5v-1.5z"/>
        <path class="st3" d="M44.7 152.4h31.6l2.6-21H47.3z"/>
        <path class="st6" d="M59.8 141.8c0 1.1.8 1.9 1.9 1.9 1.1 0 1.9-.8 1.9-1.9s-.8-1.9-1.9-1.9c-1 .1-1.8.9-1.9 1.9z"/>
        <path class="st14" d="M78.6 133.4c1.2 1.8 4.1 3.9 4.5 5.4.4 1.4-.8 2.1-.8 2.1s1.7.6 1.8 2.1c.1.7-1.1 1.5-1.1 1.5s1.4.5 1.4 1.8c.1 1.1-1.2 1.6-1.2 1.6s1.1 1.1.7 2.2c-.6 2.2-9.7 3.3-11.5.3-.8-1.4 1.4-1.6 1.4-1.6s-3.3-.5-3.5-2.3c-.3-1.8 2.6-1.8 2.6-1.8s-3.2-.5-3.3-2.4c-.1-2 2.8-1.6 2.8-1.6s-2.2-1.1-1.9-2.6c.4-2.5 5.6.2 7.5-.6l.6-4.1z"/>
        <path class="st7" d="M83.2 148c-2.8 1.2-6.4 1.5-9.4.7-.1 0-.1-.2 0-.2 3.3.3 6.2.2 9.4-.5zm0-3.5c-2.9 1.2-7 1.4-10.3.2-.1-.1-.2-.2-.1-.2 2.4.6 7.5.5 10.4 0zm-10.9-4.1c3.3 1.1 6.6 1.1 10 .6.1 0 .1.1 0 .1-1.6.7-3.8.8-5.5.7-1.6-.1-3.1-.4-4.5-1.3-.1-.1 0-.2 0-.1z"/>
    </g>
</svg>
