<svg width="480" height="480" viewBox="0 0 500 500" xmlns="http://www.w3.org/2000/svg">
    <path d="M472 464a8 8 0 010 16H8a8 8 0 010-16h72V8a8 8 0 018-8h208a8 8 0 018 8v184h112a8 8 0 018 8v264h48zm-304 0v-72a8 8 0 00-8-8h-16a8 8 0 00-8 8v72h32zm32-264a8 8 0 018-8h80V16H96v448h24v-72c0-13.255 10.745-24 24-24h16c13.255 0 24 10.745 24 24v72h16V200zm208 264V208H216v256h192zM256 112a8 8 0 018 8v48a8 8 0 01-8 8h-48a8 8 0 01-8-8v-48a8 8 0 018-8h48zm-8 48v-32h-32v32h32zm8-128a8 8 0 018 8v48a8 8 0 01-8 8h-48a8 8 0 01-8-8V40a8 8 0 018-8h48zm-8 48V48h-32v32h32zm-72 32a8 8 0 018 8v48a8 8 0 01-8 8h-48a8 8 0 01-8-8v-48a8 8 0 018-8h48zm-8 48v-32h-32v32h32zm8-128a8 8 0 018 8v48a8 8 0 01-8 8h-48a8 8 0 01-8-8V40a8 8 0 018-8h48zm-8 48V48h-32v32h32zm8 112a8 8 0 018 8v48a8 8 0 01-8 8h-48a8 8 0 01-8-8v-48a8 8 0 018-8h48zm-8 48v-32h-32v32h32zm8 32a8 8 0 018 8v48a8 8 0 01-8 8h-48a8 8 0 01-8-8v-48a8 8 0 018-8h48zm-8 48v-32h-32v32h32zm160 48a8 8 0 01-8-8v-48a8 8 0 018-8h48a8 8 0 018 8v48a8 8 0 01-8 8h-48zm8-48v32h32v-32h-32zm-8-32a8 8 0 01-8-8v-48a8 8 0 018-8h48a8 8 0 018 8v48a8 8 0 01-8 8h-48zm8-48v32h32v-32h-32zm-8 208a8 8 0 01-8-8v-48a8 8 0 018-8h48a8 8 0 018 8v48a8 8 0 01-8 8h-48zm8-48v32h32v-32h-32zm-88-32a8 8 0 01-8-8v-48a8 8 0 018-8h48a8 8 0 018 8v48a8 8 0 01-8 8h-48zm8-48v32h32v-32h-32zm-8-32a8 8 0 01-8-8v-48a8 8 0 018-8h48a8 8 0 018 8v48a8 8 0 01-8 8h-48zm8-48v32h32v-32h-32zm-8 208a8 8 0 01-8-8v-48a8 8 0 018-8h48a8 8 0 018 8v48a8 8 0 01-8 8h-48zm8-48v32h32v-32h-32z" fill-rule="nonzero" fill="#007cc3"/>
</svg>
