<?xml version="1.0" encoding="iso-8859-1"?>
<!-- Generator: Adobe Illustrator 19.0.0, SVG Export Plug-In . SVG Version: 6.00 Build 0)  -->
<svg version="1.1" id="Capa_1" xmlns="http://www.w3.org/2000/svg" xmlns:xlink="http://www.w3.org/1999/xlink" x="0px" y="0px"
	 viewBox="0 0 480.187 480.187" style="enable-background:new 0 0 480.187 480.187;" xml:space="preserve">
<path style="fill:#DD1C4B;" d="M243.421,199.48c-62.008-62-130-94.536-151.872-72.672c-2.4,2.514-4.166,5.563-5.152,8.896
	l-0.352-0.352l-20.888,85.6l-20.8,85.344L19.701,407.352l-15.608,64l92.408-34.968l117.536-44.472l93.768-35.48l-0.112-0.112
	c3.139-1.001,6.011-2.699,8.4-4.968C337.965,329.48,305.429,261.488,243.421,199.48z"/>
<ellipse transform="matrix(-0.7071 -0.7071 0.7071 -0.7071 178.9146 552.2075)" style="fill:#D1E3EE;" cx="203.823" cy="239.049" rx="158.777" ry="56"/>
<path style="fill:#B21D48;" d="M299.293,359.2c-11.196,0.196-22.304-2.008-32.576-6.464l-76.64,29L72.501,426.168L9.453,450.024
	L4.093,472l92.408-34.968l117.536-44.472L300.093,360L299.293,359.2z"/>
<g>
	<path style="fill:#FFBF41;" d="M396.093,296c-0.958-0.003-1.908-0.174-2.808-0.504c-40.613-15.215-84.514-19.481-127.296-12.368
		l-28.576,4.76c-4.374,0.624-8.426-2.416-9.05-6.79c-0.603-4.226,2.218-8.181,6.41-8.986l28.584-4.8
		c45.554-7.569,92.297-3.03,135.544,13.16c4.158,1.494,6.317,6.076,4.823,10.234C402.57,293.918,399.506,296.044,396.093,296z"/>
	<path style="fill:#FFBF41;" d="M252.093,248c-4.418-0.026-7.979-3.629-7.953-8.047c0.018-3.05,1.768-5.824,4.513-7.153l168-80
		c3.99-1.9,8.764-0.206,10.664,3.784s0.206,8.764-3.784,10.664l0,0l-168,80C254.457,247.751,253.282,248.008,252.093,248z"/>
	<path style="fill:#FFBF41;" d="M158.541,232c-1.055,0.002-2.1-0.207-3.072-0.616c-4.078-1.701-6.005-6.385-4.304-10.463
		c0,0,0-0.001,0-0.001l11.632-27.912c17.897-42.765,22.07-90.033,11.944-135.272c-1.038-4.295,1.603-8.617,5.897-9.655
		c4.295-1.038,8.617,1.603,9.655,5.897c0.023,0.095,0.044,0.19,0.064,0.286c10.848,48.461,6.375,99.095-12.8,144.904l-11.64,27.912
		C164.675,230.057,161.767,231.997,158.541,232L158.541,232z"/>
</g>
<circle style="fill:#D5557E;" cx="436.093" cy="312" r="16"/>
<circle style="fill:#DD95C1;" cx="244.093" cy="88" r="16"/>
<path style="fill:#7FCCCB;" d="M172.093,32c-8.837,0-16-7.163-16-16s7.163-16,16-16s16,7.163,16,16S180.93,32,172.093,32z"/>
<g>
	<path style="fill:#2276BB;" d="M396.093,64c-4.418,0-8-3.582-8-8v-8c0-4.418,3.582-8,8-8s8,3.582,8,8v8
		C404.093,60.418,400.512,64,396.093,64z"/>
	<path style="fill:#2276BB;" d="M396.093,24c-4.418,0-8-3.582-8-8V8c0-4.418,3.582-8,8-8s8,3.582,8,8v8
		C404.093,20.418,400.512,24,396.093,24z"/>
	<path style="fill:#2276BB;" d="M420.093,40h-8c-4.418,0-8-3.582-8-8s3.582-8,8-8h8c4.418,0,8,3.582,8,8S424.512,40,420.093,40z"/>
	<path style="fill:#2276BB;" d="M380.093,40h-8c-4.418,0-8-3.582-8-8s3.582-8,8-8h8c4.418,0,8,3.582,8,8S384.512,40,380.093,40z"/>
</g>
<path style="fill:#FFFFFF;" d="M67.597,232c-0.896-3.424-1.696-6.88-2.44-10.4l-20.8,85.344l1.6,19.512
	c3.487,41.599,21.357,80.683,50.536,110.536l117.544-44.432c-0.64-0.2-1.304-0.344-1.944-0.56
	C140.818,365.275,86.945,305.621,67.597,232z"/>
<path style="fill:#F6F6E7;" d="M214.037,392.56c-0.64-0.2-1.304-0.344-1.944-0.56c-7.7-2.915-15.242-6.234-22.592-9.944
	L83.629,422.112c4.014,5.206,8.311,10.187,12.872,14.92L214.037,392.56z"/>
<path style="fill:#C9DA53;" d="M340.093,95.832V136h-40.168V95.832H340.093z"/>
<path style="fill:#FFBF41;" d="M196.093,240c-4.418-0.001-7.999-3.584-7.998-8.002c0.001-2.266,0.962-4.425,2.646-5.942l80-72
	c3.341-2.891,8.393-2.526,11.284,0.815c2.811,3.248,2.555,8.136-0.58,11.073l-80,72C199.977,239.267,198.07,239.999,196.093,240
	L196.093,240z"/>
<g>
	<path style="fill:#FFDB43;" d="M428.093,208c-4.418,0-8-3.582-8-8v-8c0-4.418,3.582-8,8-8s8,3.582,8,8v8
		C436.093,204.418,432.512,208,428.093,208z"/>
	<path style="fill:#FFDB43;" d="M456.381,196.28c-2.123,0.006-4.16-0.838-5.656-2.344l-5.656-5.656
		c-3.069-3.178-2.982-8.243,0.196-11.312c3.1-2.994,8.015-2.994,11.116,0l5.656,5.656c3.124,3.125,3.123,8.19-0.002,11.314
		C460.536,195.437,458.502,196.28,456.381,196.28L456.381,196.28z"/>
	<path style="fill:#FFDB43;" d="M468.093,168h-8c-4.418,0-8-3.582-8-8s3.582-8,8-8h8c4.418,0,8,3.582,8,8S472.512,168,468.093,168z"
		/>
	<path style="fill:#FFDB43;" d="M450.725,145.376c-4.418-0.001-7.999-3.583-7.998-8.002c0-2.121,0.843-4.155,2.342-5.654
		l5.656-5.656c3.178-3.07,8.242-2.982,11.312,0.196c2.994,3.1,2.994,8.015,0,11.116l-5.656,5.656
		C454.881,144.532,452.847,145.376,450.725,145.376L450.725,145.376z"/>
	<path style="fill:#FFDB43;" d="M428.093,136c-4.418,0-8-3.582-8-8v-8c0-4.418,3.582-8,8-8s8,3.582,8,8v8
		C436.093,132.418,432.512,136,428.093,136z"/>
	<path style="fill:#FFDB43;" d="M405.461,145.376c-2.122,0-4.156-0.844-5.656-2.344l-5.656-5.656
		c-3.069-3.178-2.982-8.243,0.196-11.312c3.1-2.994,8.015-2.994,11.116,0l5.656,5.656c3.124,3.125,3.123,8.19-0.002,11.314
		C409.616,144.533,407.582,145.376,405.461,145.376L405.461,145.376z"/>
	<path style="fill:#FFDB43;" d="M44.093,8l12.36,25.048l27.64,4.016l-20,19.496l4.72,27.528l-24.72-13l-24.72,13l4.72-27.528
		l-20-19.496l27.64-4.016L44.093,8z"/>
</g>
<path style="fill:#2BB3CE;" d="M473.565,433.328c-3.805-13.485-12.566-25.032-24.528-32.328l-3.296-4.944
	c-18.481-27.637-47.542-46.429-80.328-51.944c-4.374-0.624-8.426,2.416-9.05,6.79c-0.603,4.226,2.218,8.181,6.41,8.986
	c23.648,4.014,45.199,16.028,61.048,34.032c-13.325,2.397-24.979,10.4-32,21.976c-8.616,15.431-3.091,34.924,12.34,43.54
	s34.924,3.091,43.54-12.34c3.291-6.353,5.068-13.382,5.192-20.536c8.512,12.363,9.193,28.508,1.752,41.544
	c-2.254,3.8-1.001,8.708,2.799,10.962c3.8,2.254,8.708,1.001,10.962-2.799c0.072-0.122,0.141-0.245,0.207-0.371
	C475.881,462.937,477.664,447.609,473.565,433.328L473.565,433.328z M433.749,439.288c-4.27,7.737-14.003,10.547-21.739,6.277
	c-7.737-4.27-10.547-14.003-6.277-21.739c0.024-0.043,0.048-0.087,0.072-0.13c4.721-7.73,12.684-12.912,21.664-14.096
	c1.391-0.038,2.768,0.282,4,0.928C438.221,414.296,438.581,430.632,433.749,439.288z"/>
<g>
</g>
<g>
</g>
<g>
</g>
<g>
</g>
<g>
</g>
<g>
</g>
<g>
</g>
<g>
</g>
<g>
</g>
<g>
</g>
<g>
</g>
<g>
</g>
<g>
</g>
<g>
</g>
<g>
</g>
</svg>
