<?xml version="1.0" encoding="UTF-8"?>
<svg width="490px" height="428px" viewBox="0 0 490 428" version="1.1" xmlns="http://www.w3.org/2000/svg" xmlns:xlink="http://www.w3.org/1999/xlink">
    <g stroke="none" stroke-width="1" fill="#007cc3" fill-rule="evenodd">
        <g fill="#007cc3" fill-rule="nonzero">
            <path d="M347.7,232.75 C365.9,232.75 380.7,247.55 380.7,265.75 L380.7,316.75 C380.7,334.95 365.9,349.75 347.7,349.75 L281.2,349.75 C263,349.75 248.2,334.95 248.2,316.75 L248.2,265.75 C248.2,247.55 263,232.75 281.2,232.75 L347.7,232.75 Z M356.7,316.75 L356.7,265.75 C356.7,260.85 352.7,256.75 347.7,256.75 L281.2,256.75 C276.3,256.75 272.2,260.75 272.2,265.75 L272.2,316.75 C272.2,321.65 276.2,325.75 281.2,325.75 L347.7,325.75 C352.6,325.75 356.7,321.75 356.7,316.75 Z M489.4,140.05 C489.4,168.85 472,193.55 447.2,204.45 C447.3,204.85 447.3,205.25 447.3,205.75 L447.3,415.35 C447.3,421.95 441.9,427.35 435.3,427.35 L213.9,427.35 C213.8,427.35 213.7,427.35 213.6,427.35 L120.6,427.35 C120.5,427.35 120.4,427.35 120.3,427.35 L54,427.35 C47.4,427.35 42,421.95 42,415.35 L42,204.25 C17.3,193.35 0,168.75 0,140.05 C0,137.95 0.6,135.95 1.6,134.15 L74.3,6.15 C76.4,2.35 80.4,0.05 84.7,0.05 L404.6,0.05 C408.9,0.05 412.9,2.45 415,6.15 L487.8,134.15 C488.9,135.95 489.4,137.95 489.4,140.05 Z M91.7,24.15 L34.9,124.25 L454.5,124.25 L397.6,24.15 L91.7,24.15 Z M348.3,148.15 L257.5,148.15 C261.3,169.75 280.2,186.15 302.9,186.15 C325.6,186.15 344.5,169.75 348.3,148.15 Z M232,148.15 L141.1,148.15 C145,169.75 163.9,186.15 186.6,186.15 C209.3,186.15 228.2,169.75 232,148.15 Z M24.8,148.15 C28.6,169.75 47.5,186.25 70.2,186.15 C92.9,186.15 111.9,169.75 115.7,148.15 L24.8,148.15 Z M201.6,403.35 L201.7,403.35 L201.7,273.85 C201.7,264.35 194,256.75 184.6,256.75 L149.7,256.75 C140.2,256.75 132.6,264.45 132.6,273.85 L132.6,403.35 L201.6,403.35 Z M423.3,403.35 L423.3,210.15 C421.9,210.15 420.6,210.25 419.2,210.25 C395,210.25 373.6,197.95 361,179.25 C348.4,197.95 327.1,210.25 302.9,210.25 C278.8,210.25 257.4,197.95 244.8,179.25 C232.1,197.95 210.8,210.25 186.6,210.25 C162.4,210.25 141,197.95 128.4,179.25 C115.8,197.95 94.4,210.25 70.2,210.25 C68.8,210.25 67.4,210.25 66,210.15 L66,403.45 L108.5,403.45 L108.5,273.85 C108.5,251.15 127,232.75 149.6,232.75 L184.5,232.75 C207.2,232.75 225.6,251.25 225.6,273.85 L225.6,403.35 L423.3,403.35 Z M419.2,186.25 C441.9,186.25 460.8,169.75 464.7,148.25 L373.8,148.25 C377.6,169.85 396.5,186.25 419.2,186.25 Z" id="Combined-Shape"></path>
        </g>
    </g>
</svg>
