<svg width="490" height="428" viewBox="0 0 500 500" xmlns="http://www.w3.org/2000/svg">
    <path d="M347.7 232.75c18.2 0 33 14.8 33 33v51c0 18.2-14.8 33-33 33h-66.5c-18.2 0-33-14.8-33-33v-51c0-18.2 14.8-33 33-33h66.5zm9 84v-51c0-4.9-4-9-9-9h-66.5c-4.9 0-9 4-9 9v51c0 4.9 4 9 9 9h66.5c4.9 0 9-4 9-9zm132.7-176.7c0 28.8-17.4 53.5-42.2 64.4.1.4.1.8.1 1.3v209.6c0 6.6-5.4 12-12 12H54c-6.6 0-12-5.4-12-12v-211.1c-24.7-10.9-42-35.5-42-64.2 0-2.1.6-4.1 1.6-5.9l72.7-128c2.1-3.8 6.1-6.1 10.4-6.1h319.9c4.3 0 8.3 2.4 10.4 6.1l72.8 128c1.1 1.8 1.6 3.8 1.6 5.9zM91.7 24.15l-56.8 100.1h419.6l-56.9-100.1H91.7zm256.6 124h-90.8c3.8 21.6 22.7 38 45.4 38s41.6-16.4 45.4-38zm-116.3 0h-90.9c3.9 21.6 22.8 38 45.5 38s41.6-16.4 45.4-38zm-207.2 0c3.8 21.6 22.7 38.1 45.4 38 22.7 0 41.7-16.4 45.5-38H24.8zm176.8 255.2h.1v-129.5c0-9.5-7.7-17.1-17.1-17.1h-34.9c-9.5 0-17.1 7.7-17.1 17.1v129.5h69zm221.7 0v-193.2c-1.4 0-2.7.1-4.1.1-24.2 0-45.6-12.3-58.2-31-12.6 18.7-33.9 31-58.1 31-24.1 0-45.5-12.3-58.1-31-12.7 18.7-34 31-58.2 31-24.2 0-45.6-12.3-58.2-31-12.6 18.7-34 31-58.2 31-1.4 0-2.8 0-4.2-.1v193.3h42.5v-129.6c0-22.7 18.5-41.1 41.1-41.1h34.9c22.7 0 41.1 18.5 41.1 41.1v129.5h197.7zm-4.1-217.1c22.7 0 41.6-16.5 45.5-38h-90.9c3.8 21.6 22.7 38 45.4 38z" fill-rule="nonzero" fill="#007cc3"/>
</svg>
