<svg xmlns="http://www.w3.org/2000/svg" viewBox="0 0 600 145" width="600" height="145">
    <title>Laravel Shopper Logo-Light</title>
    <path fill="#eff6ff" d="M190 96.7l3.1-40.4h3.6l-3 37.3h20.9l-.2 3.1h-24.4zm55.2-28.4l-2.2 28.4h-3.4l.4-4.9c-.9 1.7-2.2 3-4 3.9-1.8.9-3.7 1.4-5.7 1.4-2.4 0-4.5-.6-6.4-1.7-1.8-1.1-3.2-2.7-4.2-4.8-1-2.1-1.5-4.5-1.5-7.3 0-3.1.5-5.9 1.6-8.3 1.1-2.4 2.7-4.2 4.7-5.5 2-1.3 4.3-2 7-2 2.3 0 4.4.5 6.1 1.5 1.7 1 3 2.5 3.8 4.3l.4-5.2h3.4zm-7 22.4c1.8-2.3 2.6-5.5 2.6-9.5 0-3.4-.8-6.1-2.4-7.9-1.6-1.8-3.9-2.7-6.8-2.7-3.1 0-5.5 1.1-7.2 3.4-1.7 2.3-2.6 5.5-2.6 9.5 0 3.4.8 6 2.4 7.8 1.6 1.9 3.9 2.8 6.8 2.8 3 0 5.4-1.1 7.2-3.4zm30-22.8l-.3 3.1c-.7-.2-1.6-.2-2.6-.2-2.9 0-5.2.9-6.7 2.8-1.6 1.9-2.4 4-2.6 6.6l-1.4 16.7h-3.5l1.6-20.5c.2-2.5.2-4.4.2-5.7 0-1 0-1.7-.1-2.2h3.2l.1 4.7c.9-1.7 2.2-3 3.9-3.9 1.7-.9 3.5-1.4 5.5-1.4 1.3-.3 2.1-.2 2.7 0zm27.6.4l-2.3 28.4h-3.4l.4-4.9c-.9 1.7-2.2 3-4 3.9-1.8.9-3.7 1.4-5.7 1.4-2.4 0-4.5-.6-6.4-1.7-1.8-1.1-3.2-2.7-4.2-4.8-1-2.1-1.5-4.5-1.5-7.3 0-3.1.5-5.9 1.6-8.3 1.1-2.4 2.7-4.2 4.7-5.5 2-1.3 4.3-2 7-2 2.3 0 4.4.5 6.1 1.5 1.7 1 3 2.5 3.8 4.3l.4-5.2h3.5zm-7.1 22.4c1.8-2.3 2.6-5.5 2.6-9.5 0-3.4-.8-6.1-2.4-7.9-1.6-1.8-3.9-2.7-6.8-2.7-3.1 0-5.5 1.1-7.2 3.4-1.7 2.3-2.6 5.5-2.6 9.5 0 3.4.8 6 2.4 7.8 1.6 1.9 3.9 2.8 6.8 2.8 3.1 0 5.5-1.1 7.2-3.4zm35.9-22.4h3.6l-14.4 28.4h-3.6l-9.9-28.4h3.5l8.4 25 12.4-25zm8.6 13.8c0 .3-.1.8-.1 1.5 0 3.3.8 5.9 2.5 7.7 1.6 1.9 4 2.8 7.1 2.8 1.7 0 3.4-.3 5.1-.9 1.7-.6 3.2-1.4 4.5-2.6l1.1 2.6c-1.1 1.1-2.7 2.1-4.7 2.8-2 .7-4.1 1-6.1 1-4.1 0-7.3-1.2-9.6-3.7s-3.5-5.8-3.5-10c0-3.1.6-5.9 1.7-8.3 1.1-2.4 2.8-4.2 4.9-5.6 2.1-1.3 4.6-2 7.4-2 3.6 0 6.4 1 8.4 3.1 2.1 2 3.1 5 3.1 8.8 0 .8-.1 1.7-.2 2.6h-21.6zm3.8-9.3c-1.7 1.6-2.9 3.8-3.5 6.7h18.4c.1-2.9-.6-5.1-2.1-6.7-1.5-1.6-3.5-2.4-6-2.4-2.9 0-5.1.8-6.8 2.4zm23 23.9l3.4-41.7h3.5l-3.4 41.7h-3.5z"/>
    <path fill="#ffffff" d="M383.4 92.2l2.4-4.3c2 1.6 4.1 2.7 6.3 3.5 2.1.7 4.5 1.1 7.1 1.1 3.1 0 5.4-.5 7-1.6 1.6-1.1 2.4-2.6 2.4-4.7 0-1.2-.4-2.3-1.2-3.1-.8-.8-1.8-1.5-3-1.9-1.2-.5-2.9-1-5.1-1.7-2.8-.8-5.1-1.6-6.9-2.4-1.8-.8-3.3-1.9-4.5-3.4-1.3-1.5-1.9-3.5-1.9-5.9 0-2.3.6-4.4 1.9-6.2 1.3-1.8 3.1-3.1 5.4-4.1 2.3-1 5.1-1.4 8.2-1.4 2.8 0 5.5.4 8 1.3s4.6 2.1 6.3 3.7l-2.4 4.3c-1.7-1.5-3.6-2.6-5.7-3.4-2-.8-4.1-1.1-6.3-1.1-3 0-5.4.6-7 1.8-1.7 1.2-2.5 2.8-2.5 4.8 0 1.4.4 2.5 1.3 3.4.9.9 2 1.6 3.2 2.1 1.3.5 3.1 1.1 5.4 1.8 2.8.8 5 1.6 6.7 2.3 1.7.7 3.2 1.8 4.3 3.2 1.2 1.4 1.8 3.3 1.8 5.5 0 3.6-1.4 6.4-4.2 8.5-2.8 2.1-6.6 3.1-11.5 3.1-6.1-.2-11.3-1.9-15.5-5.2zm60.5-22.2c1.7 1.7 2.5 4.2 2.5 7.5 0 .7 0 1.2-.1 1.6l-1.4 17.6h-5.7l1.4-17.3c0-.3.1-.7.1-1.2 0-4.1-2-6.1-5.9-6.1-2.5 0-4.4.7-5.9 2.2-1.4 1.5-2.3 3.5-2.4 6.1l-1.3 16.3h-5.7l3.3-41.7h5.7l-1.4 17c1-1.4 2.3-2.6 3.9-3.3 1.6-.8 3.5-1.2 5.5-1.2 3.3 0 5.7.8 7.4 2.5zm14 25.4c-2.1-1.1-3.7-2.8-4.8-4.8-1.1-2.1-1.7-4.5-1.7-7.3 0-3.2.6-6 1.8-8.3 1.2-2.4 2.9-4.2 5-5.5 2.2-1.3 4.7-1.9 7.5-1.9s5.2.6 7.2 1.7c2.1 1.2 3.7 2.8 4.8 4.8 1.1 2.1 1.7 4.5 1.7 7.3 0 3.2-.6 6-1.8 8.3-1.2 2.4-2.9 4.2-5 5.5-2.1 1.3-4.6 1.9-7.5 1.9-2.7 0-5.1-.5-7.2-1.7zm13.6-5.9c1.5-2.1 2.2-4.9 2.2-8.3 0-2.9-.7-5.2-2-6.8s-3.3-2.4-5.9-2.4c-2.7 0-4.8 1-6.3 3.1s-2.2 4.8-2.2 8.3c0 3 .7 5.3 2 6.9 1.3 1.6 3.3 2.4 6 2.4s4.7-1.1 6.2-3.2zm35.6-20.3c1.8 1.1 3.3 2.7 4.3 4.8 1 2.1 1.5 4.5 1.5 7.3 0 3.1-.6 5.9-1.7 8.3-1.1 2.4-2.7 4.3-4.8 5.6-2 1.3-4.4 2-7 2-2.2 0-4.1-.5-5.7-1.4-1.6-.9-2.9-2.2-3.8-3.9l-1.4 17.1h-5.7l2.6-32.8c.2-1.5.2-3.3.2-5.4 0-1.2 0-2.1-.1-2.7h5.3l.1 4.7c.9-1.7 2.2-3 3.9-3.9 1.7-.9 3.6-1.4 5.7-1.4 2.6 0 4.8.5 6.6 1.7zm-2.2 20.5c1.5-2 2.2-4.7 2.2-8.2 0-3-.7-5.3-2.1-6.9-1.4-1.6-3.4-2.5-5.9-2.5-2.7 0-4.7 1-6.2 3s-2.2 4.7-2.2 8.2c0 3.1.7 5.4 2.1 7s3.4 2.4 5.9 2.4c2.6 0 4.7-1 6.2-3zm35.7-20.5c1.8 1.1 3.3 2.7 4.3 4.8 1 2.1 1.5 4.5 1.5 7.3 0 3.1-.6 5.9-1.7 8.3-1.1 2.4-2.7 4.3-4.8 5.6-2 1.3-4.4 2-7 2-2.2 0-4.1-.5-5.7-1.4-1.6-.9-2.9-2.2-3.8-3.9l-1.4 17.1h-5.7l2.6-32.8c.2-1.5.2-3.3.2-5.4 0-1.2 0-2.1-.1-2.7h5.3l.1 4.7c.9-1.7 2.2-3 3.9-3.9 1.7-.9 3.6-1.4 5.7-1.4 2.6 0 4.7.5 6.6 1.7zm-2.2 20.5c1.5-2 2.2-4.7 2.2-8.2 0-3-.7-5.3-2.1-6.9-1.4-1.6-3.4-2.5-5.9-2.5-2.7 0-4.7 1-6.2 3s-2.2 4.7-2.2 8.2c0 3.1.7 5.4 2.1 7 1.4 1.6 3.4 2.4 5.9 2.4 2.6 0 4.7-1 6.2-3zm17.6-7.1v.7c0 3 .7 5.3 2.2 6.9 1.5 1.6 3.6 2.4 6.4 2.4 3.4 0 6.5-1.1 9.1-3.2l1.5 4c-1.2 1.1-2.8 2-4.8 2.7-2 .6-4 1-6.1 1-2.8 0-5.3-.6-7.4-1.7-2.1-1.1-3.7-2.8-4.9-4.8-1.1-2.1-1.7-4.5-1.7-7.3 0-3.1.6-5.9 1.8-8.3 1.2-2.4 2.9-4.3 5-5.6 2.2-1.3 4.6-2 7.4-2 3.8 0 6.7 1.1 8.9 3.2s3.2 5.2 3.2 9.2c0 .8-.1 1.7-.2 2.6h-20.4zm3.2-9c-1.4 1.3-2.4 3.1-2.9 5.6h15.3c0-2.4-.6-4.2-1.8-5.5-1.2-1.3-2.9-2-5.1-2-2.2 0-4.1.6-5.5 1.9zm40.8-5.7l-.5 5.2c-1-.4-2.1-.6-3.3-.6-2.6 0-4.6.8-6.1 2.4-1.4 1.6-2.2 3.6-2.4 6l-1.3 15.9h-5.7l1.6-20.5c.2-2.6.2-4.5.2-5.8 0-1 0-1.8-.1-2.3h5.3l.1 4.5c.9-1.6 2.2-2.9 3.8-3.8 1.6-.9 3.5-1.4 5.4-1.4 1.2 0 2.1.1 3 .4z"/>
    <radialGradient id="a" cx="105" cy="40" gradientUnits="userSpaceOnUse" r="135">
        <stop offset="0" stop-color="#bfdbfe"/>
        <stop offset="1" stop-color="#3b82f6"/>
    </radialGradient>
    <path fill="url(#a)" d="M10 35h100v110h-100z"/>
    <linearGradient id="b" gradientUnits="userSpaceOnUse" x1="80" x2="120" y1="100" y2="60">
        <stop offset="0" stop-color="#eff6ff"/>
        <stop offset="1" stop-color="#60a5fa"/>
    </linearGradient>
    <path fill="url(#b)" d="M120 90l-40 10v-30l40-10z"/>
    <linearGradient id="c" gradientUnits="userSpaceOnUse" x2="40" y1="135" y2="95">
        <stop offset="0" stop-color="#60a5fa"/>
        <stop offset="1" stop-color="#eff6ff"/>
    </linearGradient>
    <path fill="url(#c)" d="M40 125l-40 10v-30l40-10z"/>
    <linearGradient id="d" gradientUnits="userSpaceOnUse" x1="25" x2="95" y1="52.5" y2="52.5">
        <stop offset="0" stop-color="#1d4ed8"/>
        <stop offset="1" stop-color="#bfdbfe"/>
    </linearGradient>
    <path fill="url(#d)" d="M60 60c-13.8 0-25-11.2-25-25h-10c0 19.3 15.7 35 35 35s35-15.7 35-35h-10c0 13.8-11.2 25-25 25z"/>
    <linearGradient id="e" gradientUnits="userSpaceOnUse" x1="25" x2="95" y1="17.5" y2="17.5">
        <stop offset="0" stop-color="#dbeafe"/>
        <stop offset="1" stop-color="#3b82f6"/>
    </linearGradient>
    <path fill="url(#e)" d="M60 10c13.8 0 25 11.2 25 25h10c0-19.3-15.7-35-35-35s-35 15.7-35 35h10c0-13.8 11.2-25 25-25z"/>
</svg>
