<?xml version="1.0" encoding="UTF-8" standalone="no"?>
<svg
   xmlns:dc="http://purl.org/dc/elements/1.1/"
   xmlns:cc="http://creativecommons.org/ns#"
   xmlns:rdf="http://www.w3.org/1999/02/22-rdf-syntax-ns#"
   xmlns:svg="http://www.w3.org/2000/svg"
   xmlns="http://www.w3.org/2000/svg"
   viewBox="0 0 750 471"
   height="471"
   width="750"
   xml:space="preserve"
   version="1.1"
   id="svg2"><metadata
     id="metadata8"><rdf:RDF><cc:Work
         rdf:about=""><dc:format>image/svg+xml</dc:format><dc:type
           rdf:resource="http://purl.org/dc/dcmitype/StillImage" /><dc:title></dc:title></cc:Work></rdf:RDF></metadata><defs
     id="defs6" /><g
     transform="matrix(1.25,0,0,-1.25,0,471)"
     id="g10"><g
       transform="matrix(0.21974042,0,0,0.21974042,-11.442822,-123.04249)"
       id="g12"><path
         id="path14"
         style="fill:#80d6f7;fill-opacity:1;fill-rule:evenodd;stroke:none"
         d="m 236.855,1229.96 -85.832,-143.98 2523.357,0 0,143.98 -2437.525,0" /><path
         id="path16"
         style="fill:#2056ae;fill-opacity:1;fill-rule:evenodd;stroke:none"
         d="m 856.164,1653.6 c 0.918,1.85 1.848,3.69 2.77,5.54 0,0.92 0.921,2.77 0.921,3.68 0,4.62 -3.691,8.31 -11.078,10.16 -7.379,1.84 -18.457,2.77 -34.148,2.77 -15.691,0 -27.688,-0.93 -35.074,-3.69 -8.305,-2.77 -14.766,-9.24 -19.379,-18.46 L 631.883,1394.25 c -0.922,-1.85 -0.922,-2.77 -1.844,-3.69 0,-1.85 0,-3.7 0,-5.54 0,-4.61 2.766,-8.31 9.227,-10.15 6.461,-2.77 16.613,-3.69 30.461,-3.69 17.535,0 30.457,1.84 38.761,4.61 8.309,2.77 14.77,9.23 19.383,18.46 l 128.293,259.35 z m 308.266,2.77 -131.98,-264.89 c -0.93,-0.92 -1.84,-2.77 -2.77,-4.62 -17.54,-35.07 -43.379,-58.14 -79.375,-69.22 -23.996,-7.38 -57.223,-12 -98.754,-14.76 -42.457,-2.77 -115.375,-4.62 -218.746,-4.62 -129.211,0 -215.047,3.69 -258.426,10.15 -42.457,6.47 -63.684,17.54 -63.684,34.15 0,6.46 0.922,14.77 3.692,23.08 2.769,8.31 6.461,16.61 11.074,25.84 l 130.141,264.89 1.843,2.77 c 17.535,35.99 43.379,59.06 75.684,69.22 23.996,7.38 55.375,12.92 95.988,15.69 39.688,2.77 115.367,4.61 227.047,4.61 138.441,0 227.046,-3.69 264.886,-10.15 37.84,-7.38 57.22,-19.38 57.22,-37.84 0,-4.62 -0.92,-11.08 -2.77,-17.54 -2.76,-7.38 -6.46,-15.69 -11.07,-26.76 z m 826.97,0 c 5.54,10.15 8.3,18.45 11.07,25.84 2.77,7.38 3.69,12.92 3.69,18.46 0,18.46 -19.37,30.46 -57.22,37.84 -37.84,6.46 -126.44,10.15 -264.89,10.15 -111.67,0 -188.28,-1.84 -227.97,-4.61 -39.68,-2.77 -71.06,-8.31 -95.06,-15.69 -18.46,-6.47 -32.3,-13.85 -43.38,-23.08 -11.07,-9.23 -22.15,-24.92 -34.15,-48.91 l -130.13,-264.89 c -4.62,-9.23 -8.31,-17.53 -11.08,-25.84 -2.77,-8.31 -3.69,-16.62 -3.69,-23.08 0,-16.61 21.23,-27.68 63.68,-34.15 43.38,-6.46 129.22,-10.15 258.43,-10.15 103.37,0 176.28,1.85 218.74,4.62 41.53,2.76 74.76,7.38 98.75,14.76 35.08,11.08 62.77,35.07 81.22,71.99 l 0,1.85 50.77,98.75 -307.35,0 -47.06,-95.98 c -4.62,-9.23 -11.08,-14.77 -19.39,-18.46 -9.23,-2.77 -22.15,-4.61 -38.77,-4.61 -13.84,0 -24.91,0.92 -30.45,3.69 -6.46,1.84 -9.23,5.54 -9.23,10.15 0,1.84 0,3.69 0,4.61 0,1.85 0.92,2.77 1.84,4.62 l 127.37,259.35 c 5.54,9.22 12,15.69 20.31,18.46 7.38,2.76 19.38,3.69 35.07,3.69 15.69,0 26.77,-0.93 34.15,-2.77 7.38,-1.85 11.08,-5.54 11.08,-10.16 -1.85,-3.68 -3.7,-7.37 -3.7,-9.22 l -29.53,-59.08 306.42,0 30.46,61.85 z m 444.86,-24 -126.44,-170.75 98.75,0 39.69,170.75 -12,0 z m -123.67,113.52 371.03,0 -28.62,-444.86 -289.8,0 22.15,87.68 -129.22,0 -67.37,-87.68 -287.04,0 408.87,444.86" /><path
         id="path18"
         style="fill:#2056ae;fill-opacity:1;fill-rule:evenodd;stroke:none"
         d="m 1958.17,1144.13 55.38,-1.85 c -3.69,-7.38 -8.31,-13.84 -15.69,-19.38 -6.46,-4.61 -14.77,-9.23 -24,-13.85 -9.23,-3.69 -19.38,-6.46 -30.46,-8.3 -10.15,-1.85 -21.22,-2.77 -32.3,-2.77 -12.92,0 -25.84,1.84 -36.92,4.61 -11.07,3.7 -20.3,8.31 -26.77,15.7 -7.38,6.46 -10.14,14.76 -10.14,24.91 0,3.7 0,7.39 0.91,11.08 3.7,12.92 11.08,24 22.16,34.15 11.07,9.23 24.92,15.69 40.61,21.23 15.69,4.61 30.45,6.46 46.14,7.38 16.62,0 29.54,-1.84 41.54,-4.61 11.07,-2.77 20.3,-6.47 26.76,-12 5.54,-5.54 9.23,-12 9.23,-20.31 0,-1.84 -0.92,-5.53 -1.84,-9.23 l -57.23,-1.84 c 0.93,1.84 0.93,3.69 0.93,6.46 0,5.54 -2.77,9.23 -6.46,11.08 -4.62,2.76 -10.16,3.68 -18.47,3.68 -18.45,-0.92 -30.45,-11.99 -36.91,-33.22 -1.85,-7.39 -2.77,-12.92 -3.69,-17.54 0.92,-3.69 1.84,-6.46 3.69,-8.31 1.84,-1.84 4.61,-3.69 8.31,-4.61 1.84,0 5.53,-0.92 10.15,-0.92 8.3,0 15.69,1.84 22.15,5.53 6.46,3.7 11.07,8.31 12.92,12.93 z m 54.46,-44.31 51.68,0 19.38,23.08 54.46,0 4.61,-23.08 64.61,0 -25.85,116.3 -65.52,0 -103.37,-116.3 z m 123.67,48 -33.23,0 27.69,33.23 5.54,-33.23 z m 125.52,67.38 107.99,0 c 20.3,0 35.99,-1.85 46.15,-7.39 11.08,-4.61 15.69,-11.07 15.69,-20.3 0,-5.54 -1.85,-10.16 -5.54,-15.7 -3.69,-4.61 -9.23,-9.22 -16.61,-12.92 -7.39,-3.69 -14.77,-6.46 -24.92,-8.3 l 20.3,-50.77 -70.15,0 -15.68,44.31 -18.46,0 -14.77,-44.31 -63.68,0 39.68,115.38 z m 55.38,-24 -8.31,-22.15 30.46,0 c 8.31,0 13.85,0.92 19.38,3.69 4.62,2.77 6.47,5.54 6.47,9.23 0,2.77 -0.93,4.62 -4.62,6.46 -2.77,1.84 -7.38,2.77 -13.85,2.77 l -29.53,0 z m 107.99,-90.45 80.29,0 c 22.16,0 42.46,2.77 59.99,7.38 16.62,5.54 30.46,12.92 40.62,21.23 10.15,9.23 17.54,18.46 20.3,28.61 1.84,3.69 1.84,8.31 1.84,12.92 0,6.46 -1.84,12 -4.6,17.54 -3.7,5.54 -8.31,10.15 -14.77,14.77 -6.47,3.69 -14.77,6.46 -24,9.23 -9.23,1.84 -19.39,2.77 -30.46,2.77 l -89.52,0 -39.69,-114.45 z m 71.99,25.84 21.23,62.76 c 4.61,0 7.38,0 9.23,0 11.99,0 21.23,-1.84 26.76,-5.54 5.54,-4.61 8.31,-9.22 8.31,-15.68 0,-1.85 0,-4.62 -0.92,-8.31 -1.85,-9.23 -8.31,-17.54 -17.54,-24 -9.23,-6.46 -22.15,-9.23 -39.69,-9.23 -2.77,0 -5.54,0 -7.38,0" /></g></g></svg>