<?xml version="1.0" standalone="no"?>
<!DOCTYPE svg PUBLIC "-//W3C//DTD SVG 20010904//EN"
 "http://www.w3.org/TR/2001/REC-SVG-20010904/DTD/svg10.dtd">
<svg version="1.0" xmlns="http://www.w3.org/2000/svg"
 width="545.000000pt" height="545.000000pt" viewBox="0 0 545.000000 545.000000"
 preserveAspectRatio="xMidYMid meet">
<metadata>
Created by potrace 1.11, written by Peter Selinger 2001-2013
</metadata>
<g transform="translate(0.000000,545.000000) scale(0.100000,-0.100000)"
fill="#000000" stroke="none">
<path d="M2587 5214 c-1 -1 -31 -5 -67 -9 -36 -4 -68 -9 -71 -11 -3 -2 -21 -6
-40 -9 -143 -25 -306 -82 -446 -156 -471 -249 -789 -712 -848 -1234 -10 -94
-14 -230 -7 -241 4 -6 30 -27 57 -46 28 -19 214 -153 415 -298 201 -145 403
-291 450 -324 47 -33 222 -160 390 -281 168 -122 499 -362 737 -534 l432 -312
-20 -57 c-69 -206 -230 -401 -421 -510 -51 -29 -208 -94 -208 -86 0 2 -11 -1
-25 -6 -61 -23 -265 -33 -364 -17 -344 54 -642 312 -740 642 -33 111 -34 121
-35 310 -2 173 -3 182 -28 238 -70 151 -222 226 -383 190 -109 -25 -185 -87
-231 -188 -28 -61 -36 -116 -38 -259 -2 -99 2 -158 19 -281 28 -200 149 -489
282 -674 88 -122 244 -278 364 -364 145 -104 384 -215 544 -253 118 -29 256
-45 380 -44 77 0 158 3 180 5 40 6 86 12 136 20 98 14 290 80 411 141 487 245
827 740 875 1274 10 119 9 210 -3 218 -6 4 -22 15 -35 25 -13 10 -151 110
-307 222 -156 113 -294 213 -306 222 -13 10 -33 25 -45 33 -22 15 -360 260
-715 518 -104 75 -210 151 -235 169 -25 18 -87 63 -138 100 -220 162 -546 399
-561 408 -9 6 -19 12 -22 15 -3 3 -28 23 -57 43 l-52 38 18 52 c47 137 116
249 212 348 145 150 270 216 528 276 63 15 254 8 341 -12 278 -66 523 -266
637 -523 59 -133 75 -220 78 -427 2 -162 3 -173 29 -227 35 -73 114 -147 186
-172 187 -67 389 32 446 220 23 76 23 372 0 490 -2 12 -7 37 -10 55 -16 103
-101 338 -161 445 -43 78 -50 89 -55 94 -3 3 -22 31 -43 62 -21 31 -48 67 -59
80 -11 13 -36 43 -56 67 -57 69 -210 201 -306 265 -203 135 -436 224 -669 257
-68 9 -333 20 -340 13z"/>
</g>
</svg>
