<?xml version="1.0" standalone="no"?>
<!DOCTYPE svg PUBLIC "-//W3C//DTD SVG 20010904//EN"
 "http://www.w3.org/TR/2001/REC-SVG-20010904/DTD/svg10.dtd">
<svg version="1.0" xmlns="http://www.w3.org/2000/svg"
 width="520.000000pt" height="520.000000pt" viewBox="0 0 520.000000 520.000000"
 preserveAspectRatio="xMidYMid meet">
<metadata>
Created by potrace 1.11, written by Peter Selinger 2001-2013
</metadata>
<g transform="translate(0.000000,520.000000) scale(0.100000,-0.100000)"
fill="#000000" stroke="none">
<path d="M2280 4712 l-655 -387 0 -1160 0 -1159 328 -184 327 -183 316 186
c173 102 322 189 330 192 12 4 14 -49 14 -373 l0 -379 -293 -172 c-160 -94
-312 -183 -337 -196 l-45 -25 -320 189 -320 189 -3 -377 c-2 -294 1 -380 10
-388 7 -7 156 -96 330 -198 l318 -187 657 388 658 387 3 1148 c1 631 -1 1147
-4 1147 -3 0 -157 -89 -342 -199 -286 -168 -958 -551 -969 -551 -2 0 -3 341
-3 758 l0 757 321 189 c176 103 328 190 337 192 10 3 161 -81 337 -185 l320
-189 3 381 c2 297 -1 384 -10 392 -13 12 -646 386 -651 384 -1 0 -297 -175
-657 -387z"/>
</g>
</svg>
