<?xml version="1.0" standalone="no"?>
<!DOCTYPE svg PUBLIC "-//W3C//DTD SVG 20010904//EN"
 "http://www.w3.org/TR/2001/REC-SVG-20010904/DTD/svg10.dtd">
<svg version="1.0" xmlns="http://www.w3.org/2000/svg"
 width="512.000000pt" height="512.000000pt" viewBox="0 0 512.000000 512.000000"
 preserveAspectRatio="xMidYMid meet">
<metadata>
Created by potrace 1.11, written by Peter Selinger 2001-2013
</metadata>
<g transform="translate(0.000000,512.000000) scale(0.100000,-0.100000)"
fill="#000000" stroke="none">
<path d="M2380 4545 c-191 -37 -359 -126 -496 -262 -84 -83 -96 -99 -151 -188
-75 -121 -125 -274 -138 -420 -4 -38 -8 -72 -11 -76 -2 -3 -81 -6 -176 -7 -95
0 -187 -1 -203 -1 l-30 -1 0 -930 0 -930 -25 -9 c-14 -5 -65 -19 -115 -30 -49
-12 -100 -24 -112 -27 l-23 -6 0 -414 c0 -285 3 -414 11 -414 5 0 64 13 129
30 65 16 123 30 127 30 5 0 9 -77 8 -170 l-1 -170 1386 0 1385 0 0 721 c0 472
3 723 10 728 5 5 51 18 100 30 50 11 107 26 128 32 l37 10 0 414 c0 228 -3
415 -7 415 -5 0 -66 -15 -136 -33 -70 -19 -129 -31 -131 -28 -1 3 -2 174 -2
379 l1 372 -30 1 c-16 0 -110 0 -207 0 -161 0 -178 1 -179 17 -3 106 -15 179
-45 273 -108 344 -393 596 -754 666 -57 11 -289 10 -350 -2z m263 -269 c32 -3
92 -17 135 -32 260 -87 443 -318 469 -591 l5 -62 -692 1 -692 1 5 58 c21 214
131 397 311 517 83 55 214 102 305 109 36 3 68 7 69 8 2 2 9 2 15 0 7 -2 38
-6 70 -9z"/>
</g>
</svg>
